/* XPM */
static char *result[] = {
/* columns rows colors chars-per-pixel */
"75 75 226 2 ",
"   c #1F1F3A",
".  c #231F3C",
"X  c #1E213D",
"o  c #3E352C",
"O  c #24213D",
"+  c #2B223E",
"@  c #2D293F",
"#  c #33233E",
"$  c #3A223E",
"%  c #322C39",
"&  c #3B3438",
"*  c #3A2C23",
"=  c #31271D",
"-  c #42372E",
";  c #43243C",
":  c #51263F",
">  c #443B33",
",  c #4A3E34",
"<  c #443B39",
"1  c #4B4036",
"2  c #4D433B",
"3  c #474038",
"4  c #51463C",
"5  c #52493E",
"6  c #544639",
"7  c #241E44",
"8  c #251F49",
"9  c #1D2141",
"0  c #242242",
"q  c #2A2343",
"w  c #26244B",
"e  c #2A264D",
"r  c #2B294D",
"t  c #2C2A44",
"y  c #342341",
"u  c #3C2441",
"i  c #322D43",
"p  c #362C47",
"a  c #343046",
"s  c #3A354C",
"d  c #393549",
"f  c #272553",
"g  c #292653",
"h  c #272952",
"j  c #2B2A54",
"k  c #2B2B5B",
"l  c #28255A",
"z  c #312A5C",
"x  c #302953",
"c  c #393655",
"v  c #2E315E",
"b  c #2B2E64",
"n  c #2C2965",
"m  c #332B66",
"M  c #362E6A",
"N  c #2C3164",
"B  c #2D326B",
"V  c #2F386F",
"C  c #35346C",
"Z  c #352D72",
"A  c #382E72",
"S  c #2F3671",
"D  c #2F3872",
"F  c #313672",
"G  c #393073",
"H  c #313B75",
"J  c #3D357E",
"K  c #333D7A",
"L  c #3F3977",
"P  c #432542",
"I  c #4B2642",
"U  c #452B46",
"Y  c #562943",
"T  c #5C2A44",
"R  c #552642",
"E  c #463B48",
"W  c #52354C",
"Q  c #423D53",
"!  c #622A44",
"~  c #6D2C45",
"^  c #692B45",
"/  c #732C45",
"(  c #762E48",
")  c #743149",
"_  c #7B344A",
"`  c #79364B",
"'  c #71374D",
"]  c #40367F",
"[  c #403A78",
"{  c #34427C",
"}  c #344679",
"|  c #4C4543",
" . c #544B43",
".. c #5A4E44",
"X. c #534949",
"o. c #5B5146",
"O. c #5D534B",
"+. c #575047",
"@. c #4A4456",
"#. c #5A5357",
"$. c #524B57",
"%. c #61554C",
"&. c #62574B",
"*. c #645B53",
"=. c #695D54",
"-. c #645C5B",
";. c #675D58",
":. c #745053",
">. c #6C635B",
",. c #686057",
"<. c #73665C",
"1. c #73665B",
"2. c #595462",
"3. c #4E4B62",
"4. c #645D66",
"5. c #6C6566",
"6. c #756C63",
"7. c #756C68",
"8. c #7A7066",
"9. c #7D746C",
"0. c #7B7373",
"q. c #756D70",
"w. c #81394D",
"e. c #853E51",
"r. c #8B4455",
"t. c #894757",
"y. c #934D5B",
"u. c #924958",
"i. c #95515E",
"p. c #99535E",
"a. c #8E505D",
"s. c #975360",
"d. c #9B5561",
"f. c #9E5862",
"g. c #A25662",
"h. c #81766D",
"j. c #85796D",
"k. c #847B73",
"l. c #867C77",
"z. c #A3555F",
"x. c #8C837C",
"c. c #8B8178",
"v. c #91867D",
"b. c #93897F",
"n. c #3E3582",
"m. c #423784",
"M. c #463C8A",
"N. c #453B88",
"B. c #473D91",
"V. c #364683",
"C. c #394C8C",
"Z. c #374A87",
"A. c #3A528C",
"S. c #3E598F",
"D. c #3A4F90",
"F. c #3C5394",
"G. c #3E5699",
"H. c #3F5A9A",
"J. c #3D5A95",
"K. c #3F629C",
"L. c #4D4696",
"P. c #514D99",
"I. c #514E96",
"U. c #415B9B",
"Y. c #58569E",
"T. c #57549E",
"R. c #474189",
"E. c #41639D",
"W. c #5B5BA2",
"Q. c #5856A1",
"!. c #4369A6",
"~. c #4772AE",
"^. c #4975B2",
"/. c #4A7AB6",
"(. c #4C7DBA",
"). c #6A67A6",
"_. c #7A75AA",
"`. c #6A6EB2",
"'. c #6569B1",
"]. c #6C71B4",
"[. c #6F74B8",
"{. c #7075B9",
"}. c #66619F",
"|. c #817AAD",
" X c #867FB2",
".X c #4E82BD",
"XX c #5084BE",
"oX c #4F85C2",
"OX c #518AC7",
"+X c #589AD7",
"@X c #5491CD",
"#X c #5BA1DD",
"$X c #5CA7E1",
"%X c #8E8683",
"&X c #948C83",
"*X c #998E85",
"=X c #948B85",
"-X c #9A9187",
";X c #9D948C",
":X c #9F988E",
">X c #9F9891",
",X c #A0968D",
"<X c #A1988F",
"1X c #A09790",
"2X c #A49B93",
"3X c #A99F95",
"4X c #A89F98",
"5X c #AAA096",
"6X c #ADA39B",
"7X c #A5A09A",
"8X c #B2A89F",
"9X c #B0A69D",
"0X c #8A8ABA",
"qX c #908DB9",
"wX c #B5ACA3",
"eX c #B5ACA4",
"rX c #BDB2A9",
"tX c #C4BBB1",
"yX c #CDC3BB",
"uX c #9A99C3",
"iX c #AAA6C7",
"pX c #B1ADC9",
"aX c #B1ADC6",
"sX c #B5B1CB",
"dX c #A39FC2",
"fX c #D9CFC6",
/* pixels */
"2X4X;XeX6X>X4Xl.> 8.4X2X2X>X9X=X&Xk.*.>X7X:X>X>X7X>X%X2 6.0.&X%X&X&Xk.&XO.0.*.2 ;X%XwX4X6X2X;X;.5 +.b.rX,Xj.6X*X;X3X2X2X,X;X1X=X5 8.6XwX5X5X<Xv.+.+.:X",
";X2X1X>X-X>X;Xq.2 9.4X4X4X4X9Xl.x.k.| %X-X7X>X;X>X;Xk.3 #.,.6.-.-.,.O.,.| -.+.& l.q.%Xl.=X4X*X| 2 1.-X9X,Xj.b.l.h.*X2X3X4X1Xb.|.3 O.9.&X:X5X5X<X9.*.:X",
"v.%X2X1X2X6Xx.>.< 8.>X-X-X;X4Xl.6.x. .&X&X:X>X>X>X&X9.3 #.s s d s c s c a a a i Q Q @.Q Q %X%X3 5 6.h.8.*X*X3X5Xl.*Xl.*X<X<X<Xv.> O.8.9.&X:X:X>X7XO.c.",
"=Xl.%X-X;X=X8.*., 0.4X2X>X>X6X%X+.x.+.>X:X:X>X0.5.7.$.@ s k k n k k v k e j b k l z k k l @.@.< 3 +.<.9.,X,X,X,Xb.j.h.b.5Xb.c.=.3 -X9Xb.&X5X<X5Xb.1 <.",
"eX2X0.k.9.>.6.*.o >.=X;X>X;X1X9.,.9.3 b.;X5.7.c c @.r v } K.K.E.K.E.J.S q f K H.!.E.E.E.U.N k d a r Q #.5.9.j.l.v.h.>.j.b.b.9.O.1 :X5X8.<.x.-X5Xb.,.>X",
"x.;X9.9.9.*.,.2 >  .;.5.k.l.&X5.#.,.3 #.-.w 0 k v h k B A.#X#X+X#X$XOXK 0 w A.+X+X+X+X#X+X{ b f h N h 0 a <.5.9.<.8.=.5 o.,.6.O.2 9.6.2 2 O.6.-X9.<.b.",
"2 >.*.*.>.O. .> , < > - 2 2 O.,  . .& 0 0 B D V h h k B } J.J.F.F.G.D.B w w K F.U.U.G.G.G.V B h h N V V N 0 0 o , ..5 2 - 3 2 > 3 5 2 o 3 o o +.5 2 2 ",
"O.X.| , |  .X.7.k.k.k.6.-.,  .<  .% e n b OX#XH.B h h h H F.F.D.F.G.Z.B w e K F.F.D.A.A.F.F e h h V ^.#X^.h k r X...1 5 5 3 +.>.>.6.9.0.c.,.2 5 ,.<.O.",
"4X>X>Xl.+.3 l.yXeXeX6X7X1X=X0.> % w Z.XX/././.XX!.B 8 h D { F.G.G.G.A.V 0 h K F.G.G.U.C.K S 0 8 { ^..X/./.(.(.V p X.o..., =.,X2X5X8X8X;X&X6.+.9.5X5X5X",
"2X4X6X6Xl.| 7.9X;X;X;X2X4X%X5.d t Z..X@XOXJ.Z.^.~.D w h k B V.V.V.V.{ B w h S V.V.V.V.{ b k h f Z./.!.V.!.@XOX~.H x X.X.E j.5X,X<X<Xc.5 o o O.5X:X7X<X",
"4X1X-X;Xx.> 6.6X2X6X4X;Xx.3.e j V..XoXC.F.F.F.G.Z.V b g w b N B N B b b w e b B B b B B B 0 k b H A.G.F.D.F.F.@X~.H x r E j.tX,X5X7X;Xj.O.o O.rX-X;X:X",
"1X4X;X4X7X2 >.x.0.l.-X2X2.j n } .X/.F.F.A.F.F.G.V.V b h O e b b b b n e 0 q e N b b b b B 9 k b H Z.F.F.F.D.D.G.OX~.H k r W 6XtX6X6X8X6Xc.1 O.6X<X;X*X",
"=X9X1X-X=X5 k.7X6Xx.9.3.k j h V Z.F.F.F.F.G.G.V.D b j 0 O 0 w h w w w 0 O q 0 w g e w w w 0 0 k B H C.G.F.F.F.A.A.Z.N e j j #.4X2X8X6X-X8.+.+.<.<X;Xb.",
"5.-X2X;Xc.X.c.6XwX2X0.x n g 8 h n S Z.G.G.G.V.D n h 0 O 0 X O X 9 9 . 0 0 0 O O X 9 0 X O O O 0 l b K C.G.G.G.V.S l e 8 g k E 2X5X5X<X-Xk.O.O.,.8.c.;X",
"l.%X%X9.O.2 7.>X&X-X4.c A.!.} w f b H Z.V.V.S b j 0 O q q P P $ u y 0 0 O 0 O 0 u u P P u 0 O O 0 l b K Z.V.V.S k w h A.!.{ c 5.-Xx.<.9.<.5 O.8.+.1.c.",
".. .X.*.X. .*.7.k.#.t b /.+X/.} w e b B B B b j 0 O 0 0 $ ~ ^ ! ~ T t 0 0 0 0 u ! ~ ! ^ ^ t 0 0 O q l b B B B b w f A.OX+X!.f p #.,.O.,.+.3 +.O.O.+.+.",
"- > > > 2 2 5  .2 d r } J.!.(.(.{ e h n b b h 7 O 0 0 q u / / ) / ~ T q 0 0 y ! ~ ) / / ^ # 0 0 0 O q h b b B e h S.oX^.!.F.B r 3 O.#.| 5 O.O.5 3 2 2 ",
"<.8.8.8.8.<.*.O.< t V ^.H.V.U..X(.} w e h e 0 O O 0 0 u T ( r.t.) / ! y 9 0 $ ~ / ` r.e.^ Y y 0 0 0 O w r w e 8 J..X^.F.V.!.!.v 3.x.x.c.b.7X9X6X,.1 >.",
"7X9X6X7X6X2X;X;X@.r V.oX!.F.Z.U..XF.f . O O X y u 0 0 I _ r.p.p.t._ ! q O 9 p ~ ` y.d.i.w.( u O t u q O O O O l !./.F.C.F.^.(.V x 5.*X,X>X;X<X5Xc.o j.",
";X;X-X*X;X:X;X&Xc h B V.D.G.F.F.Z.S h O 0 0 q T T q X I w.p.i.i.d.r.T + 9 0 # ) i.d.i.i.p._ u 9 u ! I 0 0 0 O b K Z.F.F.F.C.K N z 2.;X3X7X-X<X6Xb.3 9.",
":X2X2X<X2X:Xx.s k B N B Z.F.F.Z.V b h O O 0 T / T q X I ` p.i.i.d.r.! q 9 0 $ ~ y.s.i.i.y.) u 9 u ^ / I 0 O 0 k b K D.F.F.{ b b B j $.&X3X5X9Xb.9.2 <.",
"2X5X<X<X2X2X=Xs v B B B B B V B b j 0 0 0 ! ~ / Y t 0 I w.p.i.i.p.r.! q 0 9 $ ~ u.s.i.p.i.) u 9 y ! / ^ I 9 0 0 l B B B B B B B B k @.&Xb.<X<Xb.6.5 1.",
";X2X<X<X7X2X;X&XQ r w w b B B b h 0 0 y T ^ ~ / Y q X : w.p.i.i.p.r.! . 9 0 y ~ t.s.s.i.i.( y 9 y ! / ~ ! R q O 0 k b B B k q e c 5.b.v.j.c.<X5X9.3 9.",
"c.&X;X;X;Xx.8.$.x j g g h h j h 0 . 9 q / ` ~ / Y q 9 : ` p.i.i.p.r.! y 0 0 u ) y.s.i.s.i.) u 9 u ! ~ ) e.! O 0 O w j g h j k f x $.j.b.5Xb.b.b.9.= c.",
"2 O.,.6.<.O.,.a k b n l 8 0 w 0 O 0 q P ~ y.r.) Y + 0 I w.p.p.i.p.r.! + 0 O # ) y.i.i.i.i.) u 9 $ ! _ r.r.! u q 0 O 0 h q w l b b x E &.<.&Xb.b.2 &.,.",
"5  .1 > o > 3 t b D V.{ { B f q 0 0 P ~ ) y.i.w.: q 0 I ` p.i.i.p.r.! 7 0 0 u ~ y.i.i.p.i.) u 9 # ^ r.p.u./ ! # 0 O 0 l V { V.{ F x d 6 %.=.=...- 4 5 ",
"5 3 5 8.9.,.o i h A..XoXOXJ.B h 0 7 P _ t.p.f.r.T 0 9 I w.p.i.i.p.r.! q 0 9 y / u.p.i.i.i.( $ X # ^ u.f.i.r.) y O w k V !.OXoX/.{ e * 6 1 , 1 6 o.&.*.",
":Xc.c.8X6Xx.o d h A.oXOXoX(.J.B 0 . P _ d.p.d.w.Y + 9 I ` p.i.i.p.r.^ + 9 0 # ) y.i.i.p.a.) u 9 i ^ t.p.i.i.~ y O w H !..XoXOX(.K e E 1.&.1 1 6 2X6X9X",
"wX8X5X5X;X&Xo a k K C.C.V.(.^.B 7 O P _ p.s.d.r.T 0 0 I w.d.p.i.d.r.! + 0 X $ ) y.p.p.p.y._ u 9 y ~ t.f.i.y./ y X 8 { oX~.V.Z.C.V j $.j.a...6 , b.,X*X",
";X;X2X2X:Xc.& a l K F.F.F.F.V.b q O u ) y.i.p.` R 0 0 P _ i.p.p.p.e.Y + 9 0 y ^ r.p.p.p.y.~ y 9 # T r.d.p.t.^ y X w B C.F.F.G.D.V x E 1.1.1...6 ,X3X2X",
"8X;X2X:X&X>.> d l K F.J.F.F.Z.b q O 0 y ~ y.w.I O 0 0 O $ ) y.p.w.Y O O O O 9 q ! r.f.t.^ y O 0 O q Y r.y.! q 0 O w V C.G.G.F.D.B j 6 =.1.1.&.6 b.,X,X",
";X:X5X;Xx.>.2 a k K F.G.F.H.Z.b 0 0 0 . # p # + O O O X O # p u # + O O O O X O + p u y # O O O O O + y $ + O O O w B F.F.F.F.F.C i 1 h.=.&.....<X3X,X",
"6.&X5X&X9.&.2 a k F K K K { H N q . w M m n n m m m m m m m n n m m M m m m m m n n n n m n m n m z m n m m m q O e B { K K K K B j E &.%.%.%. .*X;X,X",
"&Xj.9.8.<.+.< i b B B B B B b j 7 e [ Q.P.P.I.P.P.P.P.P.P.P.P.I.P.P.P.P.P.P.P.P.P.P.Y.}.I.}.}.).}.}.}.Y.L.P.P.M w q l B B B b B B j d *.%.2 2  .v.&X*X",
"*...5 3  . .> % j b b k k b j 0 7 G P.].`.'.'.].`.`.`.`.`.'.`.'.`.`.`.`.`.`.`.`.'.`.0XuX`.dXiXiXiXpXiXqX'.`.`.L.k . 0 k n k b b b r & 2 > 4 ..4 O.%.*.",
"1 2 > > 5 +.X.2 a e 0 7 w 0 0 X q M Q.{.`.].].].`.`.].].`.].].].`.`.`.`.`.].`.`.`.`.0XiX`.iXaXpXpXsXpXqX'.`.].P.z 7 O q 0 w 0 0 e E O.| 5 o. .> 2 2 3 ",
"9.,.5  .%.+.O.@.c k h h f f e 0 0 M Y.{.`.`.`.'.`.`.`.`.].'.].].`.`.`.`.`.`.`.`.`.'.0XdX].dXiXaXiXpXiX0X'.'.].L.z O 0 e f h f f k 3.0.;X<.3 o.<X:X;X-X",
"<X*X%.4 >.<.>.p k Z.~.~.~./.F.w 7 M L.W.].[.].[.`.].].].].].].].].].].].`.].[.`.`.`.0XiX[.iXsXaXsXsXpXuX'.`.Y.M.z . N E./.~.^.!.K g $.;X5Xv.c.wX2X2X2X",
"2X9X>.1 6.x.l.s g F.@X+X@X+X~.b t G M.M.W.W.).W.W.W.}.W.).Q.W.W.W.W.W.W.).W.W.W.}.W.).0X}. XqXqX XqXqX|.Q.W.m.B.z 8 H oX+X@X+XOX{ e #.b.*X;X-Xb.-X=X-X",
"2X3X..> 6.h.l.@.k { G.G.G.H.Z.b 0 m N.M.M.M.M.M.M.M.M.M.M.M.R.M.M.R.M.M.M.M.M.M.M.M.M.M.M.M.M.M.M.M.M.M.M.M.M.m.j w V F.U.G.G.F.H j 2.:X9.c.7X*X6X2X2X",
"2X*X, ..O.8.9.s k { A.D.F.F.V.b 0 w M m.m.n.n.m.] m.] m.] ] J n.n.m.m.m.] m.] ] m.J n.n.n.m.J J n.J m.n.n.m.m.z q e V Z.F.C.F.C.D j @.2X=X8X6Xh.b.2X6X",
"*X;X| 5 *.<.>.s l K F.F.F.G.Z.b 0 . t k k z z k z z z z z k z j k k x z z z z z z k z k z x z z z z z j k k z 0 . w D C.F.F.G.D.H j E k.2X-X7X&Xk.x.<X",
"x.h.- , v.3X%XQ j { G.G.F.H.Z.b q 0 O O ; $ ; # X X O O + ; $ ; ; # O X O O X O $ ; ; ; $ O   O   . # ; ; $ X O O w B C.G.F.G.A.V g @.,.x.6X2X6Xh.h.j.",
"<.*.5 5 j.=X=Xs g H Z.C.Z.C.V.b 0 O q P / / / : # 0 O q I / / ~ / Y # O 0 O O u ! / ~ ~ ~ u O 0 7 u ! / / ~ u 0 O w V V.C.Z.C.Z.V h |  .2 8.<.6.*.O.5 ",
"4 o 5 2 +...O.q k B b B b B B b q O ; / ~ ~ ~ / Y q O I ( ~ ~ ~ ~ / ! q 0 0 u ^ / ~ ~ ~ ^ / u 9 y ! / ~ ~ ~ ~ y X w N B B b B B B h d ,.5 o 5 2 > 4  .",
"6X8.6.O. . .X.+ b B b B B B k 0 0 0 P / ^ u.) / Y q 0 I / ~ y.y.` / T # 0 9 u ^ ~ w.i.t.^ ~ u 9 u T / ` r.! / # 0 7 e b B B b B B v #.7X:X6.> 5 c.-X<X",
"tXtXfXyX6X9.&.O.@.j h 9 w w q 0 9 0 P ` t.p.u.` T 0 0 I _ t.i.d.y.w.T q O 0 u ~ r.i.p.i.r.( u 9 y ^ e.y.i.t.~ y 0 0 0 0 w w w w j 4.7X&X:Xx.> <.3X8X8X",
"3X6X6XeXrX-X*.#.c f 8 7 7 7 0 O 0 O ; _ p.y.p.r.Y O O I w.p.i.i.p.r.! + 9 9 # ) y.p.i.i.y.( u 9 y ^ u.d.i.i.~ # 0 O 7 7 7 7 7 8 h 3.c.2X>X>.2 h.wXwXwX",
"5X<X<X<X-X*.+.a h } A.A.A.J.} 9 X 0 P _ i.y.d.e.T 7 0 I w.p.i.i.p.r.! q O 9 # ) u.d.s.s.p.) y 9 y ^ t.f.i.y./ y 0 O k Z.S.S.S.A.V j #.3X&X2 o.,XwX9X5X",
"5X<X<X5Xk.2 3 a h S.@X@XOX+X~.N 8 . P ) p.p.d.e.T q 0 I ` p.i.i.p.r.! q 9 0 $ ~ u.s.i.s.y.) u 9 y ^ r.d.i.y.~ # 0 0 H /.@XOX@XXX{ g 2.;Xk.O.5 8.c.,X8X",
"5X<X<Xb.O.2 3 d k Z././.^./.K.N w . P ` i.y.d.e.T . 9 I w.d.i.s.p.r.! q 0 0 $ ) y.d.s.y.p._ u 9 y ^ u.f.i.y./ y X 9 K !.(.^./.~.H g #.c.<.*.> o.4 6.2X",
"b.*X:X<.5 +.2 a h { Z.C.C.C.{ b 0 + P ` p.p.d.e.Y 0 O I w.s.i.i.g.r.! + 9 9 y ) u.s.y.s.i.( u X y ^ u.d.i.y.) # O e B Z.D.C.Z.V.V j E 8.<.&.3 o.5 6 ,.",
"6.8.c.&.5 &.3 a l K F.F.F.G.V.b 0 7 u ^ t.i.y.' U 7 0 u ) u.p.d.y.` Y q 0 O q ! r.y.s.i.r.! y 9 q T r.y.i.t.T y 9 w S C.F.F.G.D.F j % *.=.5 o.O.&.1 5 ",
"5 1 o.> 3 > 3 @ k K F.F.F.G.V.b t O O q ^ a.` P 0 0 0 0 y ^ t.a.` I 0 9 q O X 7 Y r.a.t.! q O O 9 + R ` t.: 0 0 O w B C.F.F.F.D.H g % 1 1 , 1 > 5 , o.",
"o.5 o.5 &.5 2 @ k K F.F.G.F.V.B q O 0 O + + q 0 O O O O q O q + + O O O O O 0 O 0 O 0 + 7 O O O O . 7 O O . O O O e B C.F.F.F.F.F g $.k.v.c.7.6.k.O.5 ",
"2XwX5XwXwX9X6.@ h { G.G.G.G.Z.b 0 . g G G Z G G G G G G G Z G G G G G G G G G G G Z Z Z A Z Z Z Z Z Z Z G G G w X w S D.H.G.G.G.F r 4.8XyX8Xh.-XyXh.=.",
"5X<X<X2X2X2X=Xs k S K { K { K n w j R.W.Q.Q.Q.Y.Q.Q.Q.Y.Q.Q.Y.Y.Q.Q.Q.W.Q.W.Q.W.Q.Q.)._.Q._._. X|.|._.).Q.W.W.[ w w V K K K { K B j #.>X7X:Xl.-X5X&.j.",
"-Xb.&X*X-X4X=Xd b B B B B B N w t m T.].].`.`.`.].`.].].].].].].`.].`.`.`.`.`.`.`.`.0XiX`.iXpXpXpXsXiX0X'.`.`.L.z t k b B B B B B v $.>X2X;X%X;Xb.1 1.",
"2X2X;X&Xx.=X%X@.h b b b k b h 0 q G Q.{.`.`.].].].`.'.].].].].`.].`.`.`.`.].`.`.'.'.0XiX`.dXpXpXpXpXiXuX'.`.].L.z 7 0 k b k k n N c 5.&X;X2X>X2X2X6 j.",
"2X;X;X%Xx.=Xx.5.s e 9 w 0 w 0 O 0 G P.`.`.].`.`.`.`.].].].'.`.].`.`.].`.`.`.`.`.'.'.0XdX].iXpXiXpXpXdXuX'.`.`.L.z . 0 0 w q 0 w j 3.%X=X;X;X-X;X*X3 j.",
"2X2X4X2X2X3X=X#.x k f h f f w 0 t M L.Y.].`.`.].].`.`.`.].].`.`.`.].].].].`.`.`.`.`.0XiX`.iXpXpXpXpXpXuX'.`.P.B.z X 0 h h h h f v 3.5.c.k.k.c.;Xc.> 6.",
"-X;X>X>X;X;X0.i k V.!.!.!.~.A.w 0 G N.m.Y.T.Y.Q.Y.Y.Y.Y.Q.Q.Y.Y.T.Y.Y.Q.Q.Q.Y.Y.Y.Y.)._.Q._._._._.|._.).P.T.m.M.m O v J.!.!.!.!.} h @.7X7X%X>.+.9.5 >.",
"O.O.*.>.;.;.O.t h G.+X+X+X#X^.N 0 m m.R.m.m.m.N.m.m.m.m.m.m.m.m.m.m.m.m.m.m.n.N.N.m.n.m.m.n.n.n.n.n.n.n.m.N.N.] x 0 { oX+X+X+X@X} 9 d 7.&Xx.7.5 +.3 2 ",
", , 2 2 > < < @ g V.H.H.G.H.Z.N q O k m.J J J ] m.] ] J J J n.J J J ] ] ] m.J J J J n.J n.J J n.n.J n.n.J J m.e . w S F.U.H.H.F.} h a +.*.,.>.+.5 5 3 ",
"...., , :., ;.s k { F.F.D.F.V.N 0 O 0 r e e e e e g e e e w r e e w e e e e e e e r w r e e e e e g e r r e e 0 . w S C.F.A.F.C.F j 2.6XrXeX2X2Xc.6 &.",
"l.6.%.....=.=Xs k H K K { n.B g 0 0 O + I I : $ . . . X # : : : : $ O . O O X O I R : : I . . O O + ; : : : . 0 0 0 g H K K K K V z $.;X1X>X<X6Xv.6 :.",
"j.1....., j.2Xq.c k g g h h e 0 O 0 q R ( ~ / T u . 0 y R / ~ / / ! u q O 0 q I ^ / ~ ~ ~ I q 0 + P ! / ~ ~ P q 0 . 0 h g g g g k @.0.1X,X,X<X5Xc.1 1.",
"<.1...%.6 b.b.|.$.w w 0 0 0 0 0 0 O P ( ~ ( ^ ( T q 0 I / ^ ) ) ~ / ! # 0 9 $ / ~ ) ) / ~ / u 9 y ! / / / ~ / y 0 0 O 0 0 0 0 w j 4.>X7X3X3X3X,Xj.6 j.",
"1.<..., :.b.3XX.N B N B B V k 0 0 O P / ~ y.` ( R q O I / ( y.p._ / T 7 9 0 $ ^ / r.p.t.~ ) u 9 y ^ / t.t.~ ~ # 0 O 0 N B V B N M z 2.,X-X,X3X,Xj.6 j.",
"%.&., , =.b.;XE k F U.@X+X~.{ k 0 O q U i.f.d.' y O 0 q W p.d.g.d.:.y 8 0 O O d t.z.f.d.y.u q 0 0 p ' g.z.u.y 0 O w B Z..X#XoXD.V j #.2X*X*X2X2X..6 a.",
", , ..6 =.h.$.y j H V.E.!.A.V g 0 . 0 q W W W p 0 X 0 0 t W W W W U 0 O 0 0 9 t U W W W W 0 0 0 0 0 U W W E 0 O 0 0 g H J.!.H.{ B g p 4.,X,X,Xl., 6 ..",
", - ....4 d w q j n k k k k g t t w t 0 w 0 q t w 0 w 0 t q w 0 0 0 t w t t 9 t 0 w 0 w w t t 0 w t 0 w 0 w q t q t e k k l k k k g 8 y -.,X,Xj., 6 - ",
", 4  .4 < q y i i y i p @ t i + a p i i i i i i i a + p i i @ @ t @ i t @ @ a a a s i t s s s d i a p i i i i t i s s a d i i p s d a t d ,.;.&.5 - %.",
":.&...=.h.h.0.>.< X.#.*. .-.q.>.-.#.| -.7.q.q.q.5.4.| < | X.#.-.5.7.q.7.,.5.#.| | q.7.q.%X%Xx.>.& - 2 X.-.7.k.l.l.%X%Xl.%X9.5.O.| - < | | 5 , 4 4 4 h.",
"6X,Xv.,X8X8X5X*X2 6.&Xk.>.0.6X-Xl.9.O.x.7X6X8X8X6X-X%. .O.h.=X;X=X>X%X%X>.&X*.3 3 >X%X-X9X6X6X5.> +.x.wX6X2X6X2X7X2X7X2X6X<X2Xl.|  .k.6X3X6.3 4 , =.5X"
};
