/* XPM */
static char *result[] = {
/* columns rows colors chars-per-pixel */
"75 75 139 2 ",
"   c #31271D",
".  c #342C24",
"X  c #3B2D24",
"o  c #393027",
"O  c #37332A",
"+  c #3D352C",
"@  c #3F382E",
"#  c #3E3930",
"$  c #41372D",
"%  c #41382F",
"&  c #4B3B2C",
"*  c #403730",
"=  c #443C34",
"-  c #493E35",
";  c #463D38",
":  c #483F38",
">  c #444037",
",  c #4A4136",
"<  c #474138",
"1  c #4C443B",
"2  c #4F483E",
"3  c #514336",
"4  c #51463D",
"5  c #52483F",
"6  c #59493F",
"7  c #4E4541",
"8  c #4F4840",
"9  c #504741",
"0  c #544B43",
"q  c #594E45",
"w  c #564C49",
"e  c #584F48",
"r  c #575045",
"t  c #5A5146",
"y  c #575048",
"u  c #5C544B",
"i  c #5F584E",
"p  c #5F5651",
"a  c #5F5850",
"s  c #604F45",
"d  c #615345",
"f  c #61564D",
"g  c #62594E",
"h  c #6A5C4F",
"j  c #605750",
"k  c #645B53",
"l  c #6A5E55",
"z  c #665D59",
"x  c #685F58",
"c  c #715F51",
"v  c #725F58",
"b  c #676056",
"n  c #6A6157",
"m  c #676058",
"M  c #6C645B",
"N  c #6E685F",
"B  c #726254",
"V  c #72665D",
"C  c #78675F",
"Z  c #71685F",
"A  c #7A6A5B",
"S  c #6F6661",
"D  c #6F6860",
"F  c #716760",
"G  c #786760",
"H  c #746C63",
"J  c #796E65",
"K  c #766D69",
"L  c #786F69",
"P  c #767064",
"I  c #7A7167",
"U  c #777068",
"Y  c #7C746C",
"T  c #7F786E",
"R  c #7E7670",
"E  c #7F7870",
"W  c #816E65",
"Q  c #827163",
"!  c #81766D",
"~  c #81786F",
"^  c #8C7C6E",
"/  c #807770",
"(  c #847C73",
")  c #897D74",
"_  c #877F79",
"`  c #887F78",
"'  c #898077",
"]  c #878078",
"[  c #8C837B",
"{  c #8F887E",
"}  c #908071",
"|  c #988777",
" . c #91867D",
".. c #998779",
"X. c #92887F",
"o. c #8E8580",
"O. c #8F8880",
"+. c #908780",
"@. c #948C83",
"#. c #998E85",
"$. c #958E88",
"%. c #998F88",
"&. c #979086",
"*. c #9A9087",
"=. c #979088",
"-. c #9C948B",
";. c #9F988E",
":. c #9E9690",
">. c #9F9890",
",. c #A1968D",
"<. c #A1988F",
"1. c #A09790",
"2. c #A49B93",
"3. c #A99F96",
"4. c #A69E99",
"5. c #A89F98",
"6. c #A5A196",
"7. c #A9A097",
"8. c #A7A199",
"9. c #ACA39B",
"0. c #AFA89E",
"q. c #B1A69D",
"w. c #B2A89F",
"e. c #AEA5A0",
"r. c #AFA8A0",
"t. c #B2A7A0",
"y. c #B4ACA3",
"u. c #B8AEA5",
"i. c #B8AFA8",
"p. c #B7B0A6",
"a. c #BBB0A7",
"s. c #BCB3AA",
"d. c #C0B4AD",
"f. c #C1B8AE",
"g. c #C4BBB3",
"h. c #CABEB6",
"j. c #CAC0B7",
"k. c #CEC5BC",
"l. c #D9CFC6",
/* pixels */
"2.4.-.i.e.-.5._ = L 5.4.1.1.e.@.=.E a >.8.>.>.>.2.8.O.1 N E O.O.O.%.( +.p Y j 2 %.+.i.2.9.2.%.x 5 r X.f.<.^ 9.*.*.3.2.2.:.-.:.+.2 H 9.u.3.2.2.[ w 0 <.",
"-.2.1.-.-.1.-.L 1 R 5.5.9.5.q._ O.E 8 O.;.2.>.-.>.-.E # k U E U H H k H w F u 1 1._ 4.-.5.5.@.4 2 M *.9.<.! X.) I #.2.5.4.4.>.O.- u T #.2.3.3.2.! g <.",
"o.+.2.2.2.9.[ M = L -.%.%.-.5.( D [ 8 O.$.:.>.>.>.$.E 1 N U T D S E Y H 0 e 0 w +.I :.-.:.1.+.1 5 P ~ I ..-.3.9.} +. .#.>.>.:.o.= g U ! #.<.-.;.2.g ( ",
"@._ [ %.-.+.L z : / 5.2.1.:.9.o.u [ y >.:.;.2.8.$.E D > z U T H R H j p S H k 0 L x %.-.[ / Y 9 2 P Q T ,.,.,.<.@.^ K +.8.=.E z , *.q.X.+.2.3.3.X., H ",
"t.2.R / / M F k $ M $.-.1.-.1.Y a T < o.=.$.O.=.] D k < p D U U L x w w S H k 0 H j _ %._ H M 5 3 d P P ' P ^ ~  .! M ! O.O.R a = -.9.J Z ' -.7.X.n <.",
"[ :.Y Y I z x 1 * 0 z F ( _ +.F a N > D D D D U U N a 8 y a m D j u f e 9 : : 1 N : u F H M u 1 b 2 i b P P ! Y C J k 0 u m D y 1 Y H 1 2 u H #.! N X.",
"7 M j k x u 0 = : = ; * 1 1 u 1 w r 8 8 8 1 8 a a 8 8 1 > 8 7 8 9 * + 1 1 9 9 : w = = 1 9 w 7 0 r > 2 2 u 6 , % - q 6 : = = 1 = - 0 - @ = o + q 5 1 1 ",
"u w 4 : 9 0 w K ( / / H k : 9 ; 8 = > # > 1 8 # 0 < 8 y 8 8 < 1 w 1 w S e k M M z S F t 1 0 u U N P P 6 6 5 6 T h q - 0 4 - e N M J Y ( ) M 1 2 k Z g ",
"5.1.-.` e : / l.i.y.9.5.1.$.Y = 1 y U Y P E ] E E a S T ] U > 8 2 j 2.2.+.R t.2.4.4.1.%.+.= _ e.2.4.5.%.v W t.h.) v s w - l %.3.7.w.w.-.X.H t T 9.7.3.",
"4.5.9.e.( 7 H t.-.:.1.4.2.5.%.j # [ i.8.] o.r.>.8.O.] ] $.O.m 1 0 L 2.2.o.F 5.-.2.2.2.2.4.u [ 9.3.3.1.%.....q.t.! G G z 6 ! q.%.<.2.' 0 + % t 2.<.2.2.",
"4.1.@.-.[ = F 5.1.t.4.%.%.1.[ : y O.8.8._ D O.] [ :.8.6.=.=.E 8 0 [ 2.4.+.F 5.%.2.1.:.%.+.9 ( 2.%.5.1.1.4.1.,.1.^ G W v q ^ d.2.2.2.-.~ g $ g f.*.-.<.",
"1.5.-.4.5.7 F [ R ` %.5.t.5.+.9 K >.8.>.U a ( =.] [ U R ] =.=.1 7 _ 1.-.%.( 2.1.1.4.1.+.R = Y 3.%.4.1.1.3.%.,.%. .v G W s W q.d.q.9.w.9.( 1 t 7.<.-.&.",
"@.9.1.%.$.9 ( 9.9. ._ 1.%./ x ; D [ =.] E O.>.8.r.>.E @.>.r.r.m * M %.@.-.:.,.2.@.1.1.o.H * S %.4.:.:.1.:.1.e.#.W s v W s h #.q.2.w.9.*.U 0 0 V <.*.X.",
"F %.2.-._ 0 _ 9.y.1.[ _ _ _ ( e a m D E >.i.8.>.@.] U =.;.@.O.k = u _ o.%.2.%.1.2.1.@.R M : k ( %.+.:.4.%.:.t.%.W h W v 6 s ^ ,.7.9.<.*.~ g u l U [ ,.",
"_ +.o.Y f : L :.@.5.5.1.2.y.-.: a D E -.8.-.-.8.O.U 1 k E T U a : e H / _ ` _ _ 1.%.` F k : j K K U R _ _ o.%.) W W W v s c ^ ,.<.' H ! H 5 g U t V ' ",
"w 9 e k e 9 k L / / _ %.1.-.( : u U N U ] U ] U D a 8 u k r w u 1 0 e H M k x x x x S j 0 + ; e a j 1 w W _ W s s p h h : - s v n n u k t - 0 u u t 0 ",
"* - = = 1 1 4 0 1 0 0 u 0 1 0 , = t f = t f , t 1 0 = , 0 5 5 t 0 t 1 5 = t 0 0 5 1 q u i t i = = 0 w 5 u p w e 0 : + 9 4 0 , t 5 i u 2 2 t t 2 , 2 1 ",
"F J I U J N g g 2 , 1 t u n H Z H u n U u k r = 1 g M ! 2.a.p.u.9.w.3.( 5 M ' ( g Y 9.7.2.<.-.b r { <.{ [ -.%.+.1.%./ 7 % J #.u.u.<.{ ] +.4.q.0.M - M ",
"7.q.9.7.7.3.-.<.] 5 t H ! ' X.p.u.7.( @.U -.! 0 = ( 0.u.w.w.9.7.3.9.q.( o u #.3.{ [ 7.9.<.@.{ n 5 ' <.7.4.2.:.4.4.:.$.1 6 ;.9.7.7.-.&.,.2.-.<.7.) o ! ",
"-.-.*.#.-.,.-.2.) - k ! ( ( ! 2.3.9.Y X.g X.! k H +.3.*.@.<.<.<.-.<.2.( = - T 2.( V { *.<.&.T u 5 h ! *.4.4.>.4.1.1.%.: , V ,.q.<.<.<.7.2.-.<.9.@.= Y ",
"<.2.<.<.2.<.*.-.M t *.;.*.w.X.) { H M 2., n ' ! u ! 7.,.( ! ~ X.<.7.-.Z 0 , n X.+.{ #.T @.9.<.A 2 t b P ' ;.e.2.0.;.T , % @ ..s.<.*.&.-.<.7.;.;.( 1 Z ",
"2.2.2.<.2.2.,.2.k t -.3.-.w.*.{ #.' Z ' u ( <.6.g 0 M P ' 2.2.9.#.<.! , - 1 j T ) *.0. .2.w.&.~ 5 3 2 5 t M _ [ ] U i 5 r O ' 7...,.-.X.*.<.<.&.H 4 H ",
"-.<.<.,.2.<.-.<.F 0 ' 3.-.,.,.<.-.3.! u Z <.*.-.l n -.7.<.7.*.<.<.-.! 1 , 2 n F ! #.,.H X.2.*.q.g 2 5 i 5 > r N k S N t 2 # { p.<.3.-.} ~ ' -.;.Y - Y ",
"' #.-.<.<. .Y H u - T <.*.2.2.<.3.2.7.{  .2.-.X.5 t @.-.X.,.&.-.' H M 0 1 > l N l -.7.n ' 2.~ ~ r 6 N N u 5 r 1 m H Z , > d ' ..*...,.,.,.,...X.!   ! ",
"1 u n H V g M g g - j 3.-.~ @.~ ( Y  .Y ! *.! ~ r 5 U Y H ( U H Z M k , , = 0 U Z #.<.g g U I r r 6 n f z w z 7 7 8 u 9 1 2 U ! B A B g A ..<.| 1 f n ",
"5 0 , = $ = - 2 - = 2 j t % = $ 5 % 1 = 5 k t 0 0 1 u f t g k l u g u = 0 1 1 6 1 g k 5 5 k u 5 , , , 0 0 * 7 7 = ; : ; 1 - i h B h 6 6 t b h d $ 4 5 ",
"5 , 0 U Y n + k ! ' [ ' #.[ Y X.M u 5 , = 1 2 1 1 5 6 0 4 5 0 % = > 4 k -.-.*.*.<.w.<.-.Z t 5 N &.' { @.w U 4.o.$.o._ R ~ r 1 , 3 & & , 3 3 3 3 r h k ",
"<.' ' q.9.{ % Y k.s.a.u.p.,.Y @.<.*.{ ! u = 1 6 M ' T ] X.-.2.I g , % F g.p.w.s.0.q.6.<.n @ 4 ( w.6.a.a.M ' g.5.y.y.2.2.9.M 3 6 c B B A d 3 , 5 <.9.w.",
"p.w.9.7.,.@.% Z 6.{ *.<.<.,.! U 2.9.9.7.( 0 1 u -.2.( @.7.9.a.-.{ n $ k u.<.*.<.<.*.;.-.} g { 0.&...6.6.:.K _ 2.-.2.&.;.7.b , u } | | } A d 3 3 ..,.#.",
"-.-.<.2.,.' = Z 9.-.3.7.<.9.*.M -.3.7.9.<.V t ! p.7.! *.9.*.<.<.,.{ 5 w 2.7.3.<.2.<.0.<.P g X.0.6.;.<.&.i.' -.4.>.6.;.6.2.t , h Q Q Q A B B d 3 ,.3.3.",
"q.-.<.<.@.M = ! ,.2.2.2.<.7.7.! ) &.<.-.<.H r -.*. .U X.7.#.-.7.<.-.u r <.3.7.<.*.;.9.;.u 2 X.X.7.X.7...:.[ y.:.>.2.;.;.&.i 5 A Q A A A A B d 3 ..,.,.",
"-.,.9.-.{ n 5 J -.2.-.2.2.<.9.-.k ( 3.2.9.H 1 3.<.7.X.{ -.-.-.<.-.*.u g 7.<.<.2.9.;.&.;.6 i 6.X.' X.6.;.4.I o.-.:.-.;.;.{ 6 6 I A A A A c d s q <.3.,.",
"H X.7.@.! j 2 F [ &.;.;.*.6.6.X.U 2.<.2.<.M 1 2.,.#.[ ( <.7.' ,.@.Z q l -.-.;.<.2.-.-.-.5 M 9.q.X.T &.<.6.P *.<.#.2.<.,. .= 6 J v W G f s k q 0 #.,.,.",
"+.( ! J Z 0 , Z A [ <.<.{ ' [ ~ t ~ U H ! u , ! q.X.H N @.-.+.<.-. .0 , -.7.-.-.-.*.@.n = 0 X.Y T P P Y N t ! -.{ +. .~ V = s ! / h k l f : 4 0  .@.#.",
"l t 4 , 5 5 - 5 u g N Z M N H N , M u u M 5 4 t h r 5 t Z u k n Y M r - g Z H M H l g 1 1 1 H Z b N k b 5 1 r k l f t u s : f e 6 - - - ; 4 q 4 u u k ",
", 4 , % 4 u 0 5 0 > > , , 2 , > % q @ , t % 1 % @ 2 = 5 , + , , 1 o 5 q = = 4 1 2 t , = , , - 1 5 t 2 2 , 2 , % = % t V v j h 4 q h f 4 4 e q % 1 1 , ",
"! n 6 5 f t u V Z M U { X.{ [ T ( Z , M ( I ( I T ) w 5 , M Y Y ! ( Y U ! M % 1 u ) U 5 i A l u r r 2 O , Z X.@.*.n n -.i.f.+.6 n ,.w.,.Z = t <.<.-.@.",
"<.+.f 4 n V F Y I Z Y #.7.p.p.6.9.J 1 ' 7.<.[ I (  .k w t X.2.9.g.a.w.-.@.' 5 1 X.9.7.l -.,.2.9.p.6.-.u = n ,.9.2.) #.q.3.2.! u 9.9.,.,.9.{ ] u.3.2.3.",
"2.9.M 1 J { X.&.*.{ ~ ' { ;.<.&.q.U 1 X.<.-.H U k A n 5 H -.<.2.*.{ *.#.! Y 0 5 9.<.-.N 0.-.-.u.0.3.2.H + V <.q.u.3.3.9.1.9.! f w.9.,.#.X.,.-.@.#.@.*.",
"2.3.t = Z ! X.d.w.9.7.@.~ [ ;.6.7.U 1 ! Y { M @.+.Y N , @.w.7.-.( { ' &.<.! . g ' { ( M 2.9.@.<.;.*.-.( O Y &.*.0.3.3.2.,.t.Y 4 #.*.w.<.Y ' 2.@.9.2.<.",
"3.#.- 0 f J ( ,.7.*.2.2.-.{ ;.6.9.Z - T ;.2.[ ' 3.9.3.w H [ { ' X.-.<.9.u.F , , % o 1 n *.<.,.<.#.,.,.t - ' 3.-.3.-.3.<.,.7.F g <.N { 7.&.9.0.T  .<.9.",
"*.*.0 4 h N F +.9.,.7.7.7.;.<.&.9.U @ g ' 3.;.[ [ ( T 5 n J ! <.<.9.,.( ' k 5 1 0 0 ' ( { 3.-.[ l ( -.f % ( 7.<.-.#.<.,.2.-.k 0 { { b ' 2.*.3.@.~ { <.",
" .Y % :  .3.-.<.-.-.2.-.&.-.6.<.*.H = 6 H -.7.2.*.M 2 , V X.{ 2.<.<.@.H M t 0 5 5 2 *.! n [ ' Z , g ( k , U X.#.3.-.+.{ { Y k 0 T &.] b X.9.<.7.( T ! ",
"V h 1 4 ! X.,.2.<.-.*.@.*.@.' N Z f - 5 u l !  .) M u 2 , M g M Z n I M k 0 0 f g 5 Y k 1 0 u u 5 = g t % 6 u g k n n N Z i 2 @ g b T r 1 U A H k u 0 ",
"4 $ 4 4 u q f 2 t 0 0 t r 2 % O = , = - % . = 1 1 - r u 1 u 2 8 M l Z u 0 , , 5 5 , - @ = . 1 1 5 = q 3 > 1 % , @ > @ @ % 1 i r r 2 u M 5 % 5 1 % 5 6 ",
"9.I H u 0 5 t 5 1 5 5 n N M r r u Z U V Z M N u 0 = H y.0.p.2.2.@.X.' 5 q M M Z l N u q N n Z w 4 l ! k M ~ I ! X.[ P i > ' 0.p.j.s.p.6.;.Z = 5 ' &.<.",
"h.f.l.j.q.! u k ' ' U @.0.w.P 0 -.9.w.6.u.q.p.2.0 = ' h.w.2.2.s.<.@.) 0 Y 2.<.7.9.7.7.2.9.3.#.t j ..,.G ' q.2.9.;.<.-.T # &.p.;.;.6.p.X.;.{ % Z 7.9.w.",
"3.9.9.q.s.#.k U *.9.*.' T { ' @.3.<.<.,.7.#.9.9.l = I 7.<.<.>.8.7.{ Y t X.9.@.-.#.T -.-.,.2.' 1 ! 3.#.l } 2.X.2.7.6.9.[ + 6.y.&.-.2.6.2.<.M 1 ! p.u.u.",
"7.<.<.<.X.h i b { &.<.2.<.<.0.-.4.;.>.e.>.=.-.>.m O U >.>.>.;.-.>.>.O.m D [ [ ] [ U E E ] E U ; ! e.t.-.H O.] =.8.r.$.S y _ =.[ #.*.,.7.X.4 t ,.w.q.9.",
"7.<.2.3.T 2 3 P ;.6.<.;.&.<.0.-.>.>.>.>.>.>.>.O.a 1 ] >.>.>.-.-.>.6.[ a D >.-.[ O.E O.>.-.=.{ ; H %.o.-.=.8.>.2.=.>.[ a O N ;.6.7.7.q.<.~ d 5 I ' <.w.",
"6.6.<.| i 2 3 { ;.2.;.<.2.2.-.Y -.>.:.=.;.>.-.E 1 1 _ O.>.>.>.>.=.6.( 8 H 8.6.>.>.=.O.r.>.8.>.1 y ] R %.2.r.4.6.9.8.[ a < D @.;.*.[ <. .I g % u 1 P <.",
"..X.&.H 2 6 2 P ;.6.,.<.:.+.[ Y ;.>.>.>.$.E N a 8 < U E =.=.:.-.$.6._ 8 k O.$.>.>.8.E =.-.-.@.8 a >.%.2.>.>.=.{ O.O.D 8 0 U ] T V t Z I V f , t 6 6 c ",
"P P ' i 6 i 2 t ( #.1.4.+.M x F T ( ] O.[ H a a 8 # m E @.O.=.=.[ O.E 0 y D E :.-.8.z H E E U 8 8 ( U [ O.] E K U U m < 8 m D m 1 % 4 l k q t t u , 5 ",
"5 , t # , > > 6 l L L ( L e 0 e a m k u a y < > # O > k a u y 8 y w 8 > < i D o.O.o.< # 8 1 8 # 8 8 > m T S D a y y 8 ; 0 y y 8 % , % , , - , = 5 , r ",
"u t 6 6 t 5 2 2 = 9 ; = 7 ; : 7 # ; O O < 7 y U R H U ( 8 8 u y 8 > y 8 > > 0 k m i 1 < 8 > 8 # 1 1 8 7 # # 7 1 1 > 8 8 u # 1 m X.@.X.'  .' H H ~ u 5 ",
";.p.6.p.p.0.P 5 * R -.:.:.o.` [ >.@.U m u # y =.O.=.=.>.a R >.>.;.O.8.$.a 1 1 8 w 1 U >.>.[ o.N 0 U -.D # a O.-.>.-.>.@.U # a r.s.w.s.p.h.w.R #.k.! h ",
"5.,.1.2.2.2.1.o.0 z ` :.1._ +.:.-.O.o.E D # a ] E U U E # U -.] >.=.E =.w > u U [ -.>.=.[ ] U 8 N :.=.D < y [ ;.>.y.=.$.U O D s.3.&.-.2.3.-.' -.3.f ) ",
"%.+.#.#.%.2.4.-.e k K K L S S R U E ] E y # D O.P E [ ] 1 U >.>.-.-.O.O.i > 8 O.-.O.O.] O.O.U 7 y U D a 7 8 D U H ] E N u # Y s.%.;.7.3.2.-. .-.@.- H ",
"3.2.,.+.o.#.%.) 1 k R R R K 7 j E O.>.o.1 # D E K H D m 7 E -.=.=.>.=.a = < 8 E U E _ E U U D 8 8 D D y # u E ] ] _ [ 8 > > u :.8.9.4.=.-.2.:.2.2.1 / ",
"1.,.%. .o.@.o.K p _ 4.2.4.4.z K $.>.>.=.8 1 m m ] E a 8 8 E -.:.>.>.O.a 8 y m ] =.@.=.;.6.>.[ a a O.[ u 1 D >.>.8.;.-.m y 7 < E R o.#.%.-.-.%.-.%.= J ",
"3.3.3.1.2.4.-./ w K _ R K / w K ] E ] ] 8 1 m D _ ] U u > N [ >.>.] E [ E 0 U O.O.[ ] [ O.O.K 8 a E E y 8 E =.O.=.O.=.] E 8 a >.>.>.@.] ( T ] -.[ = H ",
"%.-.1.1.-.%.` S w K _ K R K w z U K U U 8 > D ( U ] ( z > y U [ $.E ] $.U 1 U E E E ] R N k u 8 8 u u 8 1 a D [ E [ O.-.] > a 4.>.>.=.8.0.{ N w T 9 M ",
"u f z x z z p w w z K K K z w 7 D N D m 8 # D _ E E ( N 8 a D N T ( [ U a 8 a m U N m a a m u > > > w 8 > 7 y H N K U H S # 8 U T U a H O.o.H 7 w = 1 ",
"; ; 1 4 ; ; ; ; ; ; ; ; 7 # ; ; # 1 8 < 8 # m D H D P a 1 8 a 8 y a m r w 1 . > # > 8 y 8 1 8 1 8 1 a y u u = # > > # O y 1 1 u a D y y k m N u 2 2 1 ",
"q q : 6 f - v / W ! v 7 w W ) ` v ; ; p / H = 1 9 ; e 9 9 1 7 2 > # 8 > # a ] E O.a > 8 9 = e e V ` ,.2.2.9.#.J H Z ( Y Z , u <.;.2.7.y.s.u.2.<.^ q s ",
"^ G f q q h ,.q.q.d.%.v / y.d.t.z ; w 4.1.-._ k : f +.%.%.+.%.-.$.8 # a E O.$.E E U D O.0 w / ,.3./ [ ,.`  .7.<.9.-.9.7.#.0 t q.>.2.-.-.<.,.<.q...s c ",
") v s e - W 3.3.,.,./ G o.1.4.1.S : : %.( %.5.[ = j -.2.-.' o.+.O.> > E ] ] O.=.=.=.[ 8.k e ` %.5.#.@.2.2.-.-.,.2.#.<.3.3.g u 9.;.>.-.2.,.,.<.7.^ & c ",
"C l q s s ^ 3.#.2.4.1.,.e.1.1.5.z 7 7 W / _ ` / * 7 R / R K Y E E > 8 U O.$.=.6.8.:.-.>.V 9 ) K %.q.-.( #.7.-.#.<.<.,.-.9.H u -.2.;.2.6.3.3.2.<.^ - Q ",
"v v 6 : h -.3.3.,.q.3.#.%.,.:.1.j ; k K ) / L M 7 0 Y L R I R R U 8 > N [ =.-.=.;.;.>.-.p - ! / [ X.#.' U @.9.-.-.2.-.-.3.N t @.5.:.,.1.*.<.3.2.Q s ^ ",
"f s 6 * h #.1.3.2.9.2.%.2.4.2.9.H X V H L L _ V 7 e R R T F H H m > > N E U _ :.>.4.#.o.< 7 z ! J ( -.<. .I ( 2.-.*.<.-.-.u q 2.:.#.,.3...*.2.2.s - Q ",
"6 7 w 6 z ^ ) ..,.,.%.1.e.1.+.4.z ; z ! / Y ( z = 1 H H H D H H P > > m ] E E O.-.+.E F = 0 ; e M { { ( ' n g X.,.#.,.+.' t g <.X.( #.1.,.,.,.^ - 6 s ",
"& $ s 6 6 p W W L  ._ G H F M M w q ; e F j j p 0 1 j u k k M z m 8 > k H H D H K S K 0 ; 1 + 9 5 V Y M g k u 4 t t j 0 t 2 u ' { H W ..,.3.,.^ - 3 $ ",
"; : 6 6 : - : 6 : - 9 q = ; 7 + 9 e * 9 : ; = 1 1 0 * 2 : ; + = < O 8 # > # y a w M 0 9 x F v z , w t 5 5 4 , 1 5 l k t l q t 0 j t 0 t k Z l f 5 & f ",
"v s 6 z ^ #.` W 4 f F v u S ' K F x 9 H _ [ [ [ / L 9 9 0 k M H E E [ _ P U k w 0 [ / ` 5.4.:.L = = 2 g H ( @.@.-.2.2.<.<.[ ! b 0 = 1 0 q 5 - 4 3 4 ! ",
"9.,. .,.t.t.3.#.1 K +./ M ( 9.%._ ! u [ 5.t.e.e.5.%.p 9 u R $.-.%.>.O.+.D O.a 1 : 1.+.$.t.9.5.H = q { w.9.2.7.2.7.2.7.6.9.<.2.( 5 0 ~ w.3.H , 1 3 k 3."
};
