/* XPM */
static char *result[] = {
/* columns rows colors chars-per-pixel */
"75 75 240 2 ",
"   c #0C0605",
".  c #140402",
"X  c #1C0600",
"o  c #140807",
"O  c #1A0A06",
"+  c #130B0A",
"@  c #1D0E0B",
"#  c #1D110F",
"$  c #161412",
"%  c #1B1513",
"&  c #1E1C19",
"*  c #230600",
"=  c #280700",
"-  c #250A02",
";  c #2B0B00",
":  c #330C00",
">  c #3C0E00",
",  c #2D1101",
"<  c #27130B",
"1  c #351301",
"2  c #3C1202",
"3  c #371A07",
"4  c #231512",
"5  c #271B18",
"6  c #331C15",
"7  c #3B2707",
"8  c #282019",
"9  c #2C231E",
"0  c #33231D",
"q  c #3B2A1A",
"w  c #2C2522",
"e  c #2D2824",
"r  c #332B25",
"t  c #382B25",
"y  c #332C29",
"u  c #37312A",
"i  c #3D352D",
"p  c #3C3631",
"a  c #3E3830",
"s  c #440E00",
"d  c #441301",
"f  c #4B1300",
"g  c #4B1B01",
"h  c #511500",
"j  c #541B00",
"k  c #5B1B00",
"l  c #631E00",
"z  c #452507",
"x  c #5A2401",
"c  c #443405",
"v  c #472A17",
"b  c #4A3219",
"n  c #632300",
"m  c #6A2300",
"M  c #642B00",
"N  c #692A00",
"B  c #742D01",
"V  c #782A01",
"C  c #673404",
"Z  c #7C3200",
"A  c #783700",
"S  c #743B01",
"D  c #673A11",
"F  c #4E3321",
"G  c #483927",
"H  c #41352D",
"J  c #42382F",
"K  c #413630",
"L  c #483732",
"P  c #443C34",
"I  c #493E35",
"U  c #443E39",
"Y  c #493F39",
"T  c #5C420D",
"R  c #7B4104",
"E  c #6F500C",
"W  c #6F671B",
"Q  c #564525",
"!  c #4B4136",
"~  c #474039",
"^  c #4B453B",
"/  c #4C443B",
"(  c #534438",
")  c #51463D",
"_  c #52483E",
"`  c #72592F",
"'  c #4C4642",
"]  c #4E4841",
"[  c #504741",
"{  c #544B43",
"}  c #594E45",
"|  c #554C49",
" . c #584F49",
".. c #5A5146",
"X. c #595247",
"o. c #57514A",
"O. c #5C534B",
"+. c #5F5551",
"@. c #5F5850",
"#. c #655648",
"$. c #61564D",
"%. c #62594E",
"&. c #605750",
"*. c #645B53",
"=. c #695D54",
"-. c #655D59",
";. c #685F59",
":. c #715F52",
">. c #6C6148",
",. c #6B6156",
"<. c #676058",
"1. c #6A6359",
"2. c #6C645C",
"3. c #736356",
"4. c #72665C",
"5. c #71685F",
"6. c #7B6A5C",
"7. c #6F6661",
"8. c #6F6860",
"9. c #716760",
"0. c #746C63",
"q. c #796E64",
"w. c #766E69",
"e. c #786F69",
"r. c #767065",
"t. c #7A7067",
"y. c #777068",
"u. c #7C746C",
"i. c #7F7671",
"p. c #7F7870",
"a. c #833401",
"s. c #8D3802",
"d. c #893C02",
"f. c #8B4301",
"g. c #894804",
"h. c #964605",
"j. c #9B4503",
"k. c #964A00",
"l. c #9B4C01",
"z. c #885909",
"x. c #9B5405",
"c. c #9D5E15",
"v. c #A74A02",
"b. c #A35303",
"n. c #A85906",
"m. c #B85B04",
"M. c #92690C",
"N. c #AD6B0D",
"B. c #B66606",
"V. c #BB6300",
"C. c #BA780A",
"Z. c #B0742D",
"A. c #D35B00",
"S. c #C56909",
"D. c #C67408",
"F. c #D37C0F",
"G. c #F07700",
"H. c #806E60",
"J. c #877769",
"K. c #81766E",
"L. c #81786E",
"P. c #807770",
"I. c #847B73",
"U. c #897D74",
"Y. c #877F78",
"T. c #897F78",
"R. c #9A8818",
"E. c #B4890B",
"W. c #93932A",
"Q. c #BF9220",
"!. c #DA9209",
"~. c #CD8E10",
"^. c #D58215",
"/. c #E68807",
"(. c #E49A09",
"). c #F3900B",
"_. c #D6A913",
"`. c #F9B80E",
"'. c #F2AE16",
"]. c #E89121",
"[. c #C9A424",
"{. c #D7AE2E",
"}. c #D8B722",
"|. c #FBB927",
" X c #D7D519",
".X c #F9CE14",
"XX c #F0E71A",
"oX c #DBD23C",
"OX c #F7D12A",
"+X c #8A8076",
"@X c #878078",
"#X c #8C837B",
"$X c #8F887E",
"%X c #968A76",
"&X c #91867D",
"*X c #92887F",
"=X c #959475",
"-X c #D3AF57",
";X c #C6B76A",
":X c #DFE45B",
">X c #FAFA55",
",X c #FEDD60",
"<X c #8F8780",
"1X c #8E8880",
"2X c #908780",
"3X c #948C83",
"4X c #998F86",
"5X c #998F88",
"6X c #9A9087",
"7X c #979088",
"8X c #9C948B",
"9X c #9C958C",
"0X c #9D9790",
"qX c #9F9891",
"wX c #A1968D",
"eX c #A1988F",
"rX c #A19790",
"tX c #A49B93",
"yX c #A99E96",
"uX c #A69D98",
"iX c #A89F98",
"pX c #A9A097",
"aX c #A8A299",
"sX c #ACA39B",
"dX c #B1A69D",
"fX c #B2A89F",
"gX c #AFA7A0",
"hX c #B1A7A0",
"jX c #B4ABA3",
"kX c #B8AFA5",
"lX c #B9B0A7",
"zX c #BCB3AA",
"xX c #CABB82",
"cX c #C1B6AE",
"vX c #C6BDB4",
"bX c #F0D58B",
"nX c #E8E18B",
"mX c #CDC4BB",
"MX c #F0EEB1",
"NX c #D9CFC6",
/* pixels */
"tXuX8XkXgX8XiXT.P e.iXuXtXrXhX3X3Xp.@.qXaX0X0X0XqXaX1X^ 8.p.3X1X1X7XI.3XO.u.&.^ 8X2XkXuXsXtX5X1._ } *XcXwXJ.dX4X6XyXtXtXwX5X0X3X/ r.sXkXuXtXtX#X..{ eX",
"9XtXrX0X5XrX8Xe./ i.aXuXiXiXgXT.$X@X' 1X0XqXaX7XqX6XI.a @.y.p.r.8.0.-.0. .9.+./ 9XT.uX5XiXiX3X[ / 2.6XdXwXJ.*XU.q.4XtXuXuXuXqX<X~ O.u.6XtXpXpXeXK.%.eX",
"2X2XtXrXuXsX#X2.L e.9X5X5X8XiXI.8.@X] 1X7XqXtXqXtX3Xp.~ 1.u.p.8.0.p.u.9.|  .{ { 2Xe.rX5X0XrX2X/ _ r.+Xr.4X6XyXsX&X3X&X4X0X0X0X<Xa %.r.L.3XeXwXeXtX%.I.",
"3XT.#X5X8X2Xe.-.~ i.iXtX0XrXsX#XO.#Xo.9X0X0XqXaX3Xp.2.~ <.u.u.8.i.0.+.+.2.0.*.{ w.;.8X0X#XP.u.[ _ 5.J.r.wXwXwXeX*XU.q.2XuX7Xi.-./ 6XdX*X3XtXtXyX*X! q.",
"hXuXu.P.P.9.9.*.p 2.3X8XrX8XrXi.@.p.^ $X9X3X1X7X@Xr.<.! O.8.y.y.e.-.| { 7.0.*.{ e.&.T.5XU.0.;.{ ^ _ r.r.L.L.L.U.T.K.3.K.3X<Xi.@.P 8XsXr.5.+X6XpX3X<.eX",
"#X8Xu.u.e.*.;./ K { -.7.I.T.2X9.@.1.~ 5.8.2.8.u.u.<.@.^ o.@.1.2.&.&.$. .[ Y ~ / 2.Y X.9.0.2.O./ 1._ @.>.r.r.u.u.q.q.*.} X.-.7.X./ u.q./ / O.q.6XL.2.#X",
"' ;.*.*.;. .{ L Y U L P / Y O.Y o.| ^ | ' ^ ] @.@.] ] ^ ~ ] ^ | [ H K / Y { { Y  .P U Y {  .' { X.P _ ^ X._ ! G I } _ Y U L / P ! { ! H P i i ../ / / ",
"O.| [ Y { { | e.I.P.P.0.-.Y { U ] P P a ~ ^ ' a | ~ ] o.^ ] ^ ^ { / | 7. .*.2.;.*.7.9.O.Y { O.w.5.r.r.X._ _ ..J.=.} I _ { I X.2.1.q.u.L.Y.1./ _ ,.5.$.",
"iXrX8XT. .Y Y.mXkXjXsXiXrX4Xu.L ^ o.y.p.8.@X#Xp.p.@.8.p.@Xy.~ ' [ &.uXuX2Xu.hXrXuXuXrX5X2XK Y.gXtXuXiX5X:.3.dXvXT.:.+.[ L :.5XtXpXfXfX6X3Xq...u.sXpXpX",
"uXiXsXhXI.' w.hX8X0X8XuXuXuX7X&.a #XjXaX@X#XaX0XaX$X@X@X4X1X<.^ { e.tXtX<X9.sX0XuXtXrXuXuX .<XiXuXuXwX5X3X4XdXdXP.6.6.=.[ U.dX5XeXeX+X{ i i O.tXqXeXtX",
"uXrX3X8X#XL 9.iXrXhXuX5X3XrX#XY o.3XaXaX@X8.1X@X@X0XaXtX7X7Xp.] { <XtXtX2X7.iX5XuXwX8X4X3X{ I.tX5XaXrXrXiXrXwXtXU.+. .[ L J.cXtXpXtX6XI.%.J @.cX6X9XeX",
"rXiX8XiXiX' 2.<Xi.T.5XsXhXsX<X' 8.9XaXqXy.@.I.9X@X$Xy.p.@X7X7X^ / I.rX8X5XI.uXrX9XuXuX2Xi.P u.uX6XtXrXyXrXwXwX5X&XH O   @ } dXcXsXsXjXsXI.^ ..pXeX8X4X",
"3XsXrX8X3X[ I.sXsX2XY.rX8Xi.-.U 2.$X7X@Xp.1XqXaXgXqXp.3XaXsXgX1.P ;.4X3X0X8XrXrX3XrXrX#Xw.K 7.7XuX0X7XuXrXtXdXU.| v C D g F w.uXtXfXsX6Xr.{ { 2.eX8X3X",
"9.5XtX8XY.{ T.sXjXrXT.Y.I.#XI. .@.<.0.p.0XkXaXqX3X@Xy.3X0X3X1X@.U O.T.#X5XuX3XrXuXrX7Xu.2.L *.I.7X1X9XuX5XtXjX| O z.).G.n.g 4 P.pXsX8X6XI.&.$.=.r.+X8X",
"I.2X#Xe.$.Y w.0X3XiXiXrXuXjX8XY @.8.p.7XaX7X7XaX3X0.' <.p.t.r.@.Y  .0.I.T.T.I.T.wX5XY.9.-./ O.0.8.y.i.@XT.P.-.b S D.).F.n.n = Y t.@Xq.u.5._ %.r...4.+X",
"| {  .-. .[ *.e.P.P.T.5X8XwXI.Y o.p.2.y.@Xu.@Xy.8.*.] o.*.o.| O.Y |  .9.2.*.2.;.=.2.2.+.| i U X.-.@.^ | e.' o z.).F.l.a.m l k = # | O.=.O.I { @.O...{ ",
"K Y L P ^ ' _ { / { { O.{ / { U P ..$.P ..%./ { ) { P ! X.{ _ O.{ ../ _ I X.{ { { / ..O.@...@.J a X.{ ^ i v R C./.V.Z h > d f d : t Y ~ [ O.O./ ! / / ",
"5.e.t.t.t.2.&.%./ ! / X.O.2.q.5.q.O.2.r.O.*...P / *.1.u.tXkXzXjXsXfXpXI.{ 2.+X+X%.K.pXpXtXeX8X,.X.#X9Xo.  g.).^.l.Z l : o . * j n ; 5 2.3XiXfXdX,.! 2.",
"pXdXsXaXsXtX9XeX+X_ X.q.K.U.3XkXjXaXU.3Xr.8XL.{ P P.fXjXjXfXsXpXpXsXdXI.i { 6XtX#X#XsXsXtX*X#X2.X.r.<.Q R ~./.S.f.n 2 < 9 ] / g d = # e.rX8XwXuX+Xi P.",
"6X9X6X4X9XwX9XtXU.U *.L.I.U.u.tXpXsXr.3X*.*XL.*.q.*XpX6X*XqXeXeX8XeXuXI.K I u.tXI.5.#X6XtX3XL..._ a   z.`.!.l.j.j.j o e / 5.#Xp X . 6 I.uX8XwXsX3XP u.",
"eXtXtXeXtXwX6X8X2.O.6XeX6XfX3X+X#Xq.2.tXI =.+XP.$.p.pX8XI.u.L.3XeXpX6X5._ ! 1.*X*X&X6Xp.3XsX9X<.e c z.E.(.B.Z a.a.d   r i i =XI.i . @ q.eXpXeX8XL./ 4.",
"tXtXeXeXtXtXwXtX&.X.8XtX8XfX6X#X6X+X5.+XO.I.eXuX%._ 2.q.+XtXtXpX3XtXP.! ! / *.u.I.6XsX&XtXsX4X| O E `.(.l.Z l l l 1 o t } u +XpXI.6 < 9.3XeXeX4Xq._ q.",
"8XtXeXwXyXeXwXeXq._ +XpX6XeX8XeX8XpXK.O.5.eX6X8X*.2.8XpXeXpX6XtXeXwXP./ U ) =.5.L.3XeXq.3X3XO.Q M.E.!.B.Z j > : 1 d d 6 9 r #XkXwX3.$.t.J.+X6XwXu.! u.",
"+X3X8XwXwX#Xu.0.O.! u.eX6XtXtXwXpXtXsX#X&XtX8X*X_ O.3X6X3X9X4X9X+X5.2.{ / ! <.5.,.8XpX<.+X7.+ E `.(.l.Z l : .   . g N 1 . G +X6X6X%XwXwXwXwX6X*Xu.0 L.",
") O.,.q.4.@.1.%.&.! &.tX6XL.3XI.L.u.$Xu.L.4XL.I.{ _ t.u.q.Y.q.0.5.2.*.! / P { r.4.3XwXo.u Q W.Q./.D.j.n ; 5 K y 9 3 s 6 0 P t.J.3.6.3.#.6.3XwX%X/ $.,.",
"/ { ! P H P ! / ! P ) *...I P H _ J / P ) ,...{ { ! O.@.} %.&.=.O.%.O.P _ ) / { / *.=.u   W >XoXx.s.j.n X 5 ' ' P 5 . w / U %.%.3.:.} ( ..=.:...G ) _ ",
"{ ! { r.u.,.i *.L.+X#X#X3X#Xu.*X5.O._ ! J / ) / / _ _ { ) _ { P P ! / &.8X8X6X6XtXtXo./ =X;X{.N.M m a.m j v | i.2Xw.| 2.+X_ ( ! I G G G ( G ! ( ..%.*.",
"9XY.+XdXdX#XJ u.mXzXzXjXkXwXu.3XeX6X#XK.$.P / { 2.+Xp.+X*X8XeXt.%.! J 0.vXkXfXzXsXu.% =.MXbXx.l d s k B Z f X O.hXjXrXuXpX1._ _ :.3.H.H.#.( ( ( eXdXfX",
"kXfXpXuXeX3XJ 5.pX+X4XqXeX9XL.r.tXsXsXpXI.{ / O.8XtXI.3XpXpXlX8X$X1.i %.fXtX6X4Xo.' =XxX-XZ.N h h 2 : : 2 g h 6 p u.6XtXpX>.^ >.+X%X%XJ.3.#.( I *XwX4X",
"8X9XtXtXwX+XP 5.sX8XpXpXeXsX6X2.8XtXpXsXwX4...L.kXpXL.6XsX8XeXeXeX$X_ } tXpXtXq.4 ` MXbXc.l s s h 2 # + # d n d @ -.tXtXtX_ ! %.H.H.H.H.6.3.#.I wXyXtX",
"dX9XtXwX3X2.P L.eXeXtXeXeXpXpXL.+X6XwX8XeXq.{ 8X6X*Xr.3XpX3XwXpXeX8X..O.qX9Xo.! W.oX-XZ.m h h s : t 7.0.7.v : v ;.2XtXeXeX_ _ r.H.H.6.6.3.3.$.) %XwXwX",
"8XwXpX8X&X,._ q.8XpX8XpXpXeXaX9X*.I.pXtXsXr./ tXeXpX*X#X8X8X8XeX6X6XO.@.pX0.4 E oXOXb.l f s f : O ' tX0XuXU # +.0XrX9X9X=X_ X.t.3.6.H.6.:.#.` _ eXyXeX",
"q.*XuX3Xu.*.^ 9.#X6X9X9X7XpXpX*Xr.eXeXeXeX1.^ qX9X4X#XI.eXtXT.9X4X0.X.@.| b M.}.[.N.N h h s ; q *.0.3XtXpX*.8.#X7XtXwXwX&XI _ q.3.e.q.#.#.&.$.[ 4XwXwX",
"3XL.K.q.4.} ! 5.r.#XtXeX#X#X#Xp.X.+Xr.r.r._ a 5.4Xp.5.2.3X6X3XtX1Xt.^ r 9 T }.|.b.l f s f : @ U u.q.r.u.5.X.p.6X+X3X&XL.4.L O.K.J.=.%.=. .( / { &X3X6X",
"=.} _ I _ { P _ X.%.1.5.1.5.5.2.! 1.X.O._ $ $ $ $ $ p X.4.O.*.<.P $ $ 7 R.}.~.n.N h h s : < [ -.<.5.*.<.{ ^ ..*.=.$.O.O.#.Y O.#._ L ! ) L (  .( O.@.*.",
"! / I P _ ..{ { } ! ! ^ ^ ^ ^ ~ i ! r ! i 7 b q q 7 q ! K y P u q 7 3 T }..Xn.N f s f : O 5 I / _ O.] ^ ! ^ ! J U J ..4.=.&.&.( { %.$.) [ $.{ P / ^ ! ",
"K.,._ _ %...O.4.5.2.r.$X3X$X#Xp.,.&   % W  X:XnX-XQ.T $ + 4 & 8 R. X_.!.~.n.M g h f ; < P 2.,.$.o.{ _ i ! 5.*X3X4X;.:.4XcXcX2X) 3.wXfXwX5.! O.eX9X8X3X",
"eX3X$._ ,.4.q.r.r.5.u.4XtX4X3X$X#.c c c R.XX>XnX,X|.M.3 3 v 7 D [.OX.X(.l.m f s d 2 4 u 6X9XtXaXkXaX9XX.~ 1.qXsXtXT.4XdXtXrXK.$.sXsX8XwXpX$X+XkXpXtXpX",
"tXdX2./ r.$X*X6X9X#XL.+Xr.r $ & T !..X X}.C.C.Z.F.^.D.C.~.[.}.}.].^.D.x.n h k h - 0 9.,.fX8XwXjXdXpXtX5.u 5.eXdXkXuXyXdXeXsXK.$.fXsXwX4X*X8X6X*X6X3X6X",
"tXuX} J 5.u.*XcXsXsXpXp./ , 1 z M.`..X XE.B l B d.x.C./.'.|.OXOX^.v.j.Z f s l j X w t.4.eXsX*XeX9X7X9X@Xu t.=X8XdXuXyXtXwXdXK.[ *X8XfXtXu.+XtX4XsXeXeX",
"yX4XI { $.q.P.wXiX5X#Xy < N n._.!.V.R c 7 - - , - 1 S B.D.F.^.^.B.k.s.B h s k f X O L 1.6XeXeXeX6XwXwX..P +XyXwXyX6XtXeXeXsX5.%.qX1.#XpX3XsXfXp.*XeXsX",
"wX6X_ _ *.4.0.3XuXI.$.; M n./.`.~.R 2 $ w e e w e 8 z A v.S.m.n.x.f.Z n h f s 1 < w u.I.#XpXwX#X=.I.8X%.I U.uXeXwX6XtXeXtX8X<._ $X=X<.#XpX9XpX*XL.*XwX",
"U.K.J / &XtX6XwXP.y , x v./.).V.S , # ! 2.@X3X#X$XX.4 , A n.b.k.l.f.n f h s = < H ^ 6Xi.,.#XI.q.! %.U.%.I q.3X*XtX8X3X#X$Xu.%.} p.7Xp.<.$XaXeXdXI.u.L.",
"4.%.) ( K.3XwXtXu.+ : m m.).G.A d 5 e _ O.=.p.$XY.2.a # d S h.n.b.d.j > h d X % o.{ t.=./ { O.O._ I $.} P _ O.*.=.,.,.2.r.O.) a *.1.p.X.^ r.5.5.,.O.{ ",
"/ H _ _ O.} $.) L o = k v.G.m.1 % i P ! K r P ) / I ..{ 4 , g.S.n.f.j s h d * % U I I i K i / / _ L } ( P / J ! a a a a a ^ %.X.X._ X.1._ i ^ / J ) { ",
"dXu.4.O.{ _ X._ L 9 < 2 s.A.v.. w 9.r.5.5.1.4.O.{ P q.fX0.i C k.n.b.N f h g O 4 X.5.O.} 2.,.9.{ / =.K.*.,.I.t.K.=X=Xr.@.~ L.jXjXvXzXlXaXqX0.P { I.6XeX",
"vXcXNXvXdXK.O.*.U.U.| @ k v.a.X a sXdXpXjXsXkXtX{ P +XmXgX#Xy 1 n.S.a.k l h * e 6XsXiXwXsXpX3XO.#.&XwX9.+XfXtXsXqX0X9Xp.a 9XjXqXqXpXlX$X9X$XG 5.yXdXfX",
"yXsXdXdXcX4X*.r.5XdXw.o > a.a.C F *.#XeXsX6XaXsX1.K r.aX0XtX1.p D g.l.s.V h : 6 { *.4XwXtXtX+X/ P.yX5X;.Y.tX*XtXpXaXaX#Xi qXjX9X9XqXpXtXqX4./ K.kXkXkX",
"pXeXeXeX6X%.O.*.$X6Xr.# ; f a.V.d.. ] sXtX7X0XqX<.p r.qXqXtX9X@Xy 2 n.B.a.h h > X w w.p.@Xp.t.U K.hXhX5Xy.1X@X3XaXgX7X8.o.@X9X#X*XwX8XpX%X_ ..wXfXdXpX",
"yXeXeXyXp._ ( u.9XpX*X..0 ; x v.l.C b O.I.tX0X1X@.^ @XqXqXqX9X7X7.U D g.f.a.m f X 5 y.9X9X7X$X~ 0.5X2X8X3XaX0XaX7X0X@X@.u 2.7XaXpXpXdXeXL.$.) u.#XeXfX",
"yXwXeX=XO.) ^ =X9XtX9X9X7.@ ; l f.V.S . ' qX7Xp.' ~ p.1X0X0XqXqX7X<X5 1 x.m.Z f X e i.gXqXaX0X/  .Y.i.7XqXgXuXaXsXaX#X@.^ 8.7X0X6X#XeX&Xq.%.J ..) 6.tX",
"%X6X8X5.^ ..^ r.tXtXeXtX1X| 6 : N v.k.S b ' +.@.' ^ y.p.7X7X9X9X3X7Xw , B.D.s.f X w 8.9X7X9X3X] @.tX7XtXtX0X7X1X1X1X8.] ] r.@Xp.2.} 6.u.4.$.! .._ _ :.",
"0.r.#XO._ %.^ X.P.7XrXuX1X7.Y o : k s.V.S . y @.] P <.u.7X1X3X3X#Xp.& 3 C.F.a.s * y  .w.I.p.y.] ] p.w.#X3X@Xp.0.y.t.<.~ ] 1.0.<.! I ) *.*.} } O.O./ ) ",
"_ ! _ ! ! ! ! _ ;.e.e.I.e. .~ y 5 ; N v.k.S 7 8 u r ~ *.@.o.o.{ o.] $ , N.S.n 6 L *.Y K ] ^ ^ a ' { ~ <.u.8.5.*.o.o.] ~ | { o.] H ! J ! ! P ! J ) ! ..",
"O.X._ _ X._ _ ^ Y { U L ' K Y { w o : k k.V.S . ~ r.y.I.] { o.X._ H % 1 v.n.3 $ @.O./ Y ^ ~ ' P ^ ^ ' ^ p a ^ ^ ^ ! ^ { @.P ^ <.*X3X*X+X*X+Xq.q.+X.._ ",
"tXkXaXkXkXsXu._ K u.0XrX8X<X#XT.1XO.6 ; n j.k.S b ' p.0X@.p.0XqX2.L ` c.j.V - + ~ ~ u.9X0X$X$X2.| q.9X8.a @.1X9XqX7XqX1Xr.i @.sXcXdXcXlXvXfXP.4XmXu.=.",
"sXwXrXuXuXuXrX<X{ -.T.8XrXI.<X0X7X1Xo.  ; k v.V.C . ~ u.U w.8Xe.y 3 Z.].h.s * 9 y.9XqX7X#X@Xy.] <.9X7X2.~ X.#XqXqXjX9X7Xy.r 8.zXiX6XrXwXuXwXT.5XtX&.J.",
"4X2X3X5X5XrXuX0X| *.w.w.u.7.7.P.y.p.i.' 5 ; n s.d.C b a & y ' Y D h.S.c.x - 0 -.1X3X1X#X1X1Xy.^ o.y.0.@.^ ] 0.y.8.@Xp.<.o.~ u.zX6X9XaXuXtXwX&X8X4XY w.",
"yXtXwX2XT.5X3XT./ -.i.i.P.w.' &.p.7X0X#Xe . * s Z k.x . . X   1 x.S.j.l O + K Y.y.p.@Xp.y.y.<.' ] r.8.o.P o.p.@X#X@X#X] ~ P o.0XaXsXaX7X6XuX9XuXtXY K.",
"tXwX5X<X&X3X<Xw.&.I.uXuXuXuX-.w.3X0X0X3X/ r 5 * j A m x M C R h.x.h.Z h X + | Y.7X3X3X0XqXaX1X@.@.$X#XO.~ 0.0X0XaX9X0X<.o.^ ~ @Xi.<X3X7X8X9X5X8X5XL 6.",
"tXuXuXrXrXuX0Xi.| w.T.w.w.i.| w.Y.I.p.@X^ ^ p o ; f n Z d.b.B.S.j.m k 2 X # -.<X1X#X#X#X1X1Xq.] *.p.p.o.| p.3X$X3X3X7X#Xp.] @.qX0X0X3X@XY.p.@X9X<XL 0.",
"5X5XrXtX0X5XT.7.| w.T.i.i.w.| -.u.y.u.u.] ~ -.O.6 * ; d N a.s.s.V j : - L i 7.I.p.p.@Xp.2.*.O.] ] o.@.^ ^ @.0.@Xp.#X1X7X@X~ @.tXqX0X7XpXsX1X8.{ i.' 2.",
"+.+.=.;.-.-.+.| | -.w.w.w.-.| ' 2.2.8.<.] P 2.Y./ +   + 2 k k h h 2 * 5 { ] +.-.y.2.*.*.<.*.O.~ ~ P | ^ ~ ^ o.r.2.y.r.0.8.p ' y.p.y.@.0.3X#X0.] o.~ ^ ",
"I L ' ( U L ' L ' L L L ' p ' U a ~ | ^ ^ K -.9.-.] o.Y < : ; ; = - u U { ^ e ~ a ~ ] o.^ ^ ] ^ ] ^ @.O.o.O.P p ~ ~ a u X.^ ^ @.@.8.o.o.*.<.4.O./ ^ / ",
"{ } Y Y :.L 3.I.H.P.7.[ | H.P.T.7.L Y +.e.0.L / { U  .[ w O o o   $ a ~ p @.@Xp.1X@.~ ] ' L O. .2.#XtXeXuXsX3Xt.q.0.I.u.5.! @.qXqXtXpXfXzXjXyXeXU.( #.",
"U.q.#.} } :.8XdXdXcX5X:.T.hXcXhX-.L +.uXrX0XT.-.Y O.2X5XP.;.9.e.8.p p *.p.$X1Xu.@Xy.2.$X{  .P.8XuXP.#XwX+X#XpXtXpXwXaXpX6X{ o.dX0XqXqXqXeXeXeXdXT.#.H.",
"J.4.O.} L H.yXyXrXwXP.6.T.rXuXrX7.Y L 5XU.5XuXT.L +.8XtX5XT.<X3X1X^ ~ p.@X@X1X0X7X3X#XaX*. .T.wXiX4X3XeXtX6X6XeXtX6XwXuXpX&.O.dXqXqX9XeXwXwXeXyXJ.I :.",
"4.:.} } #.T.yX5XrXuXrXwXhXrXrXhX+.' Y P.P.T.T.P.P ' u.P.P.w.e.i.y.^ ^ y.$X1X0XqXaX0X9XqX2.[ U.e.8XdX8XI.6XpXwX4XeXwXwX8XsXq.O.6XtXqXeXpXyXyXtXwXU.( H.",
":.H.} L #.wXyXyXwXdXiX5X5XwXrXrX-.L *.w.U.P.w.7.[ | u.e.P.u.u.i.y.^ U 8.@X7X9X7X0XqXtX6X+.Y u.P.#X*X6XI.r.3XsX8X9XtX9X8XpX2...4XiX0XwXtXwXwXyXeXH.} J.",
"+.#.( L =.5XwXyXtXsXrXwXuXuXuXiX9.p 2.w.e.e.T.7._  .P.P.i.9.0.0.<.U ~ 8.p.u.I.0XtXtX3X<X/ / ;.u.r.I.6XtX2Xu.I.tX8X6XeX9X6XO.X.tXwX4XwXtX%X6XyXeX#.I H.",
") L } ( =.J.T.&XrXwX5XrXdXrX3XuX-.L ;.K.P.e.U.-.P Y 9.0.0.9.0.w.8.^ U <.@Xp.p.$X9X3Xi.7.K { Y O.2.*X&XU.+X*.$.*X9X4X8X3X#X..%.eX2XI.4XtX6XwXwX%X( ( _ ",
"( t } | | =.H.H.e.&XU.0.0.9.;.;.| | Y  .7.*.*.O.{ ~ &.O.*.-.;.*.<.' ^ @.r.r.2.r.q.8.w.{ / ~ i [ { 4.u.2.%.*.$._ ....%.{ O./ O.+X#Xq.H.*XwXyXwXJ.Y ( G ",
"L ) ) ) L L ( Y ) L [ | L Y [ K [  .L ' Y U Y ~ [ { K / / L p P U u ] p ~ a o.@.| 2.{ [ ;.9.4.*.U } ..{ _ _ ! / _ *.*...=.{ ..{ *.{ ....*.5.,.#._ L #.",
":.+.| :.U.4X&XJ.) $.7.7.O.9.T.w.2.2.' 0.T.#X#X#XP.e.[ [ { *.2.0.p.I.#XI.r.u.*.| { #XP.T.iXuX0Xe.P P _ O.5.U.3X3X8XtXuXeXtX+XL.,.{ P / { } _ P ) ( _ K.",
"dXrX&XwXdXdXyX4XY q.&XP.;.I.hX5XT.u.O.#XiXhXgXsXiX5X+.[ +.i.3X8X7X0X<X<X1.1X-.~ Y rX2X4XhXsXsX0.U ..#XjXsXtXsXeXsXtXpXtXsXwXyXL.^ { P.dXuXq.! ) ( =.uX"
};
