/* XPM */
static char *result[] = {
/* columns rows colors chars-per-pixel */
"75 75 213 2 ",
"   c #1C1E3E",
".  c #1F203D",
"X  c #3A2C23",
"o  c #3E352C",
"O  c #24213E",
"+  c #2A253E",
"@  c #2D293D",
"#  c #342A3B",
"$  c #3B343C",
"%  c #42372D",
"&  c #443B33",
"*  c #493E35",
"=  c #463E3A",
"-  c #4B4036",
";  c #474038",
":  c #4D433B",
">  c #534438",
",  c #52463C",
"<  c #52493E",
"1  c #241E45",
"2  c #1F2141",
"3  c #252241",
"4  c #2A2541",
"5  c #2D2943",
"6  c #26254B",
"7  c #29264C",
"8  c #29284F",
"9  c #332442",
"0  c #372B46",
"q  c #322D45",
"w  c #3B3647",
"e  c #353149",
"r  c #39354B",
"t  c #262453",
"y  c #282653",
"u  c #292953",
"i  c #26235A",
"p  c #29265B",
"a  c #2A2B5B",
"s  c #2E325F",
"d  c #3A3856",
"f  c #292664",
"g  c #2B2E65",
"h  c #2C2F69",
"j  c #352E66",
"k  c #2C3067",
"l  c #2D326B",
"z  c #33366D",
"x  c #352D72",
"c  c #2F3671",
"v  c #2F3873",
"b  c #343576",
"n  c #3B3374",
"m  c #313A75",
"M  c #323D7A",
"N  c #472742",
"B  c #552740",
"V  c #562843",
"C  c #5B2A43",
"Z  c #473A46",
"A  c #453E4A",
"S  c #54364C",
"D  c #58364A",
"F  c #5C394F",
"G  c #413D55",
"H  c #5F3A50",
"J  c #622943",
"K  c #6B2A43",
"L  c #712C44",
"P  c #79374C",
"I  c #7B384D",
"U  c #603A50",
"Y  c #344172",
"T  c #34427D",
"R  c #4D4546",
"E  c #544B43",
"W  c #544A46",
"Q  c #5A4E44",
"!  c #575046",
"~  c #5B5146",
"^  c #5D534B",
"/  c #4A4553",
"(  c #4B4658",
")  c #534D54",
"_  c #534D5C",
"`  c #5A5359",
"'  c #625346",
"]  c #61554C",
"[  c #62584F",
"{  c #714853",
"}  c #645B53",
"|  c #695D54",
" . c #665F5A",
".. c #6A6056",
"X. c #6C635B",
"o. c #73665B",
"O. c #766658",
"+. c #72685F",
"@. c #514B69",
"#. c #5B5664",
"$. c #615B69",
"%. c #6C6567",
"&. c #746B63",
"*. c #756C66",
"=. c #786D65",
"-. c #767062",
";. c #7A7067",
":. c #7D746C",
">. c #6C6770",
",. c #746C72",
"<. c #7D7573",
"1. c #84394D",
"2. c #894C5B",
"3. c #924F5C",
"4. c #96515E",
"5. c #98535F",
"6. c #9D5460",
"7. c #A15661",
"8. c #A65862",
"9. c #81766D",
"0. c #81786E",
"q. c #89796C",
"w. c #847B73",
"e. c #817975",
"r. c #897C73",
"t. c #887F79",
"y. c #8A8077",
"u. c #8C837B",
"i. c #8B857C",
"p. c #91867D",
"a. c #93897F",
"s. c #413684",
"d. c #433985",
"f. c #453B8A",
"g. c #453B8B",
"h. c #364683",
"j. c #374986",
"k. c #384C85",
"l. c #394C8C",
"z. c #3B528D",
"x. c #3B4F90",
"c. c #3C5393",
"v. c #3D5B95",
"b. c #3E5798",
"n. c #3E5A99",
"m. c #4C5293",
"M. c #56539D",
"N. c #58569E",
"B. c #615991",
"V. c #406197",
"C. c #41619E",
"Z. c #5A58A1",
"A. c #685FA0",
"S. c #4265A2",
"D. c #446BA6",
"F. c #466EAB",
"G. c #4671AC",
"H. c #4873AE",
"J. c #4975B3",
"K. c #4B7AB5",
"L. c #4C7CBA",
"P. c #6562A7",
"I. c #7770AC",
"U. c #686DB1",
"Y. c #6D71B4",
"T. c #6F75B8",
"R. c #7475B3",
"E. c #847E80",
"W. c #8078AD",
"Q. c #847CB2",
"!. c #4E82BE",
"~. c #4F85C1",
"^. c #5189C5",
"/. c #528DC9",
"(. c #5491CD",
"). c #5696D2",
"_. c #5799D4",
"`. c #589BD7",
"'. c #599DD9",
"]. c #5AA1DD",
"[. c #5CA5E1",
"{. c #5EABE6",
"}. c #61B2EE",
"|. c #8E8781",
" X c #918882",
".X c #948B83",
"XX c #998E85",
"oX c #988F88",
"OX c #9A9087",
"+X c #9B948B",
"@X c #9C948B",
"#X c #9E9791",
"$X c #9F9991",
"%X c #A1968D",
"&X c #A2998F",
"*X c #A09790",
"=X c #A49B93",
"-X c #A99E95",
";X c #A39E98",
":X c #A89F98",
">X c #A9A096",
",X c #ADA39B",
"<X c #B0A69C",
"1X c #B2A89F",
"2X c #B5ACA3",
"3X c #B5ACA4",
"4X c #BDB2A9",
"5X c #C1B8AD",
"6X c #C7BDB4",
"7X c #CDC3BB",
"8X c #A8A6C8",
"9X c #B4B1CD",
"0X c #D9CFC6",
/* pixels */
"=X:X@X3X,X#X:Xt.% :.:X=X=X=X,X.XOXe.^ $X;X$X$X$X$X;Xi.: X.e.|.|.|.oXy.a.^ :.^ : @X|.3X:X,X*X+X..< ! a.4X%Xr.>XOX%X-X=X=X#XoX#X.X: ;.,X2X>X>X=Xu.! ! %X",
"@X=X*X#XoX=X@X:.= <.:X:X:X:X1Xt.i.e.< |.$X$X;X.X$X+Xw.&  .*.:.-.%.&.` &.! %.^ : #Xe.=X.X:X;X.X: , X.+X<X@Xq.a.r.=.XX=X-X:X=X#X|.; ^ :.OX$X>X>X&X:.[ &X",
"|.|.=X=X=X,Xu.X.= *.%XoXoX@X:Xt.%.i.W |.OX$X$X$X$XOX:.; ) 4 5 5 5 5 5 5 4 4 4 5 q 5 q 5 e oX X: < -.0.-.XXXX-X,Xp. X XXX$X$X#X|.o } ;.<.XX$X+X@X=X] y.",
".Xt.u.oX@X X*.} = 9.:X=X*X*X,XE.^ i.! +X$X+X;XE._ w.A @ q p t i u t a a 6 u a t y y y t i r r Z < A -.0.%X%X%X%Xa.q.=. X>X+Xe.` ; XX<Xa..X>X=X>Xa.; &.",
"3X=X:.e.e.X.&.} o X..XoX*X@X*X:.} <.; |.@X%.$.( 8 ) 8 8 Y D.C.C.S.S.C.c 6 t T S.S.S.S.S.S.k a q $ 8 / ) %.:.0.r.t.9.o.9. X|.:.^ & +X,X;.+.i.XX,X.X..$X",
"t.@X:.:.:.}  .: % W  .&.e.t. X&.^ X.; .. .6 7 a k 6 k g v.[.].].].[.).l 3 6 k.].].'.].].].m h a 5 l 8 8 r +.%.;.=.=.[ E ! X.%.^ , :.-.: : ^ -.oX0.X.a.",
"R X.} }  .~ W & = = & % : : ^ = E ! $ 6 3 h h h s . g l Y c.c.c.c.c.z.l 2 t m v.c.c.c.c.z.l k u 2 l l l a 3 3 $ * Q < : & & : & ; E : o & o o ! : : : ",
"^ W , = E E W *.w.e.e.&.} = E = E @ 6 p f /.[.D.u g 2 a M b.c.c.c.c.z.l 6 8 v c.c.c.c.c.c.c 8 6 k a !.[.H.8 a 4 S Q - E < ; ~ X...&.:.0.t...: E ..&.^ ",
":X#X@Xu.! : t.7X3X3X,X:X*X.X:.= # 3 z.~.L.K.L.L.G.l O u v M v.v.c.b.c.l 3 6 m n.v.c.b.c.m l 6 6 M K.K.K.K.!.!.m 0 R ] W = | oX-X>X1X1X+X.X&.! :.>X>X>X",
":X:X,X,Xe.: *.<X@X@X#X:X:X X>.A 6 k.K._./.v.h.G.!.k t u f h h.h.h.j.h.l 6 y v j.h.h.j.T h a y t M ).n.h.S.).(.F.m 7 [ R , q.<XoX&X&Xy.E o o ~ >X&X=X&X",
":X#X.X@Xu.& &.,X=X3X:XoX.X_ 8 8 m (.!.j.x.x.c.c.j.l l 6 6 k h h g g g g 6 8 k k h h h h k 3 a l l c.c.c.x.l.l.).K.k 5 8 Z r.5X=X>X=X@Xw.] o ] 4X+X@X&X",
"#X:X@X:X:XR X.u.:.t..X:XG p h z ].F.l.c.c.c.c.c.l.k l 7 O 6 k l l l k 3 O O 6 l h h h h l 3 a l l c.c.c.c.c.c.x.^.^.f l 7 S <X5X,X,X1X,Xy.; ~ ,X&X@XOX",
".X<X*XoX.XR w.,X,Xu.<.G a y 7 l h.c.c.c.c.c.n.j.l l 6 3 O 3 6 6 6 6 6 O 3 O 3 6 6 6 6 6 6 O 3 u l v l.v.c.c.c.c.z.h.h 6 a u ) <X=X1X,XOX;.E E +.%XOX.X",
"%.XX=X@Xt.W t.,X3X=Xw.+ g p 6 u f c l.v.c.v.j.c g u 3 O 3 3 O O O O O 3 3 3 O O O O O O O 3 O 3 a h m l.b.v.c.h.l p 6 6 a a w &X>X,X@XOXw.[ ^ } ;.u.@X",
"w. Xu.:.^ : *.%X.X#X,.7 k.n.T 3 a g m j.j.j.c g u O 3 3 3 3 3 3 O 3 3 3 3 3 3 3 O 3 3 3 3 3 3 O 3 a g M j.j.k.l g t 6 z.v.Y 0 <.$Xi.&.:.+.< ^ :.~ X.y.",
"W W ~ } ! W } *.9.#.7 g /.}.^.l 3 a h h h h l u O 3 3 3 3 3 O 3 3 3 3 3 3 3 3 3 3 3 3 3 3 3 3 3 3 3 a h h h h l 6 6 M '.}.G.p 1 ^ ..^ } ^ ; ! ^ ^ ~ ! ",
"% = & & : : R ! : R 6 a z.c.H.`.l 1 y l k l 8 O 3 3 3 3 3 3 3 3 3 3 3 3 3 3 3 O 3 3 O 3 3 3 O 1 3 3 3 a l l l 6 1 k.].C.b.h.i 3 : ^ ^ R : ~ ^ : : : : ",
"&.*.;.=.;.X.] ] $ 4 c ^.C.l.b.G.(.T 6 6 6 8 3 . 2 3 3 3 3 3 3 3 3 3 3 O 3 3 3 3 3 3 3 3 3 3 O 4 3 3 3 3 6 6 6 t V./.D.c.l.H.L.a d t..Xi..X>X3X,X .& X.",
":X<X,X,X,X>X$X%X/ y m ^.C.x.x.c.^.j.t O O O 2 9 N 2 3 3 3 3 3 3 3 3 3 3 3 3 3 3 3 3 3 3 3 3 3 3 3 3 3 3 O O O a S.!.l.c.l.J.L.h 7 ,.+X@X$X@X=X>Xy.o w.",
"@X@XOXXX+X@X@X.XG a l h.c.b.c.c.h.v y O 3 2 4 V K 9 3 3 3 3 3 3 3 3 4 3 3 3 3 3 3 3 3 3 3 3 3 3 3 3 3 3 3 3 3 a m j.c.c.m.l.M h 7 $.+X:X=X@X@X,Xa.& :.",
"$X=X=X%X=X$XOXq s l g g l.c.c.z.l h y O 3 3 V K K K 9 3 3 3 3 3 3 O 3 3 3 3 3 3 3 3 3 4 3 3 3 3 3 3 3 3 3 3 3 a g v c.c.c.h.g h l u ) XX&X-X>X&Xw.; +.",
"%X>X=X=X=X=X@Xq g l h h l l l l l 7 3 . 3 2.I K K K 9 2 2 3 3 3 3 3 3 3 3 3 3 3 3 3 3 O 3 O 3 3 3 3 3 3 3 3 3 3 u l l l l l h h z a ( XXa.&X&Xa.&.< +.",
"@X&X%X%X=X%X$X Xd 8 6 6 g l l g y 3 . 0 { 5.I K K K 4 N N 3 3 3 3 3 3 3 3 3 3 3 3 3 3 3 3 3 3 3 3 O 3 3 3 3 3 O 6 u h h l a 6 6 7 $.a.y.q.y.a.-X:.& :.",
"y.XX@X%X%Xp.:.` e u 6 8 u u p u 3 O 1 0 7.4.P K K K 4 B C 2 3 3 3 3 3 3 O 3 3 3 3 3 3 3 3 3 3 3 3 3 3 3 3 O 3 3 . 6 a a u t 8 6 u ` y.%X&X&Xa.p.0.X 0.",
": ^ ..-.X.^ X.5 s l l h 6 3 3 O 3 3 4 S 4.4.1.K K K 1 B V 3 3 3 3 3 3 3 3 3 3 3 3 3 3 3 3 3 3 3 3 3 3 3 3 3 3 3 O O O 6 O y l h l a Z ] o.XX%Xa.> ^ ..",
": ! : & o ; ; @ a l l k l l g O 3   F 5.4.4.P K K K 4 B B 3 3 3 O 3 3 4 3 O 3 3 O 4 3 3 3 3 3 3 3 3 3 3 3 3 3 3 3 3 3 g l l l k l y $ , ~ | | ' % : E ",
"E ; E ;.:...o @ y c.]._.].v.i a 3   F 7.4.4.P J K K 4 B V 3 3 3 3 3 3 3 3 3 3 3 3 3 3 3 3 3 3 3 O 3 3 3 O 3 3 3 O 6 k u K.].`._.m y o > > * - > ~ [ } ",
"@Xy.y.,X<Xa.o q u j.L.J.J.!.D.g 3   F 6.4.4.P K K K 4 V V 2 3 3 3 3 3 3 3 3 3 3 3 3 3 3 3 3 O 3 3 3 3 3 3 3 3 3 O 6 c K.!.J.J.J.v 7 Z O.' > * > -X<X<X",
"2X2X>X>X%X.X% q a m x.l.j.K.J.g 3   F 6.4.4.P K L K 4 V V 1 3 O 3 3 3 3 3 3 3 3 O 3 3 3 3 3 3 3 3 3 3 3 3 3 3 3 . 6 v /.S.j.l.l.l a ) y.O.' > - a.OX%X",
"@X+X=X=X$Xy.% q a m c.c.c.c.h.g 3   F 7.5.5.P K K K 3 V V 2 3 3 3 4 3 3 3 O 3 3 3 3 3 3 O 3 3 3 3 3 3 3 3 3 O 4 O 6 h l.c.c.c.c.l 8 A O.O.O.' - OX-X=X",
"<X@X%X%X.XX.; q a m b.c.c.c.l.g 3   F 7.5.5.I K K K 4 V V 1 3 3 3 3 3 3 3 3 3 3 3 3 3 3 3 3 3 3 3 3 3 3 3 3 3 3 O 6 l c.c.c.c.c.c 8 : O.O.O.' > a.%X%X",
"+X$X,X@Xp..., q a T b.b.c.n.l.f 6 3 4 0 # N # 4 N L 4 V V 3 3 3 3 3 O 3 3 3 3 3 3 3 3 3 3 3 3 3 3 4 O 3 3 3 3 O O 6 l c.n.c.b.c.z 8 Z O.| ' ' ' &X-X&X",
"&.a.>X.X:.[ , q a c T T m T M k 1 O 7 f f f f 1 O N 3 V V 3 3 3 3 O 3 3 O 3 3 3 3 3 3 3 3 3 3 3 4 3 3 3 3 3 3 3 O 7 l M M M T M l u R ] ' [ ] < OX@X%X",
"XX0.9.*.+.E ; 5 a l g g k g k a 1 t @.P.A.A.P.m.6 . . V V 2 3 3 3 3 3 3 3 3 3 3 3 O 3 3 3 3 3 3 3 3 O 3 3 3 3 3 3 3 a g h h h h l a w } ^ : : W p..XOX",
"| Q < - < < ; @ a k g g g k a . O x I.9X8X8X9XQ.x 6 3 V V 3 3 3 3 3 3 3 3 3 3 3 3 3 3 3 3 3 O 3 3 3 3 3 3 3 3 3 3 3 3 g k k g g h 6 # : = > Q : ^ ^ } ",
": : - & , ^ E < $ 6 3 3 3 3 3 3 O x Z.R.Y.I.Y.Z.s.d.6 B B 2 3 3 3 3 3 3 3 3 3 3 3 3 3 3 3 3 3 3 3 3 3 3 O 3 3 3 3 3 3 3 O 3 3 O 7 R ] , , ~ Q & , : ; ",
":...< E ] ~ ^ A u a y y t t t O O x Z.Y.U.U.U.Z.s.f.6 B V 1 3 3 3 3 3 3 O 4 3 3 3 3 3 3 3 O 3 3 3 3 3 3 3 3 3 3 3 3 O t y t t y a d <.%X+.; ~ &X$X+X.X",
"%X.X^ , X.+.&.5 a j.J.G.G.J.c.6 O n m.Z.Y.Y.T.Z.s.f.1 = V 3 3 O 3 3 3 3 3 3 3 3 3 O 3 3 3 3 3 3 3 3 3 3 3 3 3 4 3 3 a D.H.G.G.F.m u ( #X>Xp.i.2X>X=X>X",
"-X,XX.: &.i.a.r t c.].`._.].K.g O n s.g.Z.P.P.M.s.n 1 V V 3 3 3 3 3 3 3 3 3 3 3 3 3 3 3 3 3 3 3 3 3 3 3 3 3 3 3 O 3 v ).'._.'._.Y y _ XX.X@X+X.XXX.XOX",
"&X-X~ & +.:. Xr p M c.x.c.c.j.g 1 n f.f.s.s.s.f.n 1 1 C V   3 3 O 3 3 3 O 3 3 3 4 3 3 3 3 3 3 3 3 O 3 3 3 O 3 3 3 6 l l.c.x.x.c.c 8 #.&X:.y.$XOX>X>X&X",
"-XXX* E ^ ;.e.r a m c.c.x.c.j.g 3 O j g.g.g.g.x 1 3 2 V V 3 3 3 3 3 3 3 3 3 3 3 3 3 3 3 O 3 3 3 3 O 3 3 O 3 3 4 O 6 l l.v.c.c.x.c 8 / >XOX,X<X:.a.%X,X",
"@XOXE , } o.+.e a M v.c.c.m.j.f 4 O 6 y y t a 6 4 C 3 B V 2 3 3 3 3 3 3 3 3 O 4 3 3 3 3 3 3 3 3 3 3 3 3 3 3 3 3 O 6 l c.c.c.c.c.v a w i.>XOX>X.Xe.a.%X",
"y.9.% : p.=XOXr a M v.c.b.b.l.g 3 . 0 D S S N # N L 3 V V 3 3 3 O 3 3 3 3 3 3 3 3 3 3 3 3 3 3 3 3 3 3 3 3 3 3 3 O 6 l c.c.c.v.c.c 2 / ..i.,X$X>X0.:.0.",
"o.} : , 0..X@Xr a m l.l.l.l.h.g 3   U 8.5.7.1.L L K 4 V V 3 3 3 4 3 3 3 3 3 3 3 3 O 3 3 3 3 3 3 3 3 3 3 3 3 3 3 O 6 l k.x.l.l.k.c 8 / ! : -.-.&...^ E ",
": o , , ^ Q ] @ a l k h h l k h 1   F 7.4.5.I K K K 4 V B 3 3 3 3 3 O 3 3 3 3 3 3 3 3 3 3 3 3 3 3 3 3 3 O 3 3 3 O 6 k k h h h l l 8 w ..< o < : & , E ",
",X;.&.^ E < ~ O g l l h h l a 3 4   F 5.4.4.P K K K 4 V V . 3 3 3 3 3 3 3 3 O 3 3 3 3 O 3 3 3 3 3 3 3 3 3 3 3 3 3 O 6 h h h h h c a #.>X$X&.& < w.OX%X",
"6X6X0X7X,X:.^ ^ d y y 6 7 6 7 O 3   F 7.5.5.P K K K 4 V V 3 3 3 3 3 3 3 3 3 3 3 3 3 3 3 3 3 3 + 3 3 3 O 3 3 3 3 3 O O 7 6 6 7 7 8 #.;Xa.@Xa.% +.>X,X1X",
":X,X,X<X5X+X^ %.( y 3 1 3 6 1 O 3   F 7.3.5.L K K K 4 V V 2 3 3 3 3 3 3 3 3 3 3 3 3 3 3 3 3 3 3 3 3 3 3 3 3 3 3 3 3 1 6 1 6 1 6 8 #..X>X$XX.: :.4X2X4X",
">X&X&X&X+X[ ! @ s Y h.T T h.c 2 3   H 6.6.6.P K K K 1 B V 3 3 3 3 3 3 3 4 3 3 3 3 3 3 3 3 3 3 3 3 3 3 3 3 3 3 3 3 3 8 T T T T T l a ) ,Xa.< ~ @X2X<X,X",
">X%X&X-X0.< < @ t V.{.[.[.{.~.a 3   F 6.3.4.P K K K 4 B V 2 3 3 3 3 3 3 3 3 3 3 3 3 3 3 3 3 3 3 4 3 3 3 3 3 3 3 3 3 l `.{.].{.].M 7 #.%X0.^ , :.y.&X1X",
">X&X&Xa.! < : e u T D.S.S.D.c.g 3   H 6.6.6.P J K K 4 B V O 3 3 3 3 3 3 3 3 3 3 3 3 3 3 3 3 O 3 3 3 O 3 3 O 3 3 O 6 l S.S.S.D.S.c u ` u.=.] % ^ > -.&X",
"a.a.OX-.< ! < @ a T z.z.x.z.h.g 3   F 7.3.6.P C K K 4 V V 1 3 3 3 O 3 3 O 3 3 O 4 3 O 3 3 3 3 3 3 3 3 3 3 3 3 3 O 7 l l.c.l.c.l.l u A :.o.] ; ~ < < ..",
"-.-.p.[ < [ < @ i M b.x.c.b.j.g 3   H 7.6.6.I K L K 4 V V 1 3 3 3 3 3 3 3 3 3 3 3 3 3 3 3 3 3 3 3 3 3 3 3 3 3 3 3 t c x.v.c.c.c.l u $ } } Q Q ~ ] - < ",
"< - < ; - & & @ a M b.c.c.c.j.g 3   S 3.2.3.L J K K 4 V B   3 3 3 3 3 3 3 3 3 3 O 3 3 3 3 3 3 3 3 3 3 3 3 3 3 4 3 2 h x.c.c.c.x.c u @ - - & : & , - ~ ",
"^ ~ < < ~ < < @ a T c.c.x.b.j.g 3 1 3 3 3 4 4 1 0 L 1 V V 3 3 3 O 3 3 3 3 3 3 3 3 3 3 3 3 3 O 3 3 3 O 3 3 O 3 3 O 6 c x.c.c.c.c.l u ( y.p.y.&.=.w.~ < ",
"=X2X,X2X2X<X:.@ a m b.b.b.b.l.g 3 O y x h x x p . 9 + B V 3 3 3 3 3 3 3 3 3 3 O 3 3 3 3 3 3 4 3 3 3 3 3 3 3 3 3 O 6 l c.m.c.V.c.l 8 $.4X6X2X9.+X7X0...",
",X%X%X:X=X=X@Xe a c T T T T T g 3 y B.Q.W.W.Q.B.y O 2 V V 2 3 3 3 3 3 3 3 3 3 3 3 3 3 3 3 3 3 3 3 3 3 O 3 3 O 3 O 6 l T T M T T l u _ $X:X@Xt.XX=X] q.",
"OX X XXX+X=X:Xe a h g k g h g a O x I.8X8X8X8XR.n u 2 V V 3 3 3 3 3 O 3 3 3 3 3 3 3 3 3 O 3 3 3 3 3 4 3 3 3 3 3 O 6 a h h h h h l u #.$X=X$X X@XXX- o.",
">X&X@X Xu..X.Xr a l k k k l a . O x M.Y.P.U.U.Z.s.g.6 B V 3 3 3 3 3 3 3 3 O 3 3 3 3 3 3 3 3 3 3 3 3 3 3 3 3 3 3 3 O 3 g h h g g h 8 #.+X+X=X@X=X=X: q.",
"=X%X@X Xu..X|.*.e 6 . 3 3 3 3 3 O x Z.Y.U.U.U.Z.s.f.6 B B 3 3 O 3 4 3 3 3 3 3 3 3 3 O 3 3 3 3 3 3 3 3 3 3 3 3 3 3 3 3 3 O 3 3 3 6 %..X|.+X@XoX+XoX& 9.",
"=X=X:X=X$X:X@X( u a t t t t 6 O O n g.M.Y.Y.T.Z.s.g.6 B V 3 3 3 3 3 3 3 3 3 3 3 3 3 3 3 3 3 3 3 3 3 3 O 3 3 3 3 O O O t t t t t g d %.i.y.<.y.+Xi.; &.",
"+X@X#X#X@X@Xt.4 a h.D.D.D.G.z.6 + n g.g.N.N.Z.m.s.j 6 B V 2 3 3 3 3 3 3 3 3 3 3 3 3 3 3 3 3 3 O 3 3 3 3 3 3 3 3 3 6 u S.F.D.D.S.m u ( >X,X|.X.! <.: X.",
"^ ^  ...X. .} @ y c.[.'.].].!.f O j s.f.s.s.s.s.j     B V 3 3 3 O 3 3 3 3 3 3 3 3 3 3 3 3 3 3 3 3 3 3 3 O 3 3 3 O 6 c ).].'.].`.T 6 r -..Xi.-.R ! ; : ",
"= * : : & & ; + a m c.c.z.c.j.g O . j g.s.s.g.j O 3 3 V V 3 3 3 3 3 4 3 3 O 3 3 4 O 3 3 3 3 3 3 3 3 3 3 3 3 3 O O 6 l l.c.c.c.z.m 2 w ! } ..X.^ , R ; ",
"Q Q * , ] * X.0 a M v.c.c.C.k.h 3 O 3 2 2 2 t 1 4 J 4 B V 3 3 3 3 3 3 3 O 3 3 3 O 3 3 3 3 3 3 3 3 3 3 3 3 3 O 3 O 6 c z.v.v.c.c.v t #.3X4X2X-X&Xr.' ' ",
"r.=.{ Q Q | @Xq g v m M b M c 6 3 3 N { { P D N V L 1 V C 1 3 3 3 3 3 3 3 3 3 3 3 3 3 3 3 3 3 3 3 3 3 3 3 3 3 3 3 3 u m M m M M v u ( #X*X%X&X<Xr.' { ",
"q.O.~ Q * 9.-X>.d a y y p y 6 O 3 2 U 8.7.7.I K L L 4 N N . 3 3 3 3 + 3 3 3 3 3 3 3 3 3 O 3 3 3 3 3 3 3 3 3 3 3 3 O O y p y y y a ( ,.$X%X%X&X-Xq.* O.",
"&.| ~ ~ Q r.-XXX_ 7 3 3 1 3 6 O 3 2 H 6.4.4.P K K J 9   2 3 3 3 3 3 3 3 3 3 3 3 O 3 3 3 3 3 3 3 + 3 3 3 3 3 3 3 3 3 O 3 3 3 3 6 4 >.=X>X-X-X-X%Xq.* q.",
"O.O.Q * { &X-XZ a l h l h l a O 3 2 H 6.6.6.P K C 3 3 3 3 3 3 3 3 3 3 3 + 3 3 3 3 3 3 3 3 3 3 3 3 3 3 3 3 O 3 3 3 O 3 k l k l l l u _ &X%X%X-X%X9.Q q.",
"~ ] > & [ a.%Xr a v n._.].J.T g 3   H 8.6.6.1.V 4 3 3 3 3 3 3 3 3 3 3 3 2 3 3 3 3 3 3 3 3 3 3 3 3 3 3 3 3 3 3 3 O 6 l l.~.].^.l.z y ` =Xa.XX-X&X' > O.",
"E * Q , } q.) 4 a v h.S.D.c.c 7 3 1 0 S S S N 4 1 3 3 3 O 3 3 3 O 3 3 3 3 3 3 3 3 3 3 3 3 O O O O 3 O 3 3 3 3 3 O 3 u M n.D.C.T c t 0 %.%X%X%Xp.* > Q ",
"* % Q Q R Z 7 1 u a a t t a y 3 6 3 3   2 2 2 6 3 3 3 4 3 4 6 3 3 6 4 3 6 4 6 2 4 4 6 3 3 6 6 3 4 6 6 4 3 6 4 4 6 3 3 a p y y a g 7 1 1 *.%X%Xq.* > % ",
"* > , , = 1 + 4 4 + + 4 + + + O 4 4 O @ 4 3 3 3 4 4 4 4 4 5 3 3 3 + 4 + + 3 3 5 5 4 4 4 5 7 5 5 + 4 5 4 4 5 O 3 5 5 5 + 5 + @ 3 + 4 5 4 3 ..| ] < * ' ",
"{ ] Q ..q.p.t.=.: ^ X.X.^ %.t.*.X. .E %.e.u.y.i.<.*.: R E ^ X.&.<.<.i.<.%.-.} ! W u.<.t.=X=X@X*.& & : ^ +.w.a..XXX$X=X+X=Xy.:.} E & ; E Q < = , - < 9.",
",X&Xa.%X<X1X,XXX: *. X9. .w.,XoXy.:.^ |.,X,X<X<X,XoX^ E ^ <..X+X.X$X|.|.X..X} ; : @X|..X<X,X,X*.= ! u.3X,X=X>X=X>X=X>X:X>X%X=Xe.< E e.,X>X&.- : > | -X"
};
