/* XPM */
static char *result[] = {
/* columns rows colors chars-per-pixel */
"75 75 244 2 ",
"   c #16100F",
".  c #161413",
"X  c #191616",
"o  c #151917",
"O  c #1A1817",
"+  c #1B161B",
"@  c #1C1B1B",
"#  c #211C1D",
"$  c #28181D",
"%  c #19221E",
"&  c #25221F",
"*  c #1C1721",
"=  c #1C1A23",
"-  c #1D1B2B",
";  c #1E1D34",
":  c #251C27",
">  c #351D28",
",  c #221E34",
"<  c #241E39",
"1  c #1C2422",
"2  c #1A2925",
"3  c #1D2D29",
"4  c #1C332D",
"5  c #1F2037",
"6  c #1E3933",
"7  c #232424",
"8  c #262829",
"9  c #2B2A2C",
"0  c #342829",
"q  c #3C342D",
"w  c #24213D",
"e  c #2B2938",
"r  c #33263C",
"t  c #273635",
"y  c #363638",
"u  c #44212D",
"i  c #472538",
"p  c #562739",
"a  c #473630",
"s  c #443B33",
"d  c #4A3E34",
"f  c #443C3A",
"g  c #64293D",
"h  c #1C443A",
"j  c #22433C",
"k  c #2B423E",
"l  c #4B4036",
"z  c #474138",
"x  c #4D433B",
"c  c #51463C",
"v  c #53483D",
"b  c #241E44",
"n  c #251F49",
"m  c #1D2141",
"M  c #242243",
"N  c #292445",
"B  c #26244B",
"V  c #2A264C",
"C  c #2C2A48",
"Z  c #332441",
"A  c #322D43",
"S  c #372A47",
"D  c #333146",
"F  c #393748",
"G  c #272553",
"H  c #272756",
"J  c #292654",
"K  c #2B2A54",
"L  c #2B2B5B",
"P  c #312A5C",
"I  c #2A3251",
"U  c #393656",
"Y  c #2B2E63",
"T  c #2C2D68",
"R  c #362D67",
"E  c #2C3364",
"W  c #2D326B",
"Q  c #35356C",
"!  c #372F75",
"~  c #2F3671",
"^  c #383577",
"/  c #313B74",
"(  c #333D7A",
")  c #462743",
"_  c #582843",
"`  c #473B48",
"'  c #52354C",
"]  c #423D53",
"[  c #652B44",
"{  c #6D2C44",
"}  c #732C45",
"|  c #6C3546",
" . c #78344A",
".. c #40367E",
"X. c #1C5B49",
"o. c #244B43",
"O. c #3D454A",
"+. c #24554A",
"@. c #275C52",
"#. c #385554",
"$. c #1B6852",
"%. c #276558",
"&. c #296958",
"*. c #344477",
"=. c #334B70",
"-. c #34427C",
";. c #2A7768",
":. c #30776B",
">. c #484646",
",. c #544B43",
"<. c #5A4E44",
"1. c #534949",
"2. c #5A5146",
"3. c #5D534B",
"4. c #474855",
"5. c #524C57",
"6. c #48555B",
"7. c #595358",
"8. c #78494F",
"9. c #62564C",
"0. c #645B53",
"q. c #665D57",
"w. c #43615B",
"e. c #686057",
"r. c #6C635B",
"t. c #73665B",
"y. c #4D4B6C",
"u. c #4D5D64",
"i. c #555862",
"p. c #645D66",
"a. c #53646B",
"s. c #47736C",
"d. c #586C74",
"f. c #5E727B",
"g. c #6B6566",
"h. c #756C63",
"j. c #756C68",
"k. c #7A7066",
"l. c #7D746C",
"z. c #6A7178",
"x. c #7A7374",
"c. c #863E51",
"v. c #894757",
"b. c #944D5A",
"n. c #97525E",
"m. c #9C5561",
"M. c #A25561",
"N. c #83776D",
"B. c #847B73",
"V. c #867C77",
"C. c #2D8777",
"Z. c #34887A",
"A. c #299375",
"S. c #428C7F",
"D. c #8B8178",
"F. c #8C837C",
"G. c #91867D",
"H. c #93897F",
"J. c #3D3484",
"K. c #433886",
"L. c #473D91",
"P. c #364683",
"I. c #374A87",
"U. c #394C8C",
"Y. c #3A538C",
"T. c #3D598E",
"R. c #3A4F90",
"E. c #3C5394",
"W. c #3D5A95",
"Q. c #3E5699",
"!. c #3F5A9A",
"~. c #3E6298",
"^. c #504D92",
"/. c #405B9B",
"(. c #615D82",
"). c #41639E",
"_. c #657B85",
"`. c #7A7795",
"'. c #5A58A2",
"]. c #4369A6",
"[. c #5D61A4",
"{. c #4773AD",
"}. c #4A78B5",
"|. c #6B6EB0",
" X c #2F9480",
".X c #339987",
"XX c #34A38B",
"oX c #31AB8A",
"OX c #35AA96",
"+X c #36B39A",
"@X c #39BAA4",
"#X c #45988D",
"$X c #6B838D",
"%X c #6E8792",
"&X c #718A95",
"*X c #798C94",
"=X c #748D99",
"-X c #4CA999",
";X c #4E82BD",
":X c #4DB8A5",
">X c #39C39E",
",X c #3BC5AA",
"<X c #3FD7AE",
"1X c #3ECCB4",
"2X c #3FD2B9",
"3X c #4FCCB7",
"4X c #41D5BC",
"5X c #44E5B9",
"6X c #508BC6",
"7X c #518AC7",
"8X c #589AD7",
"9X c #5AA1DD",
"0X c #5CA6E1",
"qX c #43DCC3",
"wX c #59DDC6",
"eX c #6AD2C0",
"rX c #45E5CA",
"tX c #46E6CB",
"yX c #51ECD2",
"uX c #6FEED9",
"iX c #8E8683",
"pX c #948C83",
"aX c #968C85",
"sX c #9A9187",
"dX c #9D948C",
"fX c #9F998E",
"gX c #889297",
"hX c #9F9891",
"jX c #A0968D",
"kX c #A1988F",
"lX c #A49B93",
"zX c #A49B94",
"xX c #A99E95",
"cX c #A9A097",
"vX c #ADA39B",
"bX c #B1A79E",
"nX c #8C96AE",
"mX c #93A5AD",
"MX c #B5ACA3",
"NX c #B4AFAF",
"BX c #C4BBB1",
"VX c #CDC3BB",
"CX c #C4BEC8",
"ZX c #8BF1DF",
/* pixels */
"zXxXdXMXbXhXxXD.s j.xXzXzXhXvXaXsXB.7.fXzXhXhXhXzXhXpXz r.B.pXiXiXaXB.pX3.j.0.f sXiXNXxXxXxXsXq.v 2.aXNXjXB.vXsXsXxXxXzXdXdXhXpXx k.vXMXcXcXfXF.2.,.kX",
"dXzXzXhXaXhXdXj.x x.vXxXvXxXbXV.F.B.x H.fXzXhXdXfXhXB.k q.r.g.q.q.q.3.q.1.q.1.f V.x.iXV.aXxXpXc v r.H.bXjXN.H.V.N.sXlXcXcXhXhXiXz 3.l.sXfXcXcXcXl.9.fX",
"iXiXzXzXxXvXF.r.f j.dXsXaXdXxXV.g.D.,.pXsXhXhXhXhXaXl.z 7.F U F U ] F U S D D A ] F ] 4.] iXV.c v h.D.k.aXaXxXvXV.aXV.sXhXhXhXF.q 0.k.l.aXfXdXfXlX3.D.",
"pXV.F.aXdXiXj.q.x l.cXzXhXhXvXiX3.F.2.hXfXfXhXz.g.j.5.y F L L L L L L Y V K Y L H P R L Y ] 4.` z 2.t.k.jXjXjXjXH.N.m.pXcXsXx.e.z sXbXH.pXcXcXhXH.x h.",
"bXxXl.B.N.g.h.0.q r.aXsXhXdXhXx.e.l.z pXdXg.h.U U 4.I P Q ].).).).).W.~ B G ( ).).).).).~.E L D D I O.7.g.N.B.V.G.N.r.l.pXiXl.3.s dXcXk.g.D.sXcXpXe.fX",
"F.dXl.l.k.0.q.x s ,.q.g.B.V.iXh.3.r.z 7.7.N N L L J L W Y.9X8X8X8X0X7X-.M B Y.8X9X8X8X9X8X-.W K I L L M D g.r.N.t.k.0.<.2.e.r.3.c l.k.x c 3.h.sXB.r.H.",
",.e.0.q.e.3.,.s f d s s x x 3.f ,.>.y M B W ~ W L B L W / !.W.Q.Q./.R.W B G / /././.Q.Q.E.W W J B Y ~ ~ L N M q d <.v x a a x k z v l q s q q 2.c x x ",
"3.1.x f ,.,.1.h.B.B.B.h.0.f ,.d x y M H I {.6XE.L H B L ( E.E.E.E.E.U.W M B ^ U.E.E.U.E.Y./ B G H ~ }.8X{.H L C 1.<.l v v l 9.t.e.k.l.B.D.e.x v e.r.3.",
"xXhXdXV.2.f V.VXMXMXvXxXzXiXg.8 : = 2 w 3 w w t e 5 - 5 W -.E.Q.E./.R.~ B B ( E.Q.E.Q.E.( ~ M n -.{.;X}.}.}.}./ S 1.3.<.a q.sXxXcXbXbXsXpXh.2.l.vXcXcX",
"zXxXvXbXB.,.h.bXdXhXhXzXzXF.1.# . o 1 6 6 j 6 t 4 = o = m E -.J.-.-.-.W B G ~ P.P.P.I.( Y L J G I.}.].I.].8X7X{.( S 1.1.1.N.bXsXlXlXD.,.q q 3.lXkXfXlX",
"xXzXaXdXF.s h.cXzXvXxXdXiX5.M , = . 3 @.C..XXX.XC.3 o . * 5 n m M M B M < b H Y Y Y W T T M L Y / Y.Q.R.E.E.E.7X{./ K V ` N.BXjXcXlXdXB.0.q 3.BXsXdXfX",
"hXxXdXxXxX>.g.F.l.V.aXzXi.K H ~ =.= 2 %.OX1XqXqX,Xt @ o @ = - - - - - = + * - < m B H L Y M L T / U.Q.U./.R.U./.7X{./ L C ' vXBXcXvXbXvXB.x 3.cXlXdXsX",
"aXvXhXsXaX,.B.cXvXG.x.y.L G G W L = o X..X,XrXtX2X;.@.+.$.@.@.+.o.o.o.t 3 2 : @ @ = : - , < w H T ( U.Q.E.R.E.E.E.I.E B L K i.cXlXMXcXsXk.v ,.r.kXsXH.",
"g.sXzXdXV.,.V.vXMXkXx.D Y G b M ; o 3 %.OX1XqXrXrX1X@X+X@X1X@X@X-X-XOXXXZ.;.%.o.j 4 % + o = - w J Y / U./.E.Q.-.W L B n G H ` lXcXcXfXsXD.0.3.e.k.D.dX",
"B.pXiXl.3.x j.zXpXaXg.I T.].*.- + - $. X@XqXtXtXrXtXyXyXyXyXyXyXuXuXuXuXyXwX4X@X.X:.%.t 2 # X = ; V Y ( I.I.I.~ Y B G Y.].-.S j.dXF.t.l.r.v 3.l.2.r.D.",
",.1.1.0.1.,.0.j.x.q.B Y }.8X{.C * h ;.OX,X4XrXrXrXrXrXrXtXtXtXrXrXyXuXuXZXuXyX4XOX#X3X3X#Xo.8 o X = M Y W W W Y b G Y.7X8X].H S 3.e.3.e.2.z 2.3.3.2.2.",
"s f s s x v v ,.f ` K / !.].}.T.2 @ 6 ;..X@X2XrXrXrXrXrXqX2X2X2XqXtXuXZXZXuXwXXXt 8 Z.eXuXeX-X&.6 X + M Y Y T G G T.;X{.].E.W C ` 3.3.>.v 2.3.x x c x ",
"t.k.k.k.k.r.7.3.f N / {.!.P./.}.I.8 o 3 +.C.+X,X1X4XrXrXrX4X2X@X@X1XwXuXZXuXwX:..   t -XZXZXeX3X.X%.1 = M B B B T.;X}.E.P.].].E 5.iXiXV.pXcXbXbXe.f r.",
"cXvXvXcXvXlXfXdX4.V -.6X].E.I./.}.=.- + 1 6 ;.XX+X@X1XqXrXrXqX2X@X@X@XqXwXwX-Xo.. 2 X :.3XuXuXyXqX+Xt = : w 5 H {.}.E.R./.}.}.~ K g.sXjXfXdXfXcXB.q B.",
"sXdXsXsXdXfXdXpX] H W P.Y.Q.Q.E.P.W n - * * 6 ;.OXOX@X2XrXrXrXrX4X@XOX@X4X2X:.2 6 &.+ o.+XyXyXyXwXXXt o ; M M Y / I.E.E.U.U.( W K p.sXxXlXdXfXcXH.s l.",
"fXlXlXkXlXdXH.F L W W W I.E.E.I.W Y H < ; * # o. XOX+X2XtXtXtXtXrX1XOXOX,X@X;.1 o.-Xy 1 C.1XtX4XXXo.@ # - w w L Y / R.E.U.-.R T W P 5.pXkXcXcXxXB.l t.",
"lXcXkXkXcXkXpXU L W W T W W W ~ W J M b M 0 $ 3 C.OX@X4XrXqX4X2X1X@X+XOX@XOX&.1 +.eXw.# +.+XrX2X;..   X $ - w M L W W W ~ W W E W L 5.G.H.cXH.H.k.v h.",
"dXkXkXfXcXkXdXpX] C B B T W W T B M < Z p > # 4  X@X2X4X2X@XXX X X:. X X.XA.+.% o.3Xs.& 3 Z.rX4X XI 6 3 @ @ : w M H E W W L M B K g.H.G.D.D.H.bXl.l k.",
"D.aXdXdXdXG.j.5.I H I H K B J B M w < < > + 1 @.OX2X2X,XOXC.@.6 2 1 ; 6 @.o.2 8 S.wXs.7 6 Z.,X,X@X+XXXZ.+.1 * 5 M B K J J K H H I 1.D.H.xXH.H.H.l.0 N.",
"c 3.e.h.r.9.e.A L T Y H m B B M M 5 8 + o 5 $..X1X2X@X X@.3 = = 5 8 3 7 @ + 4 ;.2XyX:XO.2 t j j o.;.OXqXXXt $ : M w M B B B L Y T P >.9.t.aXH.H.x 3.e.",
"v ,.z s a f s A L / P.P.*.W G M w - + = o.;.OX+X2X+X:.h 2 7 y #.6.u.u.u.y @ o.OXrXyXwX&.1 8 y y y 8 j .X.Xo.$ , M M N H ~ *.P.( ~ K y c <.0.8.9.a c v ",
"v z ,.k.l.e.q A H U.;X;X6XE.E G , + 2 +. X.XOX@X@X;.h - 8 O.u.a.f.$X$X$X6.3 6 C.@X,X:X+.2 >.z.$Xz.7.1 o.&.t $ > w B H ~ ].7X6X}.-.V q l c d l l 2.0.0.",
"fXD.D.bXvXF.q F H U.6X6X6X;XW.Y * . o.C.OX+X+XOXC.6 o 5 #.a.d._.%X&X%X=Xf.F 1 6 @.%.X.3 y a.=XmXmXgX` 2 6 2 > < w B / ].;X7X6X}./ B ' t.9.d d <.kXvXbX",
"MXbXcXcXdXpXq D H ( U.U.P.;X}.Y - . o.C.OX+XOX.Xo.o 1 O.a.d.f.$X&X&X&X&X$Xu.t O % % O 9 6.$X=X*XmXmXx.8 O # u r w b -.6X].P.U.I.~ K 5.N.t.<.v l H.jXsX",
"dXdXlXlXfXD.q D H ( E.E.R.E.P.L , . 2 %..XOXOX:.3 o O.u.d.f.$X%X&X&X&X&X&X$Xa.O.y t y 6.f.%X&X%X=XmXgXy X $ u Z w B W I.Q.E.Q.R.Q P >.t.t.t.8.l jXxXlX",
"bXdXzXfXaXr.s U L ( E.E.E.Q.P.L * X   6 C.+XXX@.@ e 6.u.u.f.$X&X&X%X%X&X&X=X&X_.f.f.$X%X&X&X&X%X=X=XmX7.# $ , M w B ~ U.Q.R.E.R.Q S l t.t.t.9.v H.jXjX",
"dXfXcXdXG.e.x D L ( Q.Q.E.!.-.w + 1 6 %. XOX Xj @ O.6.O.6._.&X&X&X&X&X&X&X&X&X&X=X&X&X&X&X&X&X=X=X=XmXz.8 * ; M < B W R.!.Q.!.R.Q r l t.t.<.<.<.kXlXkX",
"h.H.xXpXl.0.x D L ~ ( -.( -.L - 5 %. XOXOXOX:.3 7 F #.O.u.$X&X&X&X%X&X&X%X&X&X&X&X&X&X&X&X&X&X%X&X=XmX$Xt , P b w B W ( ( ( ( ( W K ` 9.9.9.3.,.sXjXjX",
"pXB.l.k.t.,.f A Y W W T E E B = o. XOX+X+XOX;.2 7 7 O.u.f.$X=X=X=X=X=X=X&X&X&X&X%X&X%X&X&X%X&X%X%X&XgXiXy A y.! B B L W W T W W W L F 0.9.d c ,.G.pXsX",
"0.<.x x c ,.s A K Y Y L L Y M o 4 ;.OXOX@XOX%.1 t y O.d._.=X&X$X_._._.$X%X%X=X&X%X&X&X&X&X&X=X&X=X=X=XmXF D ^.^.P M M L Y L L T Y V y c d d 3.x 3.9.0.",
"l x d s c 3.,.x D C B M M b 5 = o 6 %.C..X X@.1 k 4.O.a.$X$Xd.6.O.>.O.6.6.d._.%X=X&X%X&X&X&X%X$X$X$X=XgXz F ^.^.P < w M b B M M V ` 3.` c 3.<.a x x f ",
"N.e.v ,.9.3.3.4.U L H H G G M ; = o 2 o.%.&.o.1 O.u.#.a._.f.4.1 % % % % 8 t 4.f.&X&X&X&X%Xf.w.6.O.O.a.x.k y ^.^.P w M V H G G H L 4.V.dXh.d 2.kXjXsXaX",
"kXpX9.c q.t.r.A L I.{.{.{.}.E.B ; ; * + 2 4 3 = y u.6.d._.6.8 . o 2 3 2 % o 7 4.$X%X&X%Xf.>.9 % & % 9 >.9 D y.L.P M L ).}.{.{.].( H 5.dXcXG.D.MXxXxXlX",
"xXvXe.x h.G.V.U J Q.8X8X8X8X{.Y M P P < : . . @ y a.d._.d.o.o % h X.$.&.h 4 % t d.&X%X%X6.8 o % 4 2 o % % A Q L.P B / 7X8X7X8X7X( V 7.H.pXdXdXH.aXaXsX",
"lXxX<.s t.N.V.4.H ( E.E.Q.!.U.L N R K.! N @ + @ t u.a.d.#.4 o h X.A.A.oXA.;.4 # 6.&X=X$XO.% h &.;.$.4 o O N ^ K.K B ~ E.).Q.Q.E./ K i.kXl.D.lXpXvXlXzX",
"xXsXd ,.9.k.j.] L -.R.R.R.E.P.Y M M R Q , @ 2 1 8 6.d.d.O.7 2 X.A.A.>X>X>XA.j % z %X=X$Xk 7 $.A.+XoX+.% + C ^ P N B W I.E.U.E.U./ J 5.lXaXbXbXB.H.kXcX",
"sXsX,.v 0.t.r.F H ( E.E.E.Q.I.Y M w N B : + 1 % % O.d.d.O.1 2 $.A.A.>X5X5X+X&.& O.%X&Xf.y 3 &.+X5X>X%.@ + w P N < B ~ U.Q.E.E.E.Q K F V.xXsXlXpXB.H.fX",
"V.N.s f G.xXiX] K -.Q.E.E.Q.I.Y M w w , > # + o . e 6.a.6.8 2 X.A.>X<X5X5XXXj & 6.&X=X$Xk 7 @.A.>XA.j o # > w w < B W R.Q.E.Q.Y.~ K 4.e.G.vXkXvXB.l.B.",
"t.0.c c N.pXpXU K / I.U.U.R.P.Y B w N ) g p u : + @ t O.O.8 @ 6 $.A.A.oXoX&.2 9 d.&X%X$X6.7 4 $.;.&.1 . > p Z M w B ~ P.U.I.U.I.W H >.,.z k.t.h.0.3.<.",
"c q v v <.<.3.N P W Y T W T W Y M < ) } { { p p > + o 7 8 & O % 4 h +.$.j 4 7 4.$X=X&X&Xa.y % % 3 % o O u p } Z w V Y W W E T W W K F e.v q ,.x s c <.",
"vXN.h.9.,.,.1.r Y W W W Y W L N b b ) } { b. .} i : = + O O .   o % % % % % k d.=X%X%X=X$X6.8         0 [ p } Z M b V Y W T T W W L i.lXhXh.q ,.B.sXkX",
"BXBXVXVXvXl.3.3.4.H G B B B N w b w Z  .v.n.v.c._ w , > u 0 $ $ . & 9 q y k 7.$X=X%X%X&X%Xd.k .   # 0 g v.v.{ Z M M M M B B B B I i.cXpXfXH.a t.cXvXbX",
"xXvXbXbXNXsX0.7.U G b b b m b w M w i c.n.n.n.c._ < b i c.8.a # O 9 w.d.a.a.f.$X&X%X_.f.$Xd.y O # u | n.m.b.{ r M w b m b b b B I y.F.fXfXr.c N.MXMXMX",
"cXkXkXkXsX0.2.D K -.Y.Y.Y.W.*.B m b )  .n.n.m.c._ N b )  .8.a $ X 7 6.a.6.6.u._.$Xf.6.4.u.6.8 o 9 { v.n.b.b.| Z M < H I.T.Y.T.Y.~ K 7.xXH.c 2.jXMXvXvX",
"xXkXkXcXl.c z D H Y.8X7X6X8X{.L b < ) } n.n.m.c._ N M i p > $ O O O e t 7 1 y 6.a.O.8 % 8 8 @ = r g b.n.m.b.{ N b b *.}.8X6X6X;X-.J i.jXN.9.v k.D.kXbX",
"cXlXkXH.3.x x F H I.}.}.}.}.!.E m b ) c.n.n.m.c._ N w > $ 8 @.:.j . . + @ @ @ 8 9 % O # + + + - r | b.n.b.b.} r w n / ].}.{.}.{./ J 7.D.h.0.a 2.v t.kX",
"H.H.fXt.v 2.x D L / I.U.U.U.-.Y n < )  .n.n.m.c._ < ; * 7 @.+X@X+.X o 1 y y 8 X O O . @ @ o + - Z { b.m.m.n.} Z w B W I.R.I.U.U.~ H ` k.t.9.z 2.<.v e.",
"h.k.H.9.v 9.>.A L ( E.Q.E.Q.I.T M M Z [ v.n.b. .) , = . +.OXqX@Xt O 7 y 4.5.O.7 O & @ & # O O @ : i  .n.n.8._ Z M B W R.!.E.Q.R.! J y 0.0.,.<.3.9.l v ",
"v z v z v k s r H ( E.E.E.Q.P.Y N w M r [ b. .r ; = . @ &.@XqXC.% % y 4.6.i.6.>.% & 9 0 # X . O + * > [ v._ M M w B W U.Q.R.Q.R./ K e d l d z s v d <.",
"2.v 2.v 9.v v e L ( E.E.E.Q.P.T N w M < w r N , = @ + @ o.Z. Xo.O 9 O.6.6.i.i.O.7 X q z & O % # @ 7 @ = , < b M w B W R.E.R.Q.R.Q K 5.V.G.D.j.k.B.2.,.",
"lXMXvXMXMXcXh.t L ( Q.Q.Q./.I.L b < J ! ! ! H : @ 9 y 9 7 8 6 1 7 F >.6.i.6.>.y 7 1 q >.8 # q y 7 e : @ V R ! M 5 B ~ R.!.Q.!.E.~ K p.MXBXbXN.sXVXN.0.",
"cXkXkXlXzXzXaXF L ~ ( -.-.( ( T B K K.[.'.^.I : y 4.i.7.F @ . # y F 9 O.4.y 8 O % 9 q x 0 8 y s # 8 # # P ^.'.J.B V W ( -.( -.( ~ K 7.hXxXhXD.sXH.9.D.",
"sXH.pXaXsXzXdXS Y W W W W W T G B R '.|.|.^.A 8 6.i.u.6.>.9 + 8 y 7 O # 7 @ O O @ y 9 >.y 7 8 & . # 8 ` ^.|.|.^.P B L T W W W W W L 5.hXzXhXiXdXH.d t.",
"xXzXjXpXV.aXiX4.K Y Y L L L J w b ! '.|.|.y.A 9 F y 9 y 9 % @ 9 8 O % O . 8 j 6 # y 8 9 & 7 9 # # ` `.|.[.|.|.^.P M M L Y L L Y L U g.aXsXzXdXzXcXv N.",
"zXdXsXiXiXaXiXg.D V B N B B M w b R '.|.[.y.t 1 8 @ O + O O 7 7 @ 1 @.k t &.:.j O y & # + # 7 @ : z.mXnX|.|.|.L.P w M M B B M M J i.iXaXdXhXsXsXH.l D.",
"zXxXxXzXzXcXaX7.I L G H G G B w N R ^.'.|.(.r X O . X = @ X = # o #.#XS.:.Z.:.t + y & 9 r F : > 5.nXCXnX|.|.^.L.P w M B J G G J L y.g.F.B.l.D.fXH.z t.",
"sXdXhXhXdXsXx.A L P.].].].{.Y.B N R L.K.'.^.U e 9 e e e : @ @ @ 9 s.#X#X#X:.o.2 # 9 @ e Q y.] y.(.`.|.|.^.'.K.L.E M L W.].].].].-.H 4.hXbXiXr.,.D.v e.",
"0.3.0.r.q.q.7.A H /.8X8X8X9X{.E b R J.^.J.J.! P R P J , = @ @ @ D @.#.:.#.t @ X @ 8 + < Q ..! ! J.J.K.K.K.K.K...K b -.7X9X8X8X7X-.B O.h.gXD.k.v v z v ",
"s s x x s s s r K ( !.Q.Q.!.U.E N < L J.J.^ ......! N : @ 1 @ % 9 8 1 8 2 = , = + # X Z Q ..! K.! J.J.K.....K.V w B W E.!./.!.W.~ I y v 0.e.r.3.v v z ",
",.<.d d 8.l q.` L ( E.E.R.E.I.Y M w M V B V V B B , + # 7 7 X X X . . . * , < = o X + w B J V V V J G V B V J M w B ~ I.E.E.E.U.~ K i.vXNXMXxXjXD.v <.",
"V.h.9.<.<.0.iXU Y / ( ( ( ( Q J M w m e _ i _ r - X O 8 8 # X + : $ X + , < - * X o : i p b < w w w i p ) p < M w N H / ( ( -.( W P 5.aXzXzXlXvXG.<.8.",
"N.t.<.<.a N.lXj.U L G J H H V M < M Z ) } } g i @ X + % @ O $ u g i : , < M w > . > p { { ) < M N ) [ } { { i M w w M B H G J J L 4.x.hXjXjXjXcXN.d t.",
"t.t.<.9.<.V.xXiX5.N N b b M M w M M ) } } } p > + X O O # > p | { { _ r w m r p u p } } { } ) m r [ } } } { } Z M M M M M M M N K g.hXxXxXlXxXjXD.l N.",
"t.t.v c 8.jXjX] P W W E W W L M M < ) { { v.p $ X + @ : u p b.n. . ._ N M M r g g v.m.v.{ { S m S [ } c.b.{ { Z M w B Y W W W W R P i.jXjXjXxXlXN.v N.",
"<.9.c a 0.H.sX] L / /.8X8X}.-.L N M N ) n.n.8.0 : - - , i n.m.M.M. .Z M M w b F v.M.M.m.b.) w M M S  .M.m.v.Z M w B E U.;X8X6XY.! J 7.xXH.aXxXjX<.v n.",
"v d <.v 0.l.5.Z L / P.).].Y.~ B b M w N ' ' ' r ; ; w w A ' ' ' ' F M M w M 5 N ` ' ' ' ' N w M M N F ' ' ' M b w N H / W.].!.-.W J S p.jXjXjXV.d v <.",
"c u 9.v ` ` B N K L L L L L J N N N N N N B M M B B B N N B M M N M N N N N B B m b M B B B N N N N B M M N N N N N B L L L L L L K n Z q.jXjXN.d v a ",
"d c v v f e A A A Z A S e A A A D D A S A e N A A D e A A A r N e N D e C A D F S D A A D U F D A A D A A A A A A U D D F A S D F D D A D r.q.9.v d <.",
"e.9.v 8.l.N.l.g.s 1.7.0.1.q.j.p.0.7.` q.j.x.l.x.g.r.x ` >.1.7.q.g.j.x.j.q.r.3.>.>.x.g.x.aXaXV.g.q f >.1.q.j.x.V.V.iXiXF.iXj.g.3.>.a f >.,.v s c c v N.",
"vXkXH.jXbXbXbXH.x h.pXB.r.x.vXsXV.l.7.F.xXvXvXbXcXsX3.1.3.B.aXdXpXhXiXiXg.iX0.z x dXiXaXvXvXvXh.s <.F.MXvXxXcXlXxXxXxXzXcXzXzXB.c ,.B.vXxXh.f c d 0.vX"
};
