/* XPM */
static char *result[] = {
/* columns rows colors chars-per-pixel */
"75 75 205 2 ",
"   c #181615",
".  c #1A1817",
"X  c #1B1719",
"o  c #1C1A1B",
"O  c #211D1E",
"+  c #24211E",
"@  c #31271D",
"#  c #1F1E22",
"$  c #221E22",
"%  c #261826",
"&  c #331C34",
"*  c #242224",
"=  c #2A2624",
"-  c #2D2926",
";  c #262429",
":  c #29262C",
">  c #2A282E",
",  c #322C25",
"<  c #3A2C23",
"1  c #322E2C",
"2  c #36322E",
"3  c #3D362B",
"4  c #3C352D",
"5  c #2F2A31",
"6  c #322C34",
"7  c #3C3531",
"8  c #383534",
"9  c #3E3932",
"0  c #363039",
"q  c #39343C",
"w  c #41362D",
"e  c #42392E",
"r  c #4A3B2D",
"t  c #403730",
"y  c #443C34",
"u  c #493E35",
"i  c #433E3A",
"p  c #483F38",
"a  c #4B4136",
"s  c #474139",
"d  c #4C433B",
"f  c #4A443B",
"g  c #544539",
"h  c #52463C",
"j  c #52493E",
"k  c #3E1E40",
"l  c #3D3642",
"z  c #3F3845",
"x  c #441E4B",
"c  c #46284B",
"v  c #413A46",
"b  c #453D4C",
"n  c #483F4F",
"m  c #58285C",
"M  c #4E335A",
"N  c #5B1A71",
"B  c #5C2169",
"V  c #5C3B6A",
"C  c #672375",
"Z  c #6F3176",
"A  c #494447",
"S  c #4F4941",
"D  c #504741",
"F  c #544B43",
"G  c #5A4E44",
"H  c #544D4A",
"J  c #584F49",
"K  c #575045",
"L  c #5A5146",
"P  c #575049",
"I  c #5C534B",
"U  c #5F584E",
"Y  c #4C4453",
"T  c #4F4954",
"R  c #514C53",
"E  c #534B5C",
"W  c #5D5651",
"Q  c #5F5951",
"!  c #595559",
"~  c #645548",
"^  c #62554C",
"/  c #62594E",
"(  c #605750",
")  c #645B53",
"_  c #6A5D54",
"`  c #655D59",
"'  c #685F58",
"]  c #715F52",
"[  c #676057",
"{  c #6B6156",
"}  c #676059",
"|  c #6C645C",
" . c #726255",
".. c #73665C",
"X. c #78675E",
"o. c #71695E",
"O. c #7B6A5C",
"+. c #574D60",
"@. c #584F62",
"#. c #5C5266",
"$. c #5F5C60",
"%. c #635D68",
"&. c #68427A",
"*. c #6D6767",
"=. c #6F6861",
"-. c #6A666B",
";. c #716760",
":. c #746B63",
">. c #7A6D64",
",. c #766E69",
"<. c #786F69",
"1. c #7A7166",
"2. c #777068",
"3. c #7A7369",
"4. c #7C746C",
"5. c #726B78",
"6. c #7F7670",
"7. c #7F7870",
"8. c #78747A",
"9. c #816E65",
"0. c #877769",
"q. c #81766D",
"w. c #81786E",
"e. c #807771",
"r. c #847B74",
"t. c #897C73",
"y. c #877F79",
"u. c #887F78",
"i. c #8A8076",
"p. c #878078",
"a. c #8C837B",
"s. c #8F887E",
"d. c #91857C",
"f. c #998778",
"g. c #92887F",
"h. c #6F1D8B",
"j. c #7B288B",
"k. c #7C2495",
"l. c #6F4582",
"z. c #7C4D92",
"x. c #787081",
"c. c #862F96",
"v. c #942FA5",
"b. c #9A32A9",
"n. c #942AB2",
"m. c #A236AE",
"M. c #A939B5",
"N. c #8B499B",
"B. c #817A89",
"V. c #8A55A5",
"C. c #9258AD",
"Z. c #965BB3",
"A. c #A744AD",
"S. c #AB46B2",
"D. c #AF34CB",
"F. c #B438CE",
"G. c #C143CA",
"H. c #C840DD",
"J. c #D94FDF",
"K. c #D54AE2",
"L. c #D849E7",
"P. c #E14EED",
"I. c #E44EF2",
"U. c #ED52F8",
"Y. c #8E8780",
"T. c #8E8880",
"R. c #858188",
"E. c #908780",
"W. c #948C84",
"Q. c #998E85",
"!. c #998F88",
"~. c #9A9187",
"^. c #979088",
"/. c #9C948C",
"(. c #9D968C",
"). c #8B8492",
"_. c #928D98",
"`. c #9B9494",
"'. c #9F9991",
"]. c #A1968D",
"[. c #A2988F",
"{. c #A19790",
"}. c #A49B93",
"|. c #A99E96",
" X c #A79E98",
".X c #A89F98",
"XX c #A9A096",
"oX c #A9A39A",
"OX c #ACA39B",
"+X c #B1A69D",
"@X c #B2A89F",
"#X c #9C97A1",
"$X c #A19CA5",
"%X c #AAA5AB",
"&X c #B2A7A0",
"*X c #B5ACA3",
"=X c #B8AFA5",
"-X c #B9B0A7",
";X c #BDB4AB",
":X c #ACA6B1",
">X c #AEA9B3",
",X c #C1B6AE",
"<X c #C6BDB4",
"1X c #CDC4BB",
"2X c #D9CFC6",
/* pixels */
"}. X/.*X&X`..Xu.t <..X X}.{.&XW.^.7.Q '.XX'.'.'.'.'.T.f | 7.T.T.W.W.r.E.W 3.( d !.E.-X}.OX}.!.| d K g.,X[.w.+XQ.~.XX}.}.`./.'.W.f 1.OX=XXX}.[.a.L F ].",
"(.}.{.'.!.{./.<.d q..X.X.X.X&Xp.T.7.S T.'.'.'.^.'.'.r.i [ 2.7.2.:.:.` :.J ;.( d (.u. X!..X.XW.h d o.(.OX(.0.g.i.1.Q.}.}..X}.`.T.f I 3.~.}.XXXX}.w./ }.",
"E.E.}.{.}.OXa.| p <.{.!.!./. Xr.=.p.F T.^.'.'.'.'.^.4.f } 4.7.| :.7.4.:.J J F H d.4.`./.{.{.E.f j 1.0.3.f.(.XXXXd.W.d.!.'.`.(.T.e / :.r.W.].].].}./ r.",
"W.u.a.!./.E.<.` p 4..X{.'.{.OXa.I a.P (.(.(. XoX^.7.| s [ 3.7.=.4.:.Q W | :.( F <.' !.(.Y.e.4.D j O.3.3.].].].].f.r.>.E.oX^.7.` s ~.@Xd.W.}.}. Xd.a :.",
"&X X4.e.e.;.;.) 7 | !.!.{./.{.4.Q 6.f T.^.^.T.^.p.*.) s I =.3.3.<.) J H ;.:.) H ,.( u.!.y.:.{ D f K 1.1.w.w.i.w.u.q.' q.W.d.4.Q y ].OX1.:.t.~.|.W.{ ].",
"u./.4.4.<.) ' d t D ` ;.r.y.E.;.Q | s =.:.| =.3.3.} U j P ) } | ) U ^ J D p p d ;.p J ;.:.=.I f [ j U [ O.3.0.1.>.>._ H J ` | I d 3.:.d d U :./.e.| d.",
"D ' ) ) ' J H y p u i y d d I p F F f F f f P Q Q S F 7 + + = 2 t 7 t d d D F u J y y d D H S S j y j f K j f e u G g g y y d y s F a 9 y 3 4 L j d d ",
"W H h p F H F >.r.e.e.:.) p F p F y s 9 s f f 9 K s S .             $ D J ) | ' ) ;.;.J d F I ,.o.3.3.j j j j i._ G u F j s I | | >.3.e.t.{ d j [ | / ",
" X'.!.u.H p y.1X=X*XOX.X{.!.4.y f P 3.6.*.p.p.7.6.) =.    $ # X X       $ ` &X}.}. X{.!.W.4 t.&X}.}.|.Q.] 9.+X1Xt.] ^ n u _ !.|.XX@X*X/.W.:.J 4.XXXXXX",
"}. X&X&Xr.D :.&X/.`.`.}.|.}.!.( 9 p.*XoXp.a.OX'.oXT.W     b n b #.E :       i !.}.}.}.}. XH Y.OX}.|.].].B.t.+X&Xq.>.X._ G 0.+X!.].}.i.j 3 e L }.'.XX[.",
" X{.W./.a.y ;.OX{.&X X/.W.{.a.p P W.'.oXp.o.T.p.p.T.X   : b b b #.#.#.E ;     . :.}.`.Q.!.F r.}.!..X].].+X|.].].t.9.9._ G 0.,X|.|.}./.w./ w ^ ,X~./.[.",
"{..X/..X.XD | Y.q.u.!..X&XOXY.D :.'.oX'.2.I p.^.7.o   X b b b +.#.#.#.#.#.A o     > W.E.6.t 4. X!. X].|.|.Q.].].u.] X.9.~ 9.+X,XOXOX@XOXr.f L oX[./.~.",
"!.OX'.!.W.D r.OXOXE.y.{.!.e.` p | a.^.p.7.T.'.(.*     z b b Y #.#.#.#.#.#.#.#.6       i =.t =.!. X`./.}.].|.+XQ.0.m ] 9.G ~ Q.+X[.*XOX~.1.F F ..]./.g.",
";.!. X!.t.H y.OX*X{.u.y.y.u.r.J Q } 2.7.'.*X(.+     z b b Y #.#.#.#.#.#.#.#.#.#.E O       = ) r.!.T.(. X!.}.&XQ.9.^ 9.] g ~ t.].XXOX].~.e./ I ) 1.i.(.",
"y.E.a.<.^ p ,.{.W..X.X{.}.*X!.d Q :.7.^.oXW.*     z b b Y #.#.#.#.#.#.#.#.#.#.#.@.#.b X       s *.3.6.y.B.u.!.t.9.9.9.9.G ] t.].].a.:.3.:.j U <.L | i.",
"H F J ) J D ) ,.e.e.u.!.{./.r.p P 4.| 2.r.*     z b b Y #.#.#.#.#.#.#.#.#.#.#.#.#.#.#.#.l .       9 f F 9.e.9.~ ~ ~ ~ ~ g r G 9.{ { I ' I y F U U L K ",
"t u y y d d d J f J D U F f F u y L U y *     q b b Y #.#.#.#.#.#.#.#.#.#.#.#.#.#.#.#.@.b @.l       + f I W J J F p w F p j g L j U U f j K K j s f f ",
"o.<.1.<.<...( / j a d L U { :.:.>.U } 9     q b n T #.#.#.#.#.#.#.#.#.#.#.#.#.#.#.#.#.v     E #.R     o 6././.E.`.!.e.h e <.g.*X=XoXs.p.s.oX@X@X[ a | ",
".X+XOXXXOX|.(.].p.D L >.4.t.W.=X*XXX)     5 b b Y #.#.#.#.#.#.#.#.#.#.#.#.#.#.#.#.#.#.#.0 o Y #.5._.o   o ^.'. X.X`.W.d j (.+XXXXXg.g.[.[.(.[.XXp.3 i.",
"/./.~.Q./.(.(.}.t.y ) w.r.r.4.}. X}.    * b b Y #.#.#.#.#.#.#.#.#.#.#.#.#.#.#.#.#.#.#.#.#.#.#.Y E :X$X+   ; '.}.{.{.!.p g ..[.@X[.XXXXoXXX(.[.oXs.a 3.",
"(.}.}.].}.].~./.{ L /.(.~.@XW.p.i.2     b b b @.#.#.#.#.#.@.#.#.#.#.#.#.#.#.#.#.#.#.#.#.#.#.#.Y   _.>X#X    R XX@X(.7.s a 3 g.;XXXg.g.[.XXoXXXXXw.a o.",
"].XX}.}.}.[.].}.) L /. X/.@X~.i.!.    q b b b #.#.#.#.#.@.Y Y n b Y Y @.#.#.#.#.#.#.#.#.#.#.#.#.@.x.>X>Xx.    7.p.3.U j j 3 i.XXg.f.XXg.g.XXg.g.:.j :.",
"/.}.].].}.}.].].:.D i.XX/.]./.}.4.    b b b E #.#.#.+.n b b n b b b b b Y @.#.#.#.#.#.#.@.#.#.%.5.).>X>X>X2   - [ =.o.K f e i.=XXXXX}.f.i.i.g.oX3.a w.",
"i.Q./.].].d.3.:.U a 4.].Q.}.}.].P   $ b b b @.#.@.Y z o # 0 z b b b b b b b @.#.#.#.#.#.x.#X>XR   -.>X>X>X_.    Q =.o.a a L s.f.[.g.g.f.[.g.g.g.3.@ w.",
"d I [ :.| ( | ( ( y ) }./.w.W.r.>   5 b b b @.E b b 6             o # 0 b b b E #.#.5.:X:X_.-.      -.>X>X>X;   - S P D f h 3.0.] O. .~ O.f.g.f.g / { ",
"j F a y e y a h a y h ) L y y 3     q b b b n b b b ;                     # b b E B.>XR               -.>X%X8.  o i d f d y / / ] ] ~ g K { ] ~ w d j ",
"D a F 1.3.{ 3 ) w.i.a.a.Q.a.3.s.    v b b 5 q b b b $   o # # # # o o         > ! %X;         o # .     8.>X%X    y.r.6.i.j g a r r r r g r a g K / ) ",
"'.p.i.+X+Xa.e 3.1X;X-X*X=X].3.4.    b b b   0 b b b     o # # # # # # # # .   . A 8     # # # # # # .   . #X>X#   r.}.}.oX{ j j ] ] 9.] ~ g r j }.+X@X",
"=X@XoXXX].W.e :.XXa.Q.].}.(.w.i   O 0   b 0 b b b 6     # # # # # # # # # # o         # # # # # # # #     A >Xi   j g.[.XX{ f ~ i.f.f.f.O.G g g f.~.~.",
"/./.}.}.'.i.e :.OX/.XXXX[.OX~.o   6 o   v b b b b o   o # # # # # # ; > > ; # o     . # # # ; > ; # # #   . >X!   2 XXXX}.j a / 9.9.9.]  .] ~ a ].|.|.",
"+X'.[.[.W...y w.].[.}.[.].XXs.    v o * b b b b l     # # # # # > > > > > > ; #     # # # > > > > # # #     #X8.  + }.}.g.K j O.9.9.O.O.O.] ~ g f.].].",
"~.].OX~.a.{ j :./.XX/.XXXX'.2   o b n b b b b b $   X # # # $ 5 > > > > > > > > # # # # > > > > > ; # #     R.8.. + [.[.g.j K w. .O.9.O.] ~ G L [.|.[.",
":.g.XXW.3./ d o.a.Q.'.(.^.6.    l b b X z b b z     # # # # > > > > > > > > > > > > > > > > > > > : # # .   -.8.  + ].].d.u j 1. .9.>./ L ) I F Q.]./.",
"W.r.q.<.o.J a o.:.a.[.'.6.    ; b b b : n b b >   X # # # : > > > > > > > > > > > > > > > > > > > : # # .   ! !   2 s.w.o.y L q.e._ ^ _ L g h F d.W.~.",
"_ G h u j F y j I / | :.o   # z b b b b b b n     # # # # > > > > > > > > > > > > > > > > > > > > > # # .   R q   2 P U ~ p ~ L g u a a u h J g L / ) ",
"a d u y h L J j K a y f     6 A n b b b b l $     # # # > > > > > > > > > > > > > > > > > > > > > > # #     ! #   - L | ] ( ) h F ) ^ g h J J w d f a ",
"q.{ h F / I I o.| | 1.a.i   o A b b b b >         # # # > > ; X         # ; > > > > > > > > > > > > # # . . $..   I ' /.;X,XW.h { [.@X].:.a L [.]./.W.",
"].W.^ h { ..o.3.1.o.7.~.^.  . q b b b b #       # # # ; > ; X                 ; > > > > > : o       . # .   -.    r.Q.+X}.{.q.^ XXOX[.[.XXs.i.*X X}.XX",
"}.OX{ d 1.a.d.~./.a.r.p.s.2   o b b b b z #       # # : > # X X N C C m > .     : > > > :   o     .   .     $.  o |..X+X{.OXe.^ @XoX[.g.g.(.(.s.~.W.~.",
"}.|.L y o.4.g.,X@XOXXXg.7.7.    6 b b b Y z 6     # # : %   X N k.c.b.b.n.v.    ; > > > o   % N j.C         A   7 |.|.}.].&X9.h Q.(.@XXX3.i.XXg.OX}.].",
"|.Q.a D U >.e.[.oX~.}.[.(.s.H     z b b b b z     # # ; *   X h.k.v.m.M.S.M.x   o : > >     N v.m.m.$       +   } /.}.[.].OXo./ [.o.a.XXg.@X@Xw.d.].OX",
"/.~.F h ) o.o.W.OX(.XXXXoX(.XX+   X b b b b b o   o # # #   k n.D.H.L.P.L.F.m   o : > >     j.M.G.G.&           s./.}.].}./.[ j s.s.[ a.XX~.XXg.r.d.[.",
"i.q.w p d.|./.].'./.XX(.~.~.oXg.    # n b b b ;   X # # o   # n.F.H.P.U.U.I.x   o > > >     v.H.I.I.:         + }./.W.a.s.4.) K 7.^.r.} s.oX[.oXw.w.r.",
"o.) h g w.g.].}.].^.Q.W.~.W.p.o.P     # b b b q     # # #     k.D.F.L.L.P.K.X   ; > > > X   c F.H.F.          9 ) { ' | :.I j 3 ) [ 7.K f 1.o.:.[ I F ",
"d w h h I J ^ d K K j L L f 3 3 y -     # v b b X       o     X k.D.F.H.H.k     5 > > > ;     B C % .         f e s e 9 e f U K K S I [ j 3 j d e j F ",
"OX3.o.L F h I j f j j { o.| K F U :.F     X v b v o                       #   ; > > > > : o                 e 3.g.p.3.U s p.@X*X<X;X=XoX(.:.y j r.~.[.",
"<X<X2X1XOXq.I ) i.p.2.W.@X@X2.K (.OXOXe.o     6 b b l ; o                   ; > > > > > 5 > o     .       o [.@X'.[.(.3.y ^.*X'.'.XX-Xg.'.s.e o.XX@X@X",
"XXXX+X@X;X~.) 1.^.+X^.a.7.a.p.W.XX].}.].!.$     o l b b b z 6 o     ; > ; > > > > > > > > >       * *     p.s.'.XXXXoXa.3 '.*X(.(.'.XX}.].| h q.=X*X*X",
"XX[.[.[.g.[ U { f.g.(.oX(.'.@X^.}.(.XX&X'.^.A       # l b b b q       * : 5 > > > > > 5 ;     X T =     A a.p.^.oX&X^.=.K p.(.a.g.].(.XXg.g I (.@X+XOX",
"XX[.[.|.w.j f 3.[.XX[.[.~.[.@X(.}.`.'.^.'.'.'.7.+       o *             o ; > : > > > o       6 .     W ^.oX(.}.^.'.p.W 2 | ^.oXXXXX+X[.w.^ h 3.i.[.+X",
"XX[.[.g.U f f a.[.[.(.'.'.}.(.3.(.'.(.^.^.oX^.7.f 8 =               o       o > > o               o W !.'.&X}.XXoXoXa.Q s :.^.(.~.a.[.d.>./ e I h O.[.",
"s.~.~.O.j j j 1.[.XX'.[.(.W.p.7.(.'.'.'.^.7.| Q S s | +     b #.;                               1 (.!.}.}.'.^.s.T.T.=.S S 2.p.4...L o.1...^ a L j j { ",
":.1.s.U j U j K r.!.{. XT.| { :.3.r.a.T.a.:.( P - o     o T #.#.*                             2 S 6.:.a.W.p.7.:.2.3.[ f S | :.} d y h _ / G J ~ ^ a g ",
"j a K e a a s j _ <.<.e.4.H S J U | Q W Q K y         o E #.#.E     *     l Y *     z @.E o       o 2 } 3.o.o.[ P P S s P S K S w a e u a y a e j a K ",
"L j L j K j j j y H p u p y i D 4 s 3 2 s f D           o Y #.*           Y #.5     z T b 6           = 9 9 f f f y f S U y f } d.W.W.i.d.i.:.<.p.I j ",
"}.=XXX=X=XoX3.j w 4./.}.`.Y.a.p.'.W.2.} P y *               q         A #.#.#.z $   o     6     &.c     - Q T.(.'./.'.T.2.9 Q OX,X+X;X-X<X*Xq./.1X3._ ",
"OX].].|.|.}.{.E.D ' u.`.{.y.E.`.^.T.T.7.=.9 2     l.Z.V.%         X l @.#.#.*                   6 V o   o P a.(.'.*X^.^.3., :.;X X^.(.{.|.].p.!.|./ w.",
"Q.E.W.W.!.{. X{.J ) ,.,.<.;.;.e.2.7.a.6.P 8     V Z.Z.Z.V.        5   o E o       5           o         + S :.3.*.p.r.} P y 3.;X!./.oX}.}.{.E./.W.u <.",
"|.}.].W.a.W.!.u.d ` 6.6.e.,.D ( 7.W.'.a.f 2   o Z.C.z.z.V.      >           X     Y       &.C.M   X = - y L 7.p.p.p.s.S s s P '.OXOXoX^./.}.'.}.}.d q.",
"}.].!.E.Y.W.E.<.( y.{. X X X` ,.W.'.'.W.S 4   o M             1     &     O K.    +.        M X   W a.P f :.'.'.oX(./.[ P s s p.6.Y.W.W././.!.!.!.y 9.",
"}.}. X}.{..X/.9.J <.u.4.,.t.H :.y.7.y.p.f y           o     O O O = A.Z O A.J..   T     >         4.7.P F 6.^.s.W.T.Q.p.4.S Q '.'.'.T.a.t.7.p.^.a.y :.",
"/./.].`././.B...J *.y.q.,.5.H ` 4.2.2.3.j s +     H 7.U     % .   Z N.A.S.b.t     A   X | s O o i P Q f f Q *.p.6.s.T.^.p.s Q }.'.'.^.oX&XT.=.H 4.D | ",
"I W ' { _ ' _ n H ` <.,.<.` H n | | =.} S y | ! =.7.r.*   O .   & Z m c.m   X     q   + [ [ I s s y F S s f P 2.o.2.:.2.=.9 S 2.4.2.) :.T.T.>.S L y S ",
"p u d d y u u y p p p r b w p u 9 f F f f 9 [ :.:.=.H     5     ,     O     X     O   - f f S f S f Q P I I 9 4 s s 9 4 P f f I Q o.P P Q } | U d d f ",
"J G u p _ u ] t.9.q.X.n ~ 9.t.u.| p p ^ 6.;.y d D t     * o               1 p.        s D y J J ;.a.}.]. XoXQ.1.:.:.r.3.o.f I ].'.}.XX*X;X*X}.[.t.G G ",
"t.X.^ G G ] !.+X+X,XB.X.0.&X,X&X_ p ^ {.{.{.u.` p O   o v         o     i s.^.o     o T.D J e./.}.e.d.].i.a.XX}.OX(.OXXXQ.F I @X'.}.'.(.].].[.+Xf.~ ] ",
"t. .L G u 9.|.|.{.].e.>.B.[.|.].;.p p ).r.W. Xu.O     6 o     O 2.-   i T.p.s.1     2.oX) I u./..XQ.W.{.}././.(.].~.].|.XX) L OX'.(.'.'.].].[.XX0.r ] ",
".._ L ~ ~ t.|.!.{.|.].].+X}.].+X) F p 9.e.y.u.7           . i 4.3.f s 2.T.s.(.*.. } ^.'.| D t.<./.+X/.r.Q.XX(.Q.}.].'.(.OX:.I /.}.(.}.XX|.|.|.].0.g 9.",
"] ] G u ^ |.|.+X].+XOXQ.!.].{.}.) y ) ,.u.e.F         X 2 ;.6.6.2.f s =.a.^.^.^.(.'.'.(.Q y e.e.a.s.Q.t.<.W.OX/.(.].].~.XX| L Q.oX(.].[.].].|.].9.G 0.",
"^ ~ g r _ B.].|.}.|.}.Q.}. X}..X;.4 ;.,.<.<.<.X   * H <.4.:.:.:.} i s =.7.4.p.(.'.oXW.s.f S _ 4.>.r./.}.s.1.r.}./.~.}././.I K }.'.Q.].}.f.Q.].|.~ u 9.",
"g n G n _ 0.t.t.].].!.{.+X{.W.}.` y ' <.q.<.t.` y d ;.:.:.;.:.:.=.f i } p.7.7.s.^.W.7.=.t F p I | s.d.t.i.) ^ g.(.~.'.W.a.L ^ [.d.r.g.}.].].].f.g g G ",
"u < ~ G g ] 0.9.0.B.t.,.:.;.' | H J u J ;.) ( W H d ( I ) ' ' ` } j f Q 2.*.=.2.2.=.2.S p d 4 D D | 3.| / ) U j L F / j I d I i.s.>.q.W.~.|.].0.u g w ",
"r G p G u u p u p u F G y i D t D J t D p i y d d F t d d y w y s 2 f 9 i 9 P I H ;.D D ' ;.| _ f L L D j j f a F _ ) J _ F I K Q K K K ) o._ ^ j r ~ ",
"] ~ G ] 0.Q.Q.9.g ^ ;.;.I ;.u.<.;.| D :.u.a.a.a.q.<.D D H ) | ;.6.r.a.y.=.3.) P H a.e.u..X X{.<.y y j / o.r.W.W./.}.}.[.}.a.w.) F y f F J j u h g h q.",
"+X].u.].&X&X|.Q.h >.B.0.' r.+X!.y.4.I a..X&XOX&X.X!.U D I e.W.`.W.'.Y.Y.o.T.) s u ].Y.!.&XOX.X:.y J a.*XOX}.XX}.XX}.XX}.XX[.|.r.h F r.+X|.:.a d p _ |."
};
