/* XPM */
static char *result[] = {
/* columns rows colors chars-per-pixel */
"75 75 208 2 ",
"   c #181615",
".  c #1A1817",
"X  c #1B1719",
"o  c #1C1A1B",
"O  c #211D1D",
"+  c #23201E",
"@  c #31271D",
"#  c #1F1E22",
"$  c #221E22",
"%  c #261826",
"&  c #331C34",
"*  c #252224",
"=  c #2A2623",
"-  c #2C2925",
";  c #262429",
":  c #29262C",
">  c #2A282E",
",  c #342C25",
"<  c #322D2A",
"1  c #39342C",
"2  c #3D352D",
"3  c #2F2A31",
"4  c #362337",
"5  c #322C34",
"6  c #3B3632",
"7  c #393736",
"8  c #3E3833",
"9  c #363039",
"0  c #39343C",
"q  c #41362D",
"w  c #42392E",
"e  c #4A3B2D",
"r  c #403730",
"t  c #443C34",
"y  c #493E35",
"u  c #433D39",
"i  c #483F38",
"p  c #4B4136",
"a  c #474038",
"s  c #4B453B",
"d  c #4C443B",
"f  c #544539",
"g  c #51463D",
"h  c #52493E",
"j  c #3E1E40",
"k  c #3D3642",
"l  c #3F3845",
"z  c #441E4B",
"x  c #46284B",
"c  c #413A46",
"v  c #453D4C",
"b  c #483F4F",
"n  c #58285C",
"m  c #4E335A",
"M  c #5B1A71",
"N  c #5C2169",
"B  c #5C3B6A",
"V  c #672375",
"C  c #6F3176",
"Z  c #494346",
"A  c #4F4942",
"S  c #504741",
"D  c #544B43",
"F  c #5A4E44",
"G  c #544D49",
"H  c #584F49",
"J  c #575045",
"K  c #5A5146",
"L  c #575049",
"P  c #5C534B",
"I  c #5F584E",
"U  c #4C4453",
"Y  c #4F4954",
"T  c #514C53",
"R  c #534B5C",
"E  c #5B5555",
"W  c #5F5850",
"Q  c #625346",
"!  c #62554C",
"~  c #62594E",
"^  c #6B5C4F",
"/  c #605750",
"(  c #645B53",
")  c #6A5D54",
"_  c #655D59",
"`  c #685F58",
"'  c #715F52",
"]  c #676057",
"[  c #6B6156",
"{  c #676058",
"}  c #6C645C",
"|  c #726255",
" . c #73665C",
".. c #78675E",
"X. c #71695F",
"o. c #7B6A5C",
"O. c #574D60",
"+. c #584F62",
"@. c #5C5266",
"#. c #5F5C60",
"$. c #635D68",
"%. c #68427A",
"&. c #6D6765",
"*. c #6F6860",
"=. c #6A666B",
"-. c #726760",
";. c #746B63",
":. c #7A6D64",
">. c #766E69",
",. c #786F69",
"<. c #7A7067",
"1. c #777068",
"2. c #797368",
"3. c #7C736C",
"4. c #726B78",
"5. c #7F7670",
"6. c #7F7870",
"7. c #78747A",
"8. c #816E65",
"9. c #877769",
"0. c #81766D",
"q. c #81786E",
"w. c #807770",
"e. c #847C74",
"r. c #897C73",
"t. c #867F78",
"y. c #887F79",
"u. c #8A8076",
"i. c #878078",
"p. c #8C837B",
"a. c #8F887E",
"s. c #91857C",
"d. c #998778",
"f. c #92897F",
"g. c #6F1D8B",
"h. c #7B288B",
"j. c #7C2495",
"k. c #6F4582",
"l. c #7C4D92",
"z. c #787081",
"x. c #862F96",
"c. c #942FA5",
"v. c #9A32A9",
"b. c #942AB2",
"n. c #A236AE",
"m. c #A939B5",
"M. c #8B499B",
"N. c #817A89",
"B. c #8A55A5",
"V. c #9258AD",
"C. c #965BB3",
"Z. c #A744AD",
"A. c #AB46B2",
"S. c #AB32C7",
"D. c #B438CE",
"F. c #B838D2",
"G. c #C03CD8",
"H. c #BF41C9",
"J. c #C143CA",
"K. c #C840DD",
"L. c #D94FDF",
"P. c #D54AE2",
"I. c #D849E7",
"U. c #E14EED",
"Y. c #E44EF2",
"T. c #ED52F8",
"R. c #8C8682",
"E. c #908780",
"W. c #948C83",
"Q. c #998E85",
"!. c #968F89",
"~. c #998F88",
"^. c #979086",
"/. c #9A9187",
"(. c #979088",
"). c #9C948C",
"_. c #9F988E",
"`. c #8B8492",
"'. c #928D98",
"]. c #9A9495",
"[. c #9F9991",
"{. c #A1968D",
"}. c #A2988F",
"|. c #A19790",
" X c #A49B93",
".X c #A99E96",
"XX c #A69D98",
"oX c #A89F98",
"OX c #A6A197",
"+X c #A9A096",
"@X c #AAA39A",
"#X c #ACA39B",
"$X c #B1A69D",
"%X c #B2A89F",
"&X c #9C97A1",
"*X c #A19CA5",
"=X c #ABA5A9",
"-X c #B2A7A0",
";X c #B5ACA3",
":X c #B8AFA5",
">X c #B9B0A7",
",X c #BDB4AB",
"<X c #ACA6B1",
"1X c #AEA9B3",
"2X c #C0B6AD",
"3X c #C6BDB4",
"4X c #CDC4BB",
"5X c #D9CFC6",
/* pixels */
" XXX).:X-X).oXy.t ,.XXXX X|.-XW.(.6.W [.OX).[.[.[.OXR.s } 6.W.E.W.!.w.W.P 3./ d /.E.:XXX#XXX/.} d J f.2X{.r.#XQ./.+XXX X).).].W.s :.@X>X.X.X}.p.K D }.",
"). X|.).~.|.).,.d 3.@XoXoXoX-Xy.R.6.A E.(.OXOX(.[.(.6.8 { 1.6.&.;.;._ ;.G ;.P d ].y.oX~..X.XQ.d d X./.#X).9.d.u.<.Q. XXX.X X[.R.a P 2./. X.X+X X0.( }.",
"E.E.XX|.XXoXp.} i ,.).~.).).XXe.*.p.A W.(.[.OX[.[.(.6.s { 3.3.} *.6.3.;.H H D G E.2.).).].{.E.d h o.u.2.d.{.+X+Xp.E.s.~.[.[.].p.w ( ;.q.Q.).).}. X~ e.",
"W.y.p.~.).E.,._ i 5.oX|.).).#Xp.P i.L ).[.).[.@X!.6.} a { 3.6.;.6.;.W I } -.( D >.` ).).p.e.3.g h o.2.2.{.{.{.{.W.r.:.E.OX(.6.] a /.%Xf.W. X XOXf.p ;.",
"-XXX3.w.w.-.-._ r } !.~.|.].|.3.W 6.s a.(.W.R.!.i.*.( a I *.1.1.,._ D F -.;._ D :./ p.!.r.;.} g s J 2.X.u.2.q.u.y.0. .0.W.p.5.W t ).#X<.*.r.~.@XW.` }.",
"p.).3.3.,._ ` d r S ` -.e.y.E.;.W } a *.1.} *.2.2.} W A D ( _ *./ / / H S i i d } i H -.;.} P d ] h I ] 2.2.q.2.:.:.( F L } } L g 2.;.h d I :./.q.} s.",
"S ` ( ( ` P D t i t t t d d P i A J s J s s J I W A A s a A s D S q 6 d d S S i G t 1 < - = + t J w s s h h f w y F f i t t d t a G p 2 t 2 2 F d d d ",
"P G S i S D D >.e.e.w.;._ i S i J 8 u 8 u s s 8 J a A D A A a s D d H } H _ } S O         X   O X.2.6.h h h K 9.^ F y D h i P } [ :.2.e.e.} g h ] X.~ ",
"oX|.).y.G i 5.5X;X;X#XoX|.W.3.t s L 2.3.1.e.p.e.6.( *.3.i.1.a s S / XXXXE._ *         o $ $   o  X X.XQ.' 8.$X3Xy.' ! F y ' ~..X+X%X%X).W.;.K 2.#X+X X",
"XXoX#X-Xe.S ;.-X{.].).XXoXXXW.( 8 i.;X@Xt.p.@X[.OXR.i.i.^.R.{ s D >. X).6       > R @.v v v     -..X{.{.y.N.$X$Xr.....! b 9.$X~.}. Xu.D 2 q L  X}. X X",
"XX|.!.~.p.u -.oX|.-XXX~.!.|.E.i L W.OX@Xt.} R.i.i.[.OXOX(.(.e.A G p.;.X     ; O.@.@.@.v v v :   X !.{.{.$X.X{..Xr.8.8.' F 9.2X.X X X).q.~ w ~ 2X/.).}.",
"|.oX).oXoXd } E.3.y.~.#X-X#Xp.S ;.].OX[.1.I i.(.i.a.1.3.t.(.(.s i =       U @.@.@.@.@.R v v v X   O Q..X{.{.{.Q.N.' ..8.Q 8.$X2X$X#X%X#Xe.p K @X X).Q.",
"W.-X).~.Q.S e.@X#XE.y.|.~.w.` i } p.(.i.6.R.[.OX-X[.6.W.[.-X@X<       5 +.@.@.@.@.@.@.@.U v v c X   O ).|..X$XQ.8.n ^ 8.F ! Q.$X}.%X$X/.<.D D } }./.W.",
"-.~.XX).y.D y.#X;X|.p.y.e.y.e.H W { ;.6._.>XOX[.W.i.1.^.).T o     O Y @.@.@.@.@.@.@.@.@.@.U v v k     * E.|.;XQ.8.) ..8.f ^ r.{.+X#X{./.w.~ ! _ <.u.).",
"e.W.p.3.P i ;.|.W.XXoX|.XX;X~.d W ;.6.(.OX(.).OXW.1.s 7 .     . v @.@.@.@.@.@.@.@.@.@.@.@.@.U v v l     O y.Q.r.9.8.8.' Q ' r.{.}.p.;.2.;.h I :.K } u.",
"G S H ( H S _ >.w.w.e.Q.{.].e.i L 6.} 1.i.3.t.1.*.7 .     . k @.@.@.@.@.@.@.@.@.@.@.@.@.@.@.@.U v v k   X % ..! Q Q ^ Q f y Q ' ] ] ! _ P t D I ~ K D ",
"r i t t d g d G d G D P G d D p t L ~ t K ~ a G o     . k +.Z +.@.@.@.@.@.@.@.@.@.@.@.@.@.@.@.@.Y b v k     # H S S 2 D d D p K h I I s h K K h s d p ",
"X.,.,.,.:.} ( ~ d p d K P ] ;.X.;.! ] <.P ( g .     T +.O.    c @.@.@.@.@.@.@.@.@.@.@.@.@.@.@.@.@.U v v k     a ].W.5.S w :.Q.:X:XOXa.i.f.OX%X#X] p } ",
".X%X#X@X#X X).{.u.h L :.q.e.f.>X:X+Xe.Q.<.f..   # '.4.@.U . 9 @.@.@.@.@.@.@.@.@.@.@.@.@.@.@.@.@.@.@.Y v v 3     5.).W.d h _.#X+XOXf.f._.[._._.+Xu.2 q.",
"/.)./.Q.).{.). Xu.t ( w.e.r.q. XOX#X2.f.~ *   O &X<XR U @.@.@.@.@.@.@.@.@.@.@.@.@.@.@.@.@.@.@.@.@.@.@.b v v *   X !.~.i p  .{.$XOX X+XOX X_._.@XW.w 6.",
"_. X X}. X}./.{.} K Q.)./.%XW.u.p.:.}  X*   . ].1X'.# U @.@.@.@.@.@.@.@.@.@.@.@.@.+.@.@.@.@.@.@.@.@.@.+.b v v X   u 6.a p 2 d.,X_.f.f._.+X+XOX_.q.d X.",
" X.X}.}. X}.{. X( K )..X).%X/.p./.u.X.2.. . 7.1X1Xz.O.@.@.@.@.@.@.@.@.@.@.@.@.O.U U v v U Y O.@.@.@.@.@.b v v 9     I h h 1 u.+X_.d.OXd.d.OXf.f.;.h ;.",
").}.}.{. X X).}.-.D u.+X/.}.).}.).OX3.*   5 1X1X1X`.4.$.@.@.@.@.@.@.@.@.@.@.U v v b v v U l v v O.@.@.@.R v v v     J J s w a.:X+X+X}.a.u.u._.OX2.p 0.",
"u.W.).}.{.s.2.;.I p 3.}./. X X{.+X X[.    ].1X1X1X=.  T <X&X4.@.@.@.@.@.O.b l v v l U l l 0 # . l b +.@.+.v v v #   w p p I u.d.f.}.d.d.+Xf.f.d.0.@ q.",
"d P ] :.X.~ [ ( ~ t (  X/.w.W.e.e.2.S   - 1X1X1X=.      =.'.<X<Xz.@.@.R l b l k # . .           5 v v R +.v v v >   # A s s 2.9.' o.| Q o.d.f.f.d ~ ] ",
"h D p t q t i d i t g ~ K t t 2 h w X   4.1X1X=.            . T 1Xz.O.Z l >                     ; v v v v v v v 7   . a s p ~ ~ ' ' Q f Q ^ ^ Q q f h ",
"D a D <.2.] 2 ( q.u.p.p.Q.p.2.f.} J     =X1X7.    . # o         > <XR 3         o # # # # # o   # v v v 0 > v v c   . 1.u.h p f e e e e f p p f F ~ ( ",
").r.p.#X%Xp.w 3.4X,X>X:X>X{.3.W. X&.  O 1X*X    . # # # # # #   . 9 Z       # # # # # # # # #   . v v v 9 . v v Z     R.OX[ h h ' ' 8.' Q f p f }.$X%X",
">X%X+X+X{.W.w X..Xp./.}.}.{.q.<. XD   7 1XZ     # # # # # # # #         X # # # # # # # # # #     9 v v v 9 v . 7 + . h +X[ p Q u.d.d.u.o.Q f p d.{./.",
").). X X).p.t X.#X).+X+X}.#X/.} ).1   E 1Xo   o # # ; > ; # # #       # # ; ; > ; # # # # # # o   . v v v v c . . < . + OXh p ^ 8.8.8.o.| ' Q f {. X X",
"%X). X}.W. .t 6.}. X X X}.+X+Xq.r.*   7.&X    # # # > > > > # # #   X # > > > > > > > # # # # #     k v v v v * o c     u.J h 2.o.8.o.o.o.' Q f d.{.{.",
"/.}.@X/.s.] h :.). X). X X}.#X).W #   7.`.    # # ; > > > > > # # # # > > > > > > > > > # # # # .   # v v v v v v v + . , h J 2.o.o.8.o.' Q h Q }..X X",
";.f.+XW.2.~ d ;.a.f._._.^.OXOXa.1.*   7.=.    # # ; > > > > > > ; > > > > > > > > > > > > # # # #     l v v c X v v k     < h 2.' 8.:.( Q ! P D Q./.}.",
"W.e.0.:.;.D p X.2.u. X_.a.u.p.6.K >   E #.  o # # > > > > > > > > > > > > > > > > > > > > > # # #     > v v v : v v v ;     D 0.w.^ ! ) H g g D s.W./.",
") F f i h D t h P ~ [ X.} X.X.*.a 6   7 Y     # # > > > > > > > > > > > > > > > > > 3 : > > # # # o   X v v v v v v v v X   O F D y y d y g F g L I _ ",
"p d i t g K J h h p a s s s h w 2 8   # T   o # # > > > > > > > > > > > > > > > > > > : > > > # # #     $ k v v v v v v 5   X f D ~ ! f g H F r d s p ",
"0.[ g D ~ K I  .X.} 2.a.a.a.a.q.u.~   . #.  o # # > > > > > > > > > > > > ; # X   X   X ; > > # # # .       3 v v v v v O   t g | {.;X{.X.p K }.}./.W.",
"}.W.I g [ X.X.2.2.X.2.^.OX:X;XOX@X;.    =.    # o .     o ; > > > > > ;                   > > ; # # # .     # v v v v k     -.P +X#X{.{.+Xa.p.:X+X X.X",
".X#X[ d :.p.f./.).p.u.i.a.)._.^.@X:..   #..   .   .         : > > > > X     & z V V M #   X > > # # X     # l v v v v X   6 w.~ %X#X}.f.f._./.f./.Q./.",
" X.XF t ;.2.f.,X%X#XOXf.e.p._.OXOX2.+   Z         V h.N %   o > > > ;     c.n.n.b.x.g.M     > > # #     3 v v v v v 5      X3.g /./.%XOX2.u. Xf.#X X}.",
".XQ.i h ! :.e.{.+X/. X X_.p.[.OX#X;.@   +       % n.n.c.N .   3 > > #   j m.m.m.v.c.x.g.X   # % # #     v v v v v l     L @XX.~ _.} a.OXf.%X%Xi.f.}.#X",
"/.Q.D g ( X.X.W.#X{.+X+X+X_. Xf.+X2.1 .         & J.J.m.h.    > > > X   N H.L.U.I.K.D.b.&   # # # o   X v v v v v X . * _.).] D a.a.] u.OX).+Xf.e.s.{.",
"p.0.w i s. X/.}.).).OX)././.OX X/.;.p .         & U.Y.K.c.    > > > #   x Y.T.T.Y.K.D.b.#   # # # X   * v v v v #     w.a.3.~ J 6.^.e.} a.+X}.+Xq.0.q.",
"X.~ g g 0.W.{. X}././.W.(.W.u.X.X.I p -         o F.K.F.z   o > > > #   o K.Y.Y.K.G.S.j.    # # #     0 v v v #     D } ;.P h 2 ( ] 6.J s 2.X.;.( P D ",
"f 2 g g P F ~ d J J D K J h 2 1 w a t a           % N N     ; 3 > > >     j H.K.G.S.j.#     #       . v Z Z #   . - w w 8 s I J J h P { h 2 D a t f D ",
"#X3.;.K D h P h s h h ] X.[ J J I X.:.X.8                 . > > > > > ;           #           .   o l Z 0 .     ] i.2.I a i.%X;X3X,X:XOX_.;.w D r./. X",
"3X3X5X4X#X0.P ( u.i.1.^.%X%X1.D _.@X%X@X%XO             # > > > > > > > ;     .             X % k l v 5       i._._._.2.w ).;X[.[.OX:Xf._.a.w X..X#X%X",
".X.X#X%X2X/.( :.^.$X^.i.6.p.u.W.OX}._._.OX1.    * *       > > > > > > > > > ; ; % #     > l v v v k #     + i.[.OXOX@Xp.1 [.;X).)._.OXOX}.} d 0.:X;X:X",
"+X}.}.}.f.] K [ a.f._.OX{. X$X/.[.[. X-X[.(.E     ; Y       : > > > > > > > : *       0 v v v k #       7 R.i.(.OX#X(.&.J i.(.a.Q./.{.#Xd.h K {.:X$X+X",
"+X{.}.OXq.h h 2. XOX}._.f. X%X).[.OX[.).(.OX[.L       9       o : > > > > : .             ; X       : i.W.@X).OX(.[.i.P 1 } (.OX+X X$X}.q.P h 2.u.{.%X",
"OX}.}.f.I s s a._.}._._.[.OX).3.).[.[.(.]. X(.6.6                 o : : o .     o               + &.5.(.[.;XOXOX#X@Xp.W a *.(._./.s.}.p.;.~ w K d o. X",
"f.^./.o.h h h X.OX X_.}.).E.a.3.).[.[.).!.6.} ( s s 7             .                 : @.c     X L  X(.[.[.[.(.a.W.R.*.A D 2.i.6. .K X.3. .~ p K h h [ ",
"X.2.a.I h I h I e.Q.|.oXa.} } -.2.e.p.R.p.;.W W h a W E                             * @.@.Y X X . * 8 3.W.i.6.;.1.3.{ a A { &.} d w g ) ( F F K ! p h ",
"h p h w p p p h ` ,.,.w.2.G D G I } W W W J a a , .       X R O.l     : U 0     ;     R @.+.R o   .   . &.*.} { L L A a D J J h q p w p p t a t h y K ",
"I h P h K h h s t D u y i t i S 2 a 1 1 s s L 6           5 v Y l     > @.U   .       $ @.Y o           1 8 s s s t s A P t s { s.W.f.u.f.u.:.:.r.P h ",
"}.:X+X:X:X@X2.h r 3.). X].E.y.p.[.W.1.] L 8 8     k %.    5     .   * c @.@.@.v         0       X       O I f.).[.(.[.W.2.6 W #X2X%X,X,X3X%Xw.Q.4Xq.( ",
"#X}.|..X X X{.W.D _ y.).|.r.W.].(.a.p.e.*.8 *   o B 4                   ; @.@.+.c           ; B.C.k.    * J p._.[.;X!.!.1., *.,XXX(._.{..X{.p.Q.XX~ r.",
"Q.E.W.~.). X.X{.F _ >.>.3.$.*.r.1.6.p.3.J 8 -         X   .     . >       . R     3         B.C.C.C.B   . A ;.2.&.i.i.} L a 2.,X).).@X X.X).s.].W.i ;.",
".X X).E.y.Q.Q.r.a _ w.5.5.>.S P 6.!.[.p.s 8 } 7 = X   m V.%.      Y     X           :     X M.l.l.V.V.X   s 6.i.i.i.R.A a a L [.@X@XXX(.). X). X Xd 9.",
"|.{.{.E.y.Q.N.>./ e.XXXXXXXX_ >.W.].[.(.A s { { i.L   X m         R     L.O     &     <         . X m #   L _.[.OX).).{ J a a i.6.p.W.(.).).!.).~.r 8.",
" XXXoX|.XXXX~.w.H 4.y.3.>.e.Y -.i.6.6.i.A s { } i.e..       > .   Y     P.n.O C A.=   O o     . X         *.(.R.W.W.(.p.6.A P [.).[.W.p.e.3.i./.p.t ;.",
"/.).|.|.).).y.-.H -.y.0.3.>.G _ 3.3.3.3.s a *.i.1.i.*.+ X 6 2..   v     r n.A.Z.M.C     >     s A 1     . W ;.i.6.p.R.(.i.a W OX[.[.(.OX-XW.*.G w.S } ",
"/ P _ } _ _ ( G S _ ,.>.,._ G b { } } { A a } e.6.6.6.} D I X.O   6         n M.n C 3   X o   o a t s 1 a s L ;.} 1.;.;.*.6 A 1.6.1.( ;.W.p.:.A G t s ",
"i y d d t t y y i i i e b r i y 8 s D s s 8 } &.;.*.1.W p D ~ =   %     O     O     &   . 3     1 Z P I L P a 6 a a t 1 J a s I W *.L L W { } I d D a ",
"D F i i ! i | r.8.0. .b Q 8.r.N.' t i / w.-.u d S u L S S d S t         1 <               o ;     w. X X X@XQ.2.:.;.e.2.-.s P }._..XOX;X,X:X X}.r.f Q ",
"r.:.! F F ' ~.-X$X2XN.8.9.-X2X-X) t P XX|.).y.) i ! E.Q.Q.E.!.).#     o 6.a.A     #         l o   O p.).u.p..X X#X).@X+X(.D L %X[. X_._.{.{.}.$Xd.Q ' ",
"9. .Q F y 8..X.X|.{.w...y.|.|.|. .i i ~.e.!.oXy.t P ].XX~.y.E.W.1.    > R.i.a.A   W 1.#     X 5     <  X X/./.|. XQ._..X.X~ P #X).[.[.}.{.{.}..X9.f ' ",
"..) F Q Q r..X~.|.XX|.|.$XXX|.-X( f v ,.w.y.y.w.r S 0.w.w.>.3.3.2.< . A a.a._.[.[._.(.[.6 X           1 /.@X).Q. X).}.).#X;.P ). X).[.@X.X.X.X{.r.e 8.",
"' ..F y ^ {.$X.X{.-X.XQ.~.|.{.XX( y ( >.r.w.,.*.S D 3.2.5.,.5.5.1.s a *.i.(.(.).[.[.[.(.W t 1     .     D W.@X/.).}.}./.+X} K W.@X).{.}.{.{. X X8.Q 9.",
"Q Q f e ^ N.{.$X X#X|.{.XXXX|.oX-.1 -.>.,.3.y.-.S H w.w.3.;.;.;.{ a a *.6.2.i.].[.OXW.R.a A ` ,.A < o O 3.3.r..X)./.}.).).P J  X[.Q.{. Xd.Q..X}.Q y 8.",
"b y F b ) 9.r.y.{.{.~.|.$X|.!.|.` t ` ,.w.3.e.` t i -.;.;.-.;.>.&.s 8 } i.6.6.p.).^.3.} t D i P } a.p.u.e._ W W.)./.).W.p.K ~ }.R.r.W. X{.{.{.d.f f Q ",
"e q Q f F ' 8.8.,.E.y.:.-.-.} ` D H i H -./ / P D d / L _ _ ` ( { A s W ;.1.*.1.1.X.1.J a a 2 S h X.0.} ~ ( I d K F ~ D P d P u.a.;.3.d.{..X{.8.y y q ",
"e i F f y y y i f i S H t u S r S G t S i i u d S S t S i t 6 r a < A 8 a 8 G W G } S S ` -. ._ p G K h h h p a D ( ( K ( F P J ( J J J ( ;.) ~ h y Q ",
"..Q b ' r.Q.d.9.i !  .-.P -.y.,.-.} S -.y.p.y.y.w.,.S S D _ } ;.6.6.p.e.;.2.( J D p.e.y.oXoX).,.t t g ~ X.e.W.Q./..X.X}. Xp.0.( D t p D F h t f p h 0.",
"$X}.d.{.$X$X.XQ.i :.E.w.` e.-X~.y.3.P p.oX-X-X-X@X~.P S P w.W.).!.[.E.E.} W.( a i |.E.!.-X#X#X-.t G p.;X$X X+X X+X X.X X#X}. Xe.h D e.#X+X;.p d i ) .X"
};
