/* XPM */
static char *result[] = {
/* columns rows colors chars-per-pixel */
"75 75 231 2 ",
"   c #160D0D",
".  c #17110F",
"X  c #161413",
"o  c #191615",
"O  c #171A17",
"+  c #1A1817",
"@  c #1C1B1A",
"#  c #201717",
"$  c #221E1C",
"%  c #16241E",
"&  c #1A211F",
"*  c #24211E",
"=  c #31271D",
"-  c #1F1F20",
";  c #221F21",
":  c #1B2422",
">  c #152822",
",  c #1B2A25",
"<  c #1C2D29",
"1  c #17362C",
"2  c #1D322D",
"3  c #1F3833",
"4  c #1E3B34",
"5  c #242323",
"6  c #2A2523",
"7  c #2D2926",
"8  c #25292A",
"9  c #2B2B2C",
"0  c #342C24",
"q  c #312D2A",
"w  c #35312C",
"e  c #3D362B",
"r  c #3C352D",
"t  c #2C2E31",
"y  c #2D3233",
"u  c #213A35",
"i  c #293B39",
"p  c #313235",
"a  c #3B3531",
"s  c #3E3934",
"d  c #35383B",
"f  c #343A3D",
"g  c #43372D",
"h  c #42392E",
"j  c #433C37",
"k  c #443C34",
"l  c #493E35",
"z  c #483F38",
"x  c #1C473A",
"c  c #22433C",
"v  c #4B4136",
"b  c #46413A",
"n  c #4C433B",
"m  c #4B453B",
"M  c #544539",
"N  c #51463C",
"B  c #52493E",
"V  c #3A3E42",
"C  c #1A5544",
"Z  c #224740",
"A  c #234C43",
"S  c #3A4347",
"D  c #3C4549",
"F  c #275349",
"G  c #24544B",
"H  c #265C52",
"J  c #285C53",
"K  c #315A54",
"L  c #1C6853",
"P  c #276658",
"I  c #2C6658",
"U  c #2A7265",
"Y  c #2B7A6C",
"T  c #347369",
"R  c #4B4541",
"E  c #4E4942",
"W  c #43474D",
"Q  c #504741",
"!  c #544B43",
"~  c #5A4E44",
"^  c #544D49",
"/  c #584F49",
"(  c #5A5146",
")  c #585247",
"_  c #575149",
"`  c #5C534B",
"'  c #434D52",
"]  c #494E55",
"[  c #465459",
"{  c #4A555C",
"}  c #5B5653",
"|  c #5F5851",
" . c #645548",
".. c #61554C",
"X. c #62594E",
"o. c #645B53",
"O. c #655D57",
"+. c #6A5D54",
"@. c #715F52",
"#. c #6B6156",
"$. c #676058",
"%. c #6C645C",
"&. c #736357",
"*. c #73665C",
"=. c #71695F",
"-. c #7B6A5C",
";. c #4D5C63",
":. c #545B64",
">. c #566169",
",. c #53646B",
"<. c #45706A",
"1. c #566971",
"2. c #586B74",
"3. c #5A6D76",
"4. c #5D747A",
"5. c #6E6761",
"6. c #716760",
"7. c #746B63",
"8. c #7A6D64",
"9. c #766D69",
"0. c #786F69",
"q. c #7A7067",
"w. c #777068",
"e. c #797268",
"r. c #7C736C",
"t. c #60757E",
"y. c #7E7772",
"u. c #816E65",
"i. c #877769",
"p. c #81766D",
"a. c #81786E",
"s. c #847B74",
"d. c #857C75",
"f. c #897C73",
"g. c #27866C",
"h. c #2D8876",
"j. c #338779",
"k. c #2C9579",
"l. c #488177",
"z. c #8A8076",
"x. c #8A837A",
"c. c #8C837B",
"v. c #91857C",
"b. c #998778",
"n. c #92887F",
"m. c #647A84",
"M. c #667C86",
"N. c #777D80",
"B. c #2F9282",
"V. c #339786",
"C. c #2FAC89",
"Z. c #34A693",
"A. c #34AA96",
"S. c #34AD99",
"D. c #3BAB98",
"F. c #36B794",
"G. c #36B29D",
"H. c #37B6A1",
"J. c #3ABAA4",
"K. c #6B828C",
"L. c #6E8691",
"P. c #6F8893",
"I. c #708995",
"U. c #788B94",
"Y. c #738D99",
"T. c #788E98",
"R. c #47A497",
"E. c #55AA9E",
"W. c #52B4A4",
"Q. c #3CC29E",
"!. c #3CCAA3",
"~. c #3CC3AD",
"^. c #3ED3AA",
"/. c #3EC7B0",
"(. c #3ECCB4",
"). c #3ED2BA",
"_. c #51C6B3",
"`. c #40D6BD",
"'. c #41DBB9",
"]. c #4EDDB9",
"[. c #43DCC2",
"{. c #54DBC4",
"}. c #65DCC8",
"|. c #46E2C7",
" X c #45E5CB",
".X c #46E9CE",
"XX c #47EED2",
"oX c #53EBD2",
"OX c #53EDD1",
"+X c #6CEFD9",
"@X c #74EDD8",
"#X c #8E8780",
"$X c #908780",
"%X c #948C83",
"&X c #998E85",
"*X c #998F88",
"=X c #9A9187",
"-X c #979088",
";X c #9C948C",
":X c #9C958C",
">X c #889195",
",X c #9E9690",
"<X c #9F9991",
"1X c #A1968D",
"2X c #A2988F",
"3X c #A19790",
"4X c #A49B93",
"5X c #A99E96",
"6X c #A79E98",
"7X c #A89F98",
"8X c #A9A096",
"9X c #A9A39A",
"0X c #ACA39B",
"qX c #B1A69D",
"wX c #B2A89F",
"eX c #869CA5",
"rX c #939CA1",
"tX c #96A2A8",
"yX c #95A6AE",
"uX c #B5ABA3",
"iX c #B4ACA3",
"pX c #B9B0A7",
"aX c #BDB4AB",
"sX c #ABB0B0",
"dX c #C1B6AE",
"fX c #C6BDB4",
"gX c #CDC4BB",
"hX c #88F0DE",
"jX c #8EF4E2",
"kX c #94F3E3",
"lX c #D9CFC6",
/* pixels */
"4X6X;XuXiX,X6Xd.k 0.6X5X4X3XiX%X-Xl.@.2X4X1X<X<X<X6X#Xb %.y.%X#X%X-Xd.#X| r.| n ;X$XpX6X0X4X;XO.B ) n.aX1Xf.8X=X=X8X5X3X3X;X,X$Xn q.9XpX4X4X2Xc.( ! 2X",
";X4X4X,X*X3X*X0.n p.7X6X6X6XiXd.c.y.M &X1X4X4X-X<X;Xy.k O.w.y.7.7.7.O.7./ 6.| n 3Xd.6X*X6X6X%XQ n *.:XqX:Xi.b.f.r.&X3X6X6X6X<X#Xb ` r.&X4X8X8X4Xa.X.2X",
"$X$X4X3X4X0Xv.%.z 9.,X*X*X;X6Xs.=.x.E %X*X3X4X<X<X-Xy.b %.r.r.5.7.y.r.7.! ` ! ^ $X0.3X*X3X3X$Xn B -.r.e.=X=X8X8Xv.%Xv.*X<X,X,X#Xk X.7.a.=X2X2X2X4XX.s.",
"%Xd.c.*X;X$X0.O.z y.6X3X3X3X0Xc.| x.) :X;X,X4X9X-Xs.%.b O.r.r.7.r.7.| ` 5.6.X.! 0.O.;X3Xc.s.0.Q B &.z.e.1X1X1X1Xn.p.8.$X9X-Xy.O.b =XqXn.n.4X4X4Xn.n 7.",
"iX4Xr.s.s.+.7.o.j +.%X*X3X;X3Xr.o.y.b c.-X%X#X-Xz.5.o.m ` 5.e.e.9.o.! / 5.6.o./ 0.X.d.*Xf.7.%.Q m ) e.-.z.l.i.z.f.p.*.p.#X#Xy.} k :X0Xq.6.z.&X0X%X+.2X",
"d.,Xr.r.0.O.O.z j ! O.6.s.d.$X7.| %.b =.w.%.5.e.e.$.| m ! o.$.%.o.| | / Q z z n %.z / 6.7.%.` n #.B  .X.u.i.i.u.8.8.o.~ ` $.%.) n r.7.N n X.7.-Xa.%.c.",
"Q O.o.o.O./ ! k z k k k R n ` z ! ^ m ! m b ! | | B E m b E m ! Q g h n n Q Q z / k z n Q / E Q ) c M v  .M v g z ~ M z k k n l v ! v e k e r ) n m n ",
"| / Q z ! / / 9.s.p.s.7.o.z Q z ! k k a b m b s ^ b E ) m ! m m / z / %./ o.6.O.o.5.5./ n ! ` 9.%.e.z.B ~ M ~ u.+.~ l ! B z ) %.%.7.r.s.f.%.n N #.6.X.",
"6X3X*Xd./ z d.gXuXuX7X7X3X*X0.j l n | o.} $.5.5.5.` $.9.d.0.z R R o.3X5X$Xy.qX3X6X6X3X*X$Xh d.iX6X6X6X*X@.&.qXgXf.&...~ z +.*X6X8XwXwX:X%X7.~ r.9X8X8X",
"4X4XiXiXd.n 9.iX,X,X3X6X6X6X6.7 @ 5 5 @ @ @ * 8 t q a ` f.$XO.z ! 9.4X3X$X5.0X;X3X6X3X6X6X/ $X7X6X6X3X*X*Xb.5XuXp.8.6.+.Q i.qX*X2X4Xz.! e g ) 4X2X4X2X",
"6X3X%X;Xc.k 7.7X3XiX6X*X%X3XE @ o o & 3 u u 2 < : @ o 9 5.*Xd.R Q $X4X6X%X5.7X*X3X,X,X%X%X! s.<X*X6X3X3X6X3X3X3Xf.*.u.&.~ f.pX5X4X4X:Xs.X.g X.dX=X:X2X",
"3X7X1X6X6XR %.v.r.d.*X7XiX7Xy.q $ X 2 Y H.~.J.W.A.A @ $ d O.O.t a O.0.s.d.r.3X,X3X6X6X$Xy.j r.6X*X6X3X6X3X3X3X*Xv.@.*.u. .u.uXpX0X0XqX0Xs.n ~ 9X2X:X=X",
"%X0X3X*X*XQ s.6X0X$Xd.3X*Xs.O.z R 7 & H G./.|..X(.Z     @ ; # #   # $ 6 7 a R _ O.y.$X$X9.s 5.*X6X,X,X6X,X3XqX*Xu.~ ..u.~ @.b.qX4XwXqX=Xq.! ! %.2X;Xn.",
"6.*X4X,Xd.! d.iXuX3X$Xd.d.f.d./ n 5 o Z Z.J.[..X[.j.J G J P J G G Z x 3 : - o @ $ 6 a z n a X.d.$Xv.*X6X*X3XuX*Xu...u.u.M  .f.3X8X0X:X&Xs.X.X.o.0.z.:X",
"d.$X$X0.` z 9.3X$X7X7X3X3XiX*Xa 9 + < U J.).[..X X`.~.~.(.J.).W.W._.W.D.V.j.Y P F y & o o $ a ` 6.9.p.d.f.v.*Xf.u.u.u.u.~ @.f.1X2Xc.7.r.=.B X.q.( %.z.",
"/ Q / o./ Q o.9.y.d.d.*X3X,Xs.q o , P Z.~. X.X X XXXXXXXXXXXXXXXoX+X+X+X+XoX[._.D.B.j.K i : X $ p Q z ^ u.f.u.~ .... .~ M M M u.O.#.` O.) l / ` ` ( ~ ",
"k k k k n n n / n / ! ` ! n ! 0 @ < P Z.J.`. X X X X X X[.[.[. X XoX@XkXkXhXOX).B.j._.}.W.<.F , # - d n } | ^ / ! n g Q n ~ z ~ B X.)  .M  .) m m B m ",
"6.0.e.q.0.*.o.X.n v n / ` #.7.$.s o , J V.H.(.[. X X.X X[.(.(.(.).{.@XkXkX@XoXA.5 X T @XkXkX}.j.V O ; o.c.;X*X$X,X*Xp.n g 8.&XpXiX9Xn.l.b.8XwXqX#.v #.",
"6XqX0X8X0X4X;X;Xz.! ( 7.a.s.%XuX=X^ o + Z h.A.H.J.[. X X X[.(.H.H.(.{.oX@X@X}.j.X X , _.jXhX+XoXJ.J o q %X,X,X6X6X,X%XR ( 1X0X5X8Xn.n.2X8X:X2X8Xz.e a.",
";X1X&X&X:X:X1X4Xf.k o.s.s.s.a.4X4X1Xm 5 X < Y Z.S.H.J.[. X X.X[.J.S.H.[.XXOXW.i X @ o h.{.+X+X+XoXJ.u @ r.,X,X6X,X,X*Xz v *.1XqX8X2X9X9X4X:X2X9Xn.v r.",
"1X4X4X2X4X1X=X1X%.( =X;X;XqX%Xz.c.7.O.r.: o : Y A.S.G.)..X X.X.X[.J.S.H.`.[.j.@ u T X c (..X.XoX{.V.< # O.6X0X6XwX;Xr.v e e n.aX9Xn.n.2Xn.9X8X8Xy.m =.",
"4X4X4X2X4X4X1X2Xo.) ;X5X;XqX&Xc.;Xx.6.f.E s o 3 B.S.G.)..X.X.XXX.X(.S.S.H.`.j.+ F W.y @ j.[.XX[.B.2 X ; j O.d.#Xc.e.| B ( e z.8Xn.b.8Xb.n.8Xn.n.7.B 7.",
":X2X2X1X4X4X1X2X7.! z.5X=X2X:X2X;X4Xr.` 6.5.$ + h.S.J.|.|.`.).J.~.H.S.G.H.H.Y + d _.;.+ , V..X`.U     . o 5 b %.o.5.*.( M c z.pXwX9X8Xn.b.x.n.wXq.v r.",
"z.&X:X2X;Xv.e.7.` v r.2X=X4X4X1X8X4X9Xd.o.r X 3 B.J.[.`.J.A.h.P G G H U k.Y u o F ].[ X : Z. X XJ.Y I G 8 o 7 z O.7.-.v v  .x.b.n.n.b.b.9Xn.n.b.a.= a.",
"n ` #.7.%.X.%.o.X.k o.4X;Xa.%Xs.f.r.r.R ; o 4 Y H.`.).G.j.G < @ O O O : 3 2 @ 3 Z.{.4.@ , Y B.j.V.H.~.~.V.< ; a R Q / Q z N q.a.@.-.@. .-.b.b.b.M ..#.",
"N ! v k h k v n l k n o.( k k e N e 7 + % C h.A.(.).A.U 3 o @ 8 y i y 9 +   2 Y `.oXW.i @ , > @ < G V. X[.u o a j z R z N z X.X.@.@. .M ) @. . .g n ! ",
"! v ! q.r.#.e o.a.z.c.c.&Xx.e.n.O.r o : H V.G.G.(.S.U , X 5 V ;.,.1.4.1.p X c A. X.X{.K o $ w j q o < B._.3 @ $.$X$Xd.y.l.) M v M g g v v v v M ( X.o.",
"<Xf.x.0XqXc.h r.gXaXaXuXpX1Xr.%X7.7 : J Z.G.S.G.J.Y , X t K 1.2.m.L.I.T.;.- < Y H./.H.c O ' U.rX>X] o 3 B.< 9 d.iXiX6X3XqX#.M B @.@.-.@. .M v M 2XqXqX",
"uXiX8X8X1X%Xh =.8Xz.&X2X2X1Xa.q._ @ c V.H.S.A.S.h.2 . t ;.1.1.m.P.I.P.Y.m.V . & c G 3 X 8 4.T.eXsXyXR X 4 @ t #X:X<X-X:XqX .M  .z.b.b.b.&. .M v b.:X=X",
":X:X4X4X1Xz.k 6.0X:X8X8X2X0X=X%./ @ 4 h.S.S.A.Z.Z O 8 ;.1.1.m.P.I.I.I.I.L.2.V @ X X X t ,.L.Y.L.eXyXN.@ X o ^ *X<X8X4X8X5X .v  .u.u.u.@.&.@. .M 1X4X4X",
"0X;X4X2X%X%.k a.2X4X4X4X2X8X8Xr.} 6 X 4 B.S.G.Y & @ D 2.1.2.K.I.P.I.P.I.I.P.m.1.{ [ :.m.I.I.I.P.I.tXtXp X o r.*X<X<X2X2X2XB M u.u.u.-.-.&.@. .M b.1X1X",
";X1X0X=Xc.%.B 8.:X4X:X4X4X2X0Xe.6 X o c V.G.Z.A X V ;.D [ m.I.I.I.I.I.I.I.P.P.L.L.L.P.I.I.I.I.P.L.eXyX:.X 8 r.,X<X;X2X2Xb.B B i.&.-.u.u.@. .~ ~ 2X5X4X",
"8.n.8Xn.r.X.n 7.x.&X:X:X-X8Xz.r X 2 P B.S.S.B.< % D [ S [ P.Y.P.P.I.I.P.I.I.I.I.I.I.I.I.I.I.I.I.L.T.yXK.+ q c.2X=X4X4X:Xv.z Q u.%.u.8...` X...Q &X1X1X",
"n.s.a.0.=.! v =.7.v.2X<Xc.x._ $ 3 Y Z.S.S.S.Y % - 8 S ;.4.P.P.P.P.I.I.I.I.P.I.I.P.I.I.I.I.I.I.P.L.Y.yX-X* * 7.=Xx.%Xv.a.*.h ~ p.i.+...+.` N n ! v.%X=X",
"+.~ N v B ! k B ` X.%.=.%.=.b X 4 B.J.G.S.S.U X 8 - S 2.K.P.P.Y.Y.P.I.I.Y.I.P.I.I.I.P.I.I.I.I.P.I.Y.eXrX6 @ n O.+.X.` `  .z ..` M l l n l N ~ N ` ..o.",
"n n z k N ( ) B ) v b b m B s @ , H B.S.G.S.H O t V D 1.K.P.L.m.m.m.m.M.M.P.I.Y.P.I.I.I.I.I.Y.Y.Y.T.eXtX9 @ s h k h ~ *.+...o.N ! o...M N ~ ~ h n n b ",
"r.#.N B ..) ` *.*.*.e.c.b.b.i.m @ & A Y V.V.G X V K [ :.K.L.2.S f i V S [ ;.m.M.I.I.I.I.I.P.K.t.4.m.U.tXq * e.%X=X#.+.1XdXdX%XM *.1XwX1X7.v ) 2X2X=X%X",
"2X%XX.B %.*.=.r.7.=.r.-XqXpXiX%X} ; o : Z P c X V ;.' ,.L.4.y X X X X O X - d :.I.I.I.I.K.,.' i y p ' N.9 & d.0X4Xf.&XqX4X3Xp...8X0X1X1X8Xv.x.wX8X4X5X",
"4XqX%.v q.c.n.-X:Xc.z.z.b.5X<X-X5X/ 5 ; o X X X V ;.1.m.4.D X O 1 x x x 3 > X y t.Y.I.I.1.7 . . O O O w * * z.0XuX5X5XqX4X7Xp...qX8X2X%X%X:X=X%X=X%X=X",
"4X5X~ k =.r.n.aXqX9X8Xn.l.x.2X8X9X0.z O.p X X X t ;.2.3.;.> X 1 C L g.g.k.P > - { Y.I.L.S X % x C c % . o 6 d.-XqX8X4X4X1XuX0.Q &X:XwX2Xr.z.8X&X9X4X2X",
"4X&Xz B ..q.a.4X0X%X4X4X:Xc.<X<X0X6.l %.s + < O 8 { 2.2.' + % x L g.k.C.k.k.C O m U.P.K.y O x Y k.g.3 X + w %X1X5X-X4X2X2X9X=.X.2X%.v.8X=X9XwXr.v.2X0X",
"&X1X! N o.*.*.%X0X1X8X8X9X2X8X%X9X0.r E @ @ Z : & D 1.,.S O > C k.C.!.'.'.Q.I O c U.U.t.7 @ L C.^.F.F . o j <X2X;X;X4X2X4X:X$.B n.n.#.z.8X=X8Xn.s.n.1X",
"c.p.g n v.4X-X2X:X:X4X:X=X=X8X<X=X7.k v 7 O : + X f ,.1.S o % L k.F.^.'.XX^.H X S I.I.K.9 O P F.'.Q.A X o R c.%X5X:X%Xc.n.r.X.) i.=Xl.$.n.8X2X9Xa.p.a.",
"*.X.N n a.%X1X4X2X=X=X%X=X%Xz.=.=.X.l n b w 6 + X 8 D ,.[ 5 O x g.C.!.'.].k.1 @ { I.P.K.d X x g.F.h.< X O l ( o.o.#.#.%.=.| m e X.@.b.) m e.=.7.o.` ! ",
"N e N N ` ~ X.n ~ / ! ( ) m e e k v k l r 0 q q $ O 5 p f 8 X : x L g.k.h.x O y t.Y.I.I.;.& & x x 1 + + * b h v e v e v h m ` ) ) B ) $.B a B n k N ! ",
"0Xq.7.( ! N ` B N B B $.=.%.^ ! ` 6.q.=.6.%.=.( k * $ + + @ o o % 1 2 1 , * 5 ;.I.I.I.I.K.S & X & . X * b s.e.p.%Xx.7.X.b z.iXiXfXaXpX9X:X=.k ! f.=X2X",
"fXfXlXgX0Xp.` o.f.f.i.b.wXwXw.! <X9XqX9XuX0XpX4X! r | | d 7 * + . + * * * 7 ' K.Y.I.P.P.U.4.d X o + = s r.wX4X9X4X:X=Xe.c -XiX<X<X4XpXn.2Xn.h =.8XqXqX",
"5X8X0XqXdX=Xo.q.&XqX1Xb.l.x.z.%X8X2X2X2X0X&X0X0X%.s e.5Xc.7.^ 5 X y [ ;.;.,.3.K.I.I.K.K.P.L.S O @ b %.o.i.8Xn.8X8X4XqXb.g <XiX:X:X8X4X4X<X%.n a.pXuXuX",
"8X2X2X2Xn.X.) #.n.n.:X8X<X<XqX-X8X:X6XwX<X-X:X4X$.e w.4X<X<X9.6 o 8 1.M.3.,.,.m.P.K.2.,.K.3.y X R 6XwX,X9.#Xx.%X6X9X-X5.) z.:Xx.n.1X1X8Xb.B ( :XuXqX8X",
"8X1X2X8Xz.B B e.2X8X4X:X=X<XwX:X<X<X<X-X-X6X<Xx.} b l.<X#X| 5 o X @ D ' V p ' 3.M.,.f 9 [ S 5 $ | -X#X-X%X9X:X6X-X4Xx.} w %.-X9X8X8XqX1Xs.` B q.z.2XwX",
"8X4X2Xn.X.m m v.2X2X:X2X4X4X:Xe.;X<X<X-X<X6X-Xy.E n b.i.R o @ < : X & - X X ; V D 9 + X @ @ + 7 ! x.y.-X<XwX8X8X9X9Xx.} b 7.-X:X:Xz.2Xc.=.X.h  .n 8.4X",
"n.n.:X-.B B B 7.4X8X2X2X;X%Xc.r.;X<X<X<X%Xy.%.O.E v O.k o < j.J.G o X o 8 5 @ @ @ O o * @ X * a | <X-X4X<X<X-Xc.%X#X5.E E w.z.y.*.( =.q.=.X.v ( B M #.",
"7.e.b. .B B m ) s.%X3X4X#X%.%.5.r.d.x.#Xc.7.| o.n s a + 3 B.[.[.G X ; y W ] V # O $ X * $ o o 7 b r.7.c.%Xz.d.w.w.e.$.b B $.7.$.n k N +.o.~ ~ ` ..v B ",
"B v  .c v v v ) O.0.0.s.e./ Q / ` %.o.` | _ l j s $ o @ U [..XD., @ d D ] :.:.V @ 5 7 9 @ o X o $ 8 w o.r.5.%.o._ ) ! k ^ E ) E g v h l v k v h B v ( ",
") B B B  .B B m l ! z z z j z E r b e w b m / o.j $ X O A A.J.G X 8 V { { :.>.] 6 + s b @ X o o + @ $ q r a B m b l n !  .c m $.v.%Xn.z.v.z.7.8.s.( B ",
"4XpXwXpXpX9Xe.B g y.,X3X,X$X$Xd.<X%Xq.$.) s E b @ $ 6 5 @ 3 I : # V W :.:.:.{ V 8 @ a ^ $ o p 9 8 t @ @ 9 | n.-X<X-X4X%Xu.e | wXdXqXdXpXfXuXs.&XgXa.+.",
"7X3X3X6X3X6X,X$XQ O.d.,X3Xd.%X;X:X#X#Xy.5.s s @ 5 V ] W t   o o t V V ] :.] p @ ; 9 p / @ @ E j 9 d & o 8 E c.:X<XiX*X%X0.0 7.aX6X*X1X3X5X;Xc.*X4XX.a.",
"*X$X%X*X*X6X6X,X/ O.9.0.y.%.5.d.w.y.x.y.^ w 5 O V :.>.>.V @ X - V d - t V 9 X X ; p q ) 6 - a t @ o @ @ 7 E 7.r.7.z.d.+.| k 9.fX*X;X9X4X4X4X$X;X&Xz 8.",
"6X3X*X$Xv.*X$Xd.z O.y.y.p.9.R } y.%X:X#Xm w + 8 ] { W ] V 5 O 8 p @ X + + @ - - @ p 6 ^ 5 9 5 o X $ w q a ) y.z.z.l.&X~ j l / ,X9X9X9X-X-X4X3X4X4Xn p.",
"4X3X,Xv.$X$X$Xu.o.d.3X6X6X6XO.9.%X:X<X%XE r O 6 V 5 o @ @ @ @ t @ + u - X Z U c o d $ $ o ; t 5 @ / c.) m 7.;X<X9X:X1X@._ b b y.y.#X%X%X;X;X*X*X*Xk u.",
"4X4X6X3X3X6X,Xy.^ 9.d.y.9.d.^ 9.d.d.y.z.R h @ o   o o o X o - ; X V V.T G V.R.A o d @ $ q $ + + 7 %.r._ ! r.-X#X%X#X-Xx.y.B | 4X<X<X%Xx.d.y.z.:Xc.j 6.",
"*X3X3X3X,X*Xf.6.} 9.d.u.9.9.^ O.r.r.r.r.R k p @ ; # 6 6 @ o - @ > <.E.G.R.T G - @ p @ 9 _ b 9 7 j / ` m m | 7.x.y.x.%X-Xx.b | 4X<X<X-X8XwX#X%./ r.! %.",
"....+.%.+.+.O.^ Q O.9.9.9.O.^ Q O.%.6.O.Q k } O.O.O.} 9 o - - O V T K m.K 8 @ o @ 9 + 9 | o._ k k b ^ m b m _ 7.%.e.7.7.5.s m e.e.w.| w.#Xc.7.E _ k n ",
"z z z Q j j z j z z z j R a R z j v ^ z z j O.5.9.%.R ; - ; o @ 8 8 , 8 : + # o + @ + w m m m n E m | ` ` ` k r b b s r ) m m ` | =.) ^ $.$.5.` n ! v ",
"~ ~ z M ..l @.f.u.u.6.Q / u.f.f.O.z z } p.6.j R Q w ; - ; 5 o o @ X . X X s } 9 O X @ k z z / / 5.f.2X4X5X9X%Xe.7.7.s.r.=.v ` 4X<X4X8XiXaXuX5X2Xf.M  .",
"f.*...~ ~ +.1XqXqXdX*X&.y.uXdXuXO.z / 6X,X,Xd.O.j 6 @ 5 t @ o o 7 $ o $ m d.z.p O X q a.Q / p.,X4Xs.c.1Xf.c.9X4X0X;X0X9X=X! ) qX<X4X2X:X;X2X2XqXb. .@.",
"f.&./ ~ z u.5X5X3X1Xp.u.v.3X3X3X6.z z *Xd.*X6Xp.; # o 5 ; # - p O.q & R y.d.d.^ o 5 $.9Xo.| f.;X6X*X%X4X4X;X&X4X4X%X2X8X8XX.` 0X;X<X<X<X1X1X2X5Xi.l @.",
"*.@./ ..~ f.5X&X3X6X,X3X6X6X3XqX} Q R u.y.d.p.j # # o o @ 5 j 5.q.M c 5.c.%X-X9.s o.*X3X6.Q d.0.;XqX;Xs.&X8X;X&X4X1X1X1X0X7.` :X4X:X4X8X5X5X5X1Xi.M u.",
"+.u.~ z @.1X5X5X3XqX6X$X*X,X,X3XO.z O.9.d.u.^ # o o # ; V o.p.y.e.m b %.c.%X-X-X$X,X3X*Xo.z p.p.c.n.=Xz.0.%X0X:X;X4X;X-X8X%.) &X9X<X2X2X1X1X4X4Xu.~ i.",
"~ ..M l ..&X1X5X6X6X3X3X6X6X6X0Xu.w 6.9.9.u.6.q ; q ^ %.9.6.6.6.$.b b =.y.e.z.<X4X6X%X#Xz R O.p.7.d.=X2Xv.q.s.4X;X=X2X;X:X` ( 4X;X%X2X4Xb.&X5X2X .l u.",
"M z ~ M +.u.b.b.,X,X*X,XqX,X*X3XO.z +.u.y.u.d.} j z 6.6.9.6.9.9.7.b c %.z.y.y.c.;X%Xp.6.j ! z / =.c.n.s.d.#.X.n.;X=X:X%Xz.( ` 2Xn.d.%X4X1X1X1Xb.M M ~ ",
"M 0 / ~ ^ ..u.u.u.v.f.u.6.6.O.+.Q ^ j / 9.} } } / z ..` o.O.O.O.#.B M } 9.7.5.e.9.5.9.! z z g Q ! =.r.%.X.o.` N ( ~ X.! ` n ` z.n.7.u.n.1X5X1Xu.l l g ",
"l M M Q M z z z M z Q ^ j z Q j Q / j R z z z R R ! h Q z z a h j w E s c l ) ` / 5.^ E O.6.6.o.z ~ ( B B m n v ! +.o.( o.~ ( ) o.) ) ) O.7.+.X.B k  .",
"@...Q +.f.&Xv.u.M / 6.6.^ 6.c.9.6.O.Q 6.d.$Xd.c.s.9.Q Q ! o.+.7.y.d.c.z.7.u.O.! ! f.s.f.7X6X1X0.k k N | 6.f.%X=X-X4X8X2X4Xc.a.O.! h v B ~ B h M M N p.",
"qX3Xb.3XqXqXqXv.Q u.v.u.%.d.6X*Xd.p.X.$X7X0X0XwX6X&X` Q / s.*X,X%X<X#X#X%.%Xo.z z 3X$X%XiX7X0X7.k ) c.uX0X4X8X4X8X4X5X4X9X2X4Xs.n ! s.wX8X7.v n M +.5X"
};
