/* XPM */
static char *result[] = {
/* columns rows colors chars-per-pixel */
"75 75 148 2 ",
"   c #0C0716",
".  c #0E071B",
"X  c #0E0C1B",
"o  c #110A17",
"O  c #100E1D",
"+  c #11101E",
"@  c #120E22",
"#  c #160E2B",
"$  c #141224",
"%  c #181526",
"&  c #1D1922",
"*  c #16142A",
"=  c #18162E",
"-  c #1B192D",
";  c #1A1732",
":  c #1C1934",
">  c #1E1B3A",
",  c #221B25",
"<  c #201E30",
"1  c #201C3E",
"2  c #1E2038",
"3  c #2A2223",
"4  c #21223C",
"5  c #221D42",
"6  c #251E4A",
"7  c #242146",
"8  c #262C43",
"9  c #292C47",
"0  c #26214A",
"q  c #28234E",
"w  c #2C2C4F",
"e  c #2B334E",
"r  c #2A2454",
"t  c #2E2F50",
"y  c #2D265B",
"u  c #2E285D",
"i  c #30295E",
"p  c #2D3352",
"a  c #313254",
"s  c #333458",
"d  c #343F5F",
"f  c #2F2460",
"g  c #2F2860",
"h  c #312662",
"j  c #322B64",
"k  c #362E6B",
"l  c #353563",
"z  c #353D61",
"x  c #37306E",
"c  c #38316E",
"v  c #372E70",
"b  c #392F73",
"n  c #3C2F7A",
"m  c #3A3174",
"M  c #3D347B",
"N  c #3D3978",
"B  c #40377E",
"V  c #3A466A",
"C  c #3E4B71",
"Z  c #434571",
"A  c #41427D",
"S  c #4A4C7D",
"D  c #45517D",
"F  c #3F3481",
"G  c #413683",
"H  c #433986",
"J  c #453B8B",
"K  c #483F8E",
"L  c #473C90",
"P  c #493E91",
"I  c #454284",
"U  c #4D4F82",
"Y  c #47418F",
"T  c #49428D",
"R  c #4A5881",
"E  c #4D5488",
"W  c #505087",
"Q  c #52568C",
"!  c #4C4492",
"~  c #4E4994",
"^  c #4E4B9A",
"/  c #504B96",
"(  c #524D9A",
")  c #56529D",
"_  c #58569E",
"`  c #5A599E",
"'  c #4E628F",
"]  c #4F6391",
"[  c #506492",
"{  c #55659B",
"}  c #5D609D",
"|  c #556B9A",
" . c #5653A2",
".. c #5956A1",
"X. c #575AA7",
"o. c #5D5CA4",
"O. c #5857A9",
"+. c #5759A8",
"@. c #5C5CAA",
"#. c #605FA7",
"$. c #5E60A4",
"%. c #5D63AF",
"&. c #5D71A9",
"*. c #5E66B1",
"=. c #6162A6",
"-. c #6364AA",
";. c #6769AE",
":. c #686BAE",
">. c #6166B1",
",. c #616BB3",
"<. c #696DB1",
"1. c #6C71B4",
"2. c #627DB3",
"3. c #6572BE",
"4. c #6D76BA",
"5. c #6F79BE",
"6. c #707BBF",
"7. c #6775C1",
"8. c #697BC4",
"9. c #6C7FC9",
"0. c #707DC1",
"q. c #6581B6",
"w. c #6682BA",
"e. c #6986BE",
"r. c #6D8BC4",
"t. c #6E82CD",
"y. c #6F8DC8",
"u. c #7382C5",
"i. c #7585CB",
"p. c #728DCB",
"a. c #7888CE",
"s. c #728AD4",
"d. c #798CD2",
"f. c #7691D9",
"g. c #7C94DB",
"h. c #779AD8",
"j. c #7B9ADC",
"k. c #7F9BE1",
"l. c #7FA1E4",
"z. c #809CE3",
"x. c #81A1E5",
"c. c #84A5EB",
"v. c #84AAEE",
"b. c #86ACF1",
"n. c #88ADF4",
"m. c #87B0F3",
"M. c #89B2F6",
"N. c #8BB5FA",
/* pixels */
"< % $ % % % * $ % * $ $ $ $ $ v L J J J J J J J J J J J J J J J J P j ; H J J Y J L J L J J L J J J L J J L L 7 0 L J J J J J L J J L J J L K J L k 5 ",
"- $ > j j x k j k j k l k k $ k J H J H H H G G J G H J H G J G J L g = G J J H H G H G G J G G J G H H G H J 1 7 J J G J G G H G H H H J G G G H L k ",
"- > j J J J J J J J J L J J $ k J J H H H J J J G J H H J H H H H J g = G J H H J H H H H J H J H J H H H H J 5 7 J J G J J J H J H J J H J H J J J k ",
"- j J H H H H H H H H H J H $ k H I $.$.$.=.$.=.$.-.=.$.=.=.-.@.H J g = G G ~ -.=.-.=.=.=.-.=.=.=.=.-.-._ F H 5 5 J G o.-.=.-.=.=.-.=.-.=.-.=.=.J H j ",
", j J H H H H H H H G J H F * j  .3.1.1.1.1.1.1.1.1.<.<.1.1.<.<.o.! u = M ) =.1.<.<.1.1.1.<.1.<.1.<.1.1.<.) J > 5 Y _ ;.1.1.1.<.<.<.1.<.1.<.1.<.o.! j ",
"- j H H ` o.o.o.o.o.o.o.o.o.$ g 3.v.<.<.:.<.:.<.<.<.<.<.<.<.<.<.1.) y = G -.4.<.<.<.<.<.<.<.<.<.<.<.<.<.1.<.! 1 5 ! 1.1.<.<.<.<.<.<.<.<.<.<.<.<.4.) h ",
"& u Y ) <.1.1.1.1.1.1.1.1.1.$ j 3.c.1.:.<.<.<.<.<.<.<.<.<.<.<.<.<.( y = G =.<.<.<.<.<.<.<.<.<.<.<.<.<.<.<.;.J > 5 ! ;.1.<.<.<.<.<.<.<.<.<.<.<.<.<.( j ",
"% y ( 1.<.<.<.<.<.<.<.<.<.<.$ h 3.c.;.:.<.<.<.:.<.<.<.<.<.<.<.<.! L i = G H _ 1.<.<.<.<.<.<.<.<.<.<.<.<.$.J J 5 6 J J $.<.<.<.<.<.<.<.<.<.<.<.<.! J k ",
"- y ( <.<.<.<.<.<.<.<.<.<.<.$ h 7.N.h.1.-.;.;.;.;.;.<.<.1.<.1.<.J J j ; J G ) 4.1.<.1.1.<.1.1.1.1.1.1.1.o.G L 5 0 L G -.1.1.1.1.1.<.1.<.1.1.1.<.K J k ",
"- j K / ;.<.<.<.<.<.<.<.<.<.$ k +.f.N.g.i.d.d.d.a.d.i.o.o.#.@.@.Y m 6 * y B / @.#.o.o.#.@.@.o.@.#.o.o.@.) J j : > k J  .@.o.o.o.o.X.o.o.o.o.o...L m 0 ",
"- i J H -.1.1.<.<.1.1.<.1.<.> j n I h.h.h.h.h.h.g.j.y.M b n m m M 5 O $ @ j M M n b b b m m m m n b b m M m % @ O = m m m b b b m n m b b b b b B 5 O ",
"- r G J $.;.-.-.-.-.-.;.-.;.-.w - = - : ; : : - - ; - * $ * * * * % $ $ $ $ * $ $ % * * * * = % $ * * * % $ $ $ $ $ % * * * * * $ = * = * * = * % $ * ",
"- $ 7 H J J J J I J J I J J J N c m y $ + @ 1 v > O % k k k k k k c m c c k k b b k m r O $ X 5 m k m k k m b m k m c k k b b m > X $ + y m c c b m y ",
"- + % 1 1 1 > 5 5 5 5 7 1 1 1 1 > 5 : O @ + % 1 = > j H K K K J J J J J J K J J J J L B q $ 5 v L J J J J J J J J J J K J J J J k 5 % r B L J J J L c ",
"* < : ; = = = ; : : : - ; ; - - = * % > 0 0 5 5 % r Y H H H H G H H G H H G H H H G H J G = k L H H H H H H H H H H H H H H H H ! j - H J H G H H J k ",
"% r m c x x k A 2.e.w.w.w.w.w.e.&.m x r y F J J 5 q J H H H H H H J H H J H H H J H H J B % k J H H H J H H H H H J H H H J H H J i = G J H J J H J j ",
"$ j J K ) ..) >.d.g.g.g.z.g.z.c.c.8.^ u 5 M J F 5 q J F o.-.-.-.-.-.-.-.;.-.-.;.-.-./ G F = j J K -.;.-.>.-.-.-.:.-.-.-.;.;.-.J H j = G G ( <.-.K J j ",
"$ u J ( :.<.1.<.:.:.:.:.;.-.-.0.x.c.o.y 5 m F F 1 0 ! 8.4.<.1.1.1.1.1.<.<.1.<.<.1.1.-.( M # j / #.<.1.1.<.<.1.1.1.1.<.<.1.1.1.o.~ h * F ) -.1.<.=.^ j ",
"$ u / <.<.<.<.<.<.<.<.<.:.:.<.:.6.x.X.r 9 I ( ^ 0 6 ^ n.0.-.<.<.<.<.<.<.<.<.<.<.<.<.4.-.M * g  .4.<.:.:.<.<.<.<.<.<.<.<.:.1.:.4. .y = M -.1.<.<.1. .h ",
"@ u / :.<.<.<.<.:.<.<.<.<.<.<.:.6.x.X.r t =.1.1.p 6 ^ v.i.:.<.<.<.<.<.<.<.<.<.<.<.<.<.X.F * h  .:.:.1.<.<.<.<.<.<.<.<.<.<.:.<.:.( y = F o.<.<.<.<.( k ",
"$ i K ) :.<.<.<.<.<.<.<.<.:.<.1.<.>./ r t =.:.:.e 6 ( b.n.i.;.;.:.:.:.:.<.<.<.<.1.1.) J B % k J T 1.<.<.<.1.<.<.<.<.<.<.1.<.<.Y J j = G J ) 1.<.! J k ",
"$ i G J ) ` o.o.` ` #.` o.o.o.o.) G H y t =.<.<.9 q ! O.c.N.c.c.c.c.c.c.c.%.! / / / ! b > $ ; g ! / ~ / / / / / / / ~ ~ ~ ^ ~ K y - * > b ! / ! J L k ",
"$ u H H G G G G H G G H G G G H H H J r e -.1.1.U i g r E | | | | { { | | l 6 r r r y 5 X $ X ; y r r r r r r r y r r r r r r r = O @ O 5 y r r r r 5 ",
"$ j J H H H H H H H H H H H H G H H K r w } -.;.;.W : 1 ; * # X * = # o . # : ; ; : : : > > > : ; ; ; ; : ; @ @ @ @ ; : ; : : : > > 1 1 : : : : : > ; ",
"$ i H H G J G G H J G J H H H G H H J y 5 F Y J Y J J J J q $ $ * k k % $ k K J J G J G H J H J J H H H J G ; @ @ : G J H H H H J G J G J G H H H J k ",
"$ 5 k J J J J J J H H J J J J J J J k 5 > 1 4 1 1 5 1 1 5 % X $ O ; : ; m H J H H H H J J H H H H H J H H J M 1 1 G H J H J H J G J H J J J J H J K k ",
"$ @ 1 j k k k k k v k k x x m v m k : O $ X * > > > 1 > 1 1 0 5 5 5 : : H J G G G G G G G G G F F G G G G H J 5 5 L H G G G G G G G G G F G G G H J k ",
"* * % : ; : : : : % ; ; = ; = ; = = ; - = - = - = % = % * 7 G J J J j : G G K ~ ~ / ! / ! ~ ~ ~ ~ ~ ~ ~ ! G J 5 5 K G ! ~ ~ / / / / / / ~ ~ ~ ~ H J k ",
"$ $ 5 m m m b m k = q m c c k k k m 2.p.y.y.u.r.y.y.r.H k i 5 B H J j ; B J _ 1.<.<.<.1.<.<.<.<.<.<.1.1.=.J J 1 5 J J -.1.1.<.1.<.1.<.<.<.<.1.<.! K k ",
"$ 0 b K o.o./ J J : j J Y ..o.o...o.i.g.g.d.g.g.g.k.N.s.X.m = b F F u ; B s.d.:.<.<.<.<.<.<.<.<.<.<.<.<.<.-.! 5 5 Y ;.<.:.<.<.<.<.<.<.<.<.<.<.<.<.( j ",
"$ j ! ) <.1.#.~ F : u J / :.1.1.1.1.<.-.;.;.;.;.-.<.g.M.7.k = I ~ ~ x ; M j.g.-.<.<.<.<.<.<.<.<.<.<.<.<.<.1.L > 5 ! 1.1.<.<.<.<.<.<.<.<.<.<.<.<.1. .j ",
"$ u ( <.<.<.1.=.F : y ^ 1.<.<.<.<.<.<.<.<.<.<.<.<.<.<.x.3.k < ` <.1.U ; M g.c.u.:.-.:.:.:.<.;.<.1.1.1.1.<...P 5 5 ! _ ;.1.1.1.<.<.1.1.<.1.1.1.<.#.! k ",
"$ u ^ <.<.1.1.$.G ; y ( <.<.<.<.<.<.<.<.<.<.<.<.:.;.<.c.7.k : } <.<.S : B 9.n.c.5.5.6.6.5.5.8.1.-.-.-.:.o.G M 1 1 M F o.;.-.=.-.-.-.-.-.-.-.-.-.K J k ",
"$ j Y ) <.1.o.~ B ; y Y ) ;.1.<.1.<.<.<.1.<.1.1.1.1.1.>.( l : } :.<.S ; G G ,.M.v.n.v.v.v.v.M.7.B H H H J G = $ $ ; G J H H H H H G H H H H H H G J j ",
"$ j J H ) _ ! F B ; i H H ) _ ` _ ` ` o._ ..o.o.o.o.o.G H k : } :.:.-.W > > 7 p p p a a p p e 7 ; : ; : : ; @ @ + $ ; : ; ; ; ; : > : > : ; : ; : : ; ",
"$ j J H F F H H G ; i J H G G G G F H F H F F H G G G J L k - -.4.1.4.1.Z R ' D t % + 3 o X 1 r r r r r r r y u y y r r r y r y ; X $ X 5 y r y r y 0 ",
"$ j J J J H J H M ; y H H H H J J H H H H H H H H H H H J x 2 h.b.b.b.b.n.N.f.T J q % + . $ b P J J J J J L J J J J J J J J J P j : $ 1 M L J K K L k ",
"$ g H G F J J v > % = r J H H H J H J J H J J J J J J J L m = V C C C C C C z 5 q p d C V % k L H J H H H H H H J H J H J H H J J j = G J G J H H K j ",
"$ 1 r q q q r 5 O $ O ; r q r q q q q y r r r r r r r r r > o   , o X # # > 8 8 d y.v.b.l.2 k J H G G G H H G G F H F G G G G J J j % G J H G G H J k ",
"% > 5 7 1 1 5 1 5 7 1 7 1 > > > > > $ O O # : : ; : : ; 7 p p p p p p p p 9 > 5 Q <.1.1.;.- k H H o.o.o...o.o.o.o.o.o.o.o.o.o.H J j = B G ! =.o.J J k ",
"$ j J H Y Y T K I Y Y Y K K T K Y F > $ $ : F Y J H J G 7.M.v.v.v.c.v.c.m.,.G B 1 S ;.;.$.- l ^ ,.<.1.1.1.1.1.<.1.1.1.1.1.1.1._ ! g * G ! o.1.1._ P k ",
"$ k J ! -.;.;.-.;.;.-.-.-.-.-.:.o.J F 1 > F F o.<.-.-.=.1.8.5.6.5.8.6.6.c.v.8.G : S :.:.-.- g 3.v.<.<.<.<.<.<.<.<.<.<.<.<.:.:.4.) g * F =.4.<.<.1. .h ",
"$ j ^ =.1.1.1.<.<.1.1.<.1.1.1.1.:...! 6 1 L _ :.1.<.1.1.:.:.:.:.:.:.;.;.8.c.g.G : S :.1.-.; h *.c.<.<.<.<.<.<.<.<.<.<.<.<.<.:.1. .y = M =.1.<.<.1...j ",
"$ g  .1.:.<.:.<.<.<.<.<.<.<.:.<.1.1.! 1 > ! <.1.<.<.<.<.<.<.<.<.<.<.:.:.-.g.j.M : S :.1.-.: f 7.N.k.1.-.;.;.<.-.;.;.1.1.1.1.1.~ J j = F L o.1.1.( P k ",
"$ j ( ;.<.<.<.<.<.<.<.<.<.<.<.<.<.=.! 5 1 Y -.<.1.<.<.<.<.<.<.<.<.<.<.<.:.d.s.M ; c / / T % k  .t.N.z.g.g.g.k.g.k.d. . ._  . .J J j = G H ! .. .K k 5 ",
"$ k J T ;.;.;.;.:.:.;.:.;.;.<.<.=.J J 5 5 J J $.1.<.<.<.<.<.<.1.<.1.1.<.1.o.Y G : i G G M 1 u k N e.y.r.r.r.r.r.p.2.v j j k k k c r * k k k k j b 1 O ",
"$ j J H ! ! ! ! ! ~ ! ! ! ! ! ~ ! G J 5 5 J H Y ~ ! ~ ~ ~ ~ ~ ~ / ~ ~ ~ / J G B : j H H H H 7 % * @ $ * $ $ $ $ $ $ % = = % * * % = = * * * * * % * % ",
"$ k J H G G G G F H F H F F G F G H K 5 5 J J G G G F F G F F F G G G M G H J H : j J J J J F M M M M M F 6 @ $ @ = m M m M m M m M M m M M M M B 5 $ ",
"% k J J H H J H H J J J H J J J H H m > > M J J G J H J H J H J J H H J H J H m ; : 5 0 0 0 6 1 5 5 5 5 5 * X + > k J J J J J J K J J J J J J J J B q ",
"$ u M M M M M M B M M M M M M M G M : $ $ : M J G H H F H H H H H H J H H J k % % > : X X X * 5 1 1 1 1 1 5 5 % r L H H H H J G H H H H H H H H H L k ",
"$ : > > > : 1 > : : > : > : > : : : $ $ $ $ : ; : ; : ; > > > > : ; : : : > ; . X ; * . X X $ 1 1 1 m K K K K 7 q J H H G J H H H H H H H H H H H J k ",
"% q j i u i u 6 O @ O > i y y y r y u y u y r r r r r y ; X $ X 5 y q r q 6 l [ ] ] ] ] ] ] ] C r i s W ;.;.;.w q J H H H G H G G H H G H H G H H J k ",
"$ m J L ( ) ~ n 5 * 1 j L ( ( ( ( ( ( ( ( ( ( ( ( / ^ J h ; % > m ! ^ ^ ~ ! @.c.z.z.c.z.l.k.n.j.( J r s 1.<.<.a q J M _ =.o.=.o.#.o.=.#.#.#.=.@.J J k ",
"$ k ! / <.1._ K B = j L / <.1.<.<.<.<.1.<.1.<.<.1.<.<.! J j = G J  .<.<.<.<.<.<.1.<.<.4.1.1.d.n.k.^ 6 p <.<.<.a 6 ! *.1.1.1.1.1.1.1.1.1.1.1.1.1...! k ",
"$ k ) <.<.<.<.o.M = h ) <.<.<.<.<.<.<.<.<.<.<.<.<.<.<.<.( u ; G o.<.<.<.<.<.<.>.<.<.<.<.:.:.1.a.l.~ 6 s :.<.<.p 6 ^ n.0.:.<.<.<.:.<.<.<.:.<.<.<.4.` j ",
"* k  .<.<.<.1.#.M ; j _ 1.<.<.<.<.<.<.<.<.<.<.<.<.<.<.1.) u ; M -.1.<.<.<.<.<.<.<.<.<.<.1.:.;.u.v.~ 6 s 1.1.<.p 6 ^ c.u.;.<.<.<.<.<.<.<.<.<.<.<.<.) k ",
"$ k ~ o.<.1.=./ M = j ~ o.<.1.<.<.1.<.1.<.1.1.<.1.1.1.o.~ u ; B ) -.1.1.<.1.1.1.1.1.:.1.<.1.<.4.u.T 0 q / ~ / 7 6 ~ v.v.i.-.>.:.;.:.:.:.<.<.<.<.~ K k ",
"* k J K $.=.! H M = j J J =.=.=.=.=.=.=.-.=.=.-.-.-.=.J G j ; G G ( :.-.-.-.;.-.;.;.;.;.;.-.;.o.F H q 5 G G G > q ! *.v.b.k.z.z.k.k.z.z.>.( ) ( J L k ",
"* k J H H J H J M ; j L H J J J J H H J J J H H H H H H H g ; M J H J H J H J J J H I J H I J J F H q 7 H H H y q k f { 2.2.2.2.2.2.2.q.A f j j k k y ",
"* k J H H H H H m ; j J H H H G H G H G G H G H H H H J J j ; F J H H H H H G H H H H H H H H H J Y q 7 J J J J j * # @ @ O @ O O @ X X $ $ $ * $ % > ",
"* k J H H H J m 6 % 1 k J J J G J J J J J J J J J J J J k 5 = r G L J J K J J J J J J J J J J J H g > = 1 7 0 0 5 5 5 1 5 5 5 1 + X O $ > 5 5 5 5 0 > ",
"* r j j j j j q @ $ + 1 k j k j j k k j j k k k k k k k > X $ $ r m b v k c c m v v m m m v v m j = @ * : $ X X o = 1 > > 5 1 1 0 5 7 5 1 1 1 > 5 % X ",
"$ $ = > : : : : : : : : ; ; = = ; = $ $ # $ * = * * % * = * * * % * % * * % % * % * = = = = = = = = = : : ; - = - : : 1 y K K K J L Y J L L J ! L q $ ",
"* % r M B M G M M M N M M M M M M k ; $ $ : b M M M m m m n M m m m b b b M r O $ $ 7 m v v v k N w.r.r.r.r.e.w.r.2.N k i s ;.-.<.-.<.;.;.<.<.-.J J g ",
"= y B ! o.#.#.o.#.#.#.#.#.#.#.#. .G k > 1 k J _ #.o.#.o.#.#.o.o.o.o.o.o.X.~ M r = 0 m ! _ o._ ` #.i.d.d.d.d.d.d.j.b.8.^ g 2 1.1.<.<.1.<.1.<.1.<.H J k ",
"= v K T 1.1.1.1.1.<.<.1.<.<.1.1.#.G J 5 q K J =.4.1.1.<.<.<.1.<.1.1.1.1.<./ G M : k J T <.1.<.<.<.<.<.<.<.<.<.<.5.l.l.*.y 2 <.<.<.<.<.:.<.<.<.;.( ! j ",
"= x Y ) <.<.<.<.<.<.<.<.<.<.<.<.o.K G 5 0 J T -.<.<.<.<.<.<.<.<.<.<.<.<.<.( J m : j J / <.<.<.<.<.<.<.:.<.:.:.<.<.5.l.*.y 1 :.<.<.<.<.<.<.<.<.<.1.) h ",
"= x _ <.<.<.<.<.<.<.<.<.<.<.<.<.<.-.H 5 0 ! ;.<.<.<.<.<.<.<.<.<.<.:.<.<.<.<._ b : k ( <.<.<.:.<.<.<.<.<.<.<.<.<.;.4.l.%.y > 1.:.<.<.<.<.<.<.<.<.1.( j ",
"; k ..1.<.<.<.<.<.<.<.<.<.<.<.<.1.;.H 4 0 / <.1.<.<.<.<.<.<.<.<.:.<.<.:.<.1.o.m : k ..1.<.<.<.<.<.<.<.<.<.<.<.<.:.5.c.%.y 4 1.1.1.1.1.1.1.1.1.<.( ! j ",
"= k ~ ` <.<.:.<.<.<.<.<.<.<.1.<.-./ G 5 0 Y _ :.1.<.1.<.<.<.1.1.1.1.1.1.1.#./ m : j / o.<.<.1.<.1.<.1.1.<.<.1.<.<.4.5.) y : o.o.o.o.o.o.o.o.o.` G J j ",
"= c H Y o.o.o.$.o.=.o.o.o.=.#.o.) G B 5 q J H _ -.=.#.=.=.#.-.-.-.-.-.-.=.! G m : k J ! -.-.-.-.-.-.-.=.-.=.-.-.-.o.Y J y : G H F G H G F H G G H K j ",
"= c K H H H H H H H H H H H H J H H G 7 q H H H H J H H J H H J H H H H H J G m : k J G K J K H J K K I J K K T K K H H u : H H H H H H H H H H H L k ",
"- k H H H H H H H H H H H G H G H H G 5 r J H H G H H G H H H G H H H H H H J m : k J H H G G G H G H H H G H G H G J H u : J J J Y J J J J J J ! j : ",
"- 5 k J H J H J H J J H J H J H J J G 0 r J J J J J J J J J L J J J J J J J K m > c L J J T J J J K J H J K J J J J J J i ; j k j j j k j j j k k : O ",
"% $ 5 i u u i u u i u h i j j j j j i > 1 j j j j k j k j k k k k k k k k k x u = r c k x k x x c k k c c k k k k c k m q $ $ $ + $ $ $ + $ $ $ $ $ $ "
};
